<mxfile host="Electron" agent="Mozilla/5.0 (Windows NT 10.0; Win64; x64) AppleWebKit/537.36 (KHTML, like Gecko) draw.io/27.0.9 Chrome/134.0.6998.205 Electron/35.4.0 Safari/537.36" version="27.0.9">
  <diagram name="Page-1" id="E2dsfsgIBJnHIGX87KXI">
    <mxGraphModel dx="3827" dy="1789" grid="1" gridSize="10" guides="1" tooltips="1" connect="1" arrows="1" fold="1" page="1" pageScale="1" pageWidth="850" pageHeight="1100" math="0" shadow="0">
      <root>
        <mxCell id="0" />
        <mxCell id="1" parent="0" />
        <mxCell id="rHatvHldpQKt2PcZZXSv-7" value="" style="shape=image;verticalLabelPosition=bottom;labelBackgroundColor=default;verticalAlign=top;aspect=fixed;imageAspect=0;image=data:image/png,iVBORw0KGgoAAAANSUhEUgAACc4AAAKpCAYAAACPPC2KAAAAAXNSR0IArs4c6QAAAARnQU1BAACxjwv8YQUAAAAJcEhZcwAAFxIAABcSAWef0lIAAP+lSURBVHhe7N15nI3l/8fx95mxzzDE2LJkK9uXIaEoZCmULUtFGdJUSFIhv0qblCQqW5IpS8kSKmUJoSSSLUS2yjZmtS8zc//+iJNzWeacmXPOnOX1fDzux+Ocz+c623Wf+77OfV3XuW+bZVmWAAAAAAAAAAAAAAAAAAAIEiFmAAAAAAAAAAAAAAAAAACAQMbEOQAAAAAAAAAAAAAAAABAUGHiHAAAAAAAAAAAAAAAAAAgqDBxDgAAAAAAAAAAAAAAAAAQVJg4BwAAAAAAAAAAAAAAAAAIKkycAwAAAAAAAAAAAAAAAAAEFSbOAQAAAAAAAAAAAAAAAACCChPnAAAAAAAAAAAAAAAAAABBhYlzAAAAAAAAAAAAAAAAAICgwsQ5AAAAAAAAAAAAAAAAAEBQYeIcAAAAAAAAAAAAAAAAACCoMHEOAAAAAAAAAAAAAAAAABBUmDgHAAAAAAAAAAAAAAAAAAgqTJwDAAAAAAAAAAAAAAAAAAQVm2VZlhmE8yzLUkpKihkOShEREbLZbGbYbajrzPH0egEAAAAAIJjRX/Ef+iACH9/3zGHbAAAAAADANzFxLouSk5NVqFAhMxyUkpKSVLBgQTPsNtR15nh6vQAAAAAAEMzor/gPfRCBj+975rBtAAAAAADgm7hUKwAAAAAAAAAAAAAAAAAgqDBxDgAAAAAAAAAAAAAAAAAQVLhUaxaZlyfYt2+fIiIiHMoEqpSUFN1www32+56+5EAw17UrvL1eAAAAAAAIZsHcX0EfRPAJ5u+7K9g2AAAAAADwD0ycyyKzsyiYOkG8/dm9/Xr+inoCAAAAAMB7gvk4PJg/e7BinTuHegIAAAAAwD9wqVYAAAAAAAAAAAAAAAAAQFBh4hwAAAAAAAAAAAAAAAAAIKgwcQ4AAAAAAAAAAAAAAAAAEFSYOAcAAAAAAAAAAAAAAAAACCpMnAMAAAAAAAAAAAAAAAAABBUmzgEAAAAAAAAAAAAAAAAAggoT5wAXxcbGymazXbaEhISoQIECqlq1qnr16qW1a9eaDwUAAAAAAACQBfTNAQAAAAAAd2HiHOAmlmXp+PHj2r59uyZPnqz69eurf//+ZjEAAAAAAAAAbkbfHAAAAAAAcBUT54AsWLhwoY4fP67jx4/r2LFj+vPPPzVmzBgVKFBAkjRmzBiNGjXKfBgAAAAAAACALKJvDgAAAAAAZAUT54AsyJs3r8LDwxUeHq78+fOrQoUK6tevnxYvXqyQkH83r2HDhik1NdV8KAAAAAAAAIAsoG8OAAAAAABkBRPnAA+oV6+emjZtKklKTEzUr7/+ahYBAAAAAAAA4AH0zQEAAAAAAGcwcQ7wkKioKPvtv/76yyEHAAAAAAAAwHPomwMAAAAAABlh4hzgITabzX7bsiyHHAAAAAAAAADPoW8OAAAAAABkhIlzgIds2bLFfrtUqVIOOQAAAAAAAACeQ98cAAAAAADICBPnAA/YuHGjFi9eLEmKiIjQLbfcYhYBAAAAAAAA4AH0zQEAAAAAAGcwcc5PxMbGymazyWazacWKFWb6ii6Wj46ONlPwAMuyFBcXp48//ljNmzdXWlqaJGngwIHKmTOnWRwAAAAAAMBp9A0B10bfHAAAAAAAcBUT54AsaNKkib0TOiQkRMWKFdMjjzyi+Ph4SVLPnj01ePBg82Fwk/3792vZsmWaM2eO5s2bp5UrVyohIcEsBgAIUCkpKVq1apUWLFigOXPm6Pvvv9eePXvMYvCgP/74Q0uWLNGsWbP01VdfafXq1Tp58qRZDAAQoI4cOaIVK1boyy+/1Ny5c7V8+XIdPHjQLAYAHkPfHAAA2ceyLG3cuFGLFi3SrFmztHDhQq1du1bnz583iwIAAtSl4/Xz58/XypUrlZiYaBaDh6SmpuqXX37RwoULNWvWLH333XfasGGD0tPTzaK4hkxNnEtJSdG7776rRo0aqVixYsqTJ4/KlSunjh07atmyZfZyxYoVs3dc7N692+E5gEAUEhKi0qVLq0uXLlqyZIkmT56skJBMbWa4irS0NC1YsEB33323brjhBjVt2lQdO3ZU+/bt1ahRI11//fXq3r271q5dK8uyzIcDAALAxo0bFRMTo5IlS+qOO+5Q27Zt1bFjRzVr1kwVKlTQnXfeqVmzZtFJ5yFnzpzR1KlTdeutt6py5cpq0aKFOnfurDZt2uj2229XyZIl9dRTT2nHjh3mQwEAAcCyLP3www/q0qWLSpUqpSZNmqhDhw667777dOedd6p06dJq3769lixZQicdAK+jbw4AAM9LSUnR+++/r6pVq6pWrVq6++671blzZ7Vu3Vr169dX2bJlNXToUP3zzz/mQwEAASA1NVXz58/XXXfd5TBe365dO/t4fY8ePbRu3TrzoXCTQ4cO6bXXXlO5cuVUr149tW7dWp07d1bLli11880366abbtKoUaOYxOgkl3sNZsyYoYoVK2rAgAFauXKl4uLidPbsWe3bt09z5sxR06ZNNWzYMCUmJiouLk6SVKBAAZUvX958KsDvLVy4UMePH9fx48d14sQJpaam6q+//tLnn3+uZs2amcWRRbNmzVL58uXVtm1bLVq0yExLks6ePatPP/1U9evXV506dbRhwwazCADAT23fvl0NGjRQrVq1NGnSJJ06dcosIklavny5OnfurLJly2rKlClmGplkWZZGjx6tUqVK6eGHH9bPP/9sFpEkHTt2TO+9956qVKmiZs2aaf/+/WYRAICfWrlypapXr67GjRvriy++UGpqqllE6enpmjdvnlq0aKHKlSvru+++M4sAgNvQNwcAgPekpqZq4MCBKlmypPr163fVP00eOnRIr776qm644Qbdf//9Sk5ONosAAPzU559/rvLly6tdu3ZavHixmZYu/Pk+NjZWdevW1S233KKNGzeaRZBJx48fV/fu3VWmTBm99NJLV52k/ueff+qZZ57R9ddfr379+uncuXNmEVzCpYlzw4cPV9euXe2nug8PD1erVq3Uq1cvtW/fXgULFpQkvfDCC/roo4/sj4uKipLNZrPfBwJF3rx5FR4ervDwcIWFhfE996C3335bnTt31l9//WWmrmrDhg2644479O2335opAICfWblypW677Tb99NNPZuqqDh06pJ49e+r//u//OAtpFqWlpal37956+umnXbos+vfff6/69evrt99+M1MAAD/z+eefq3nz5tq2bZuZuqpdu3bpnnvu0aRJk8wUALgFfXMAAHjHyZMn1bZtW7399ttX/TOrKS0tTTNnzlTDhg1dGtsBAPgey7I0fPhwPfDAA/r777/N9FWtX79et99++1VPigPnHTp0SI0aNdKnn356xT+zXsmZM2f0/vvvq2XLlkpJSTHTuMDpiXOzZ8/WkCFDJEk5cuTQ0KFDdfjwYX3zzTeaNGmS5s6dq3379ql169aSpBdffNH+2Fq1atlvA4Cr3nvvPQ0cONAMO+XkyZNq166dVq1aZaYAAH5iw4YNatWqVab/nfrGG2/otddeM8NwkmVZeuqppzRhwgQz5ZTDhw+refPm2rVrl5kCAPiJBQsWqGvXrpn6d2paWppiYmI0ffp0MwUAAADAD6SmpqpTp05auHChmXLK77//rhYtWrj0Z0wAgG8ZPXq0fb6Qq06cOKG2bdvqxx9/NFNwUkpKiu66665Mn6Rg2bJlateunc6ePWum4OzEuZ07d6pHjx6SpJCQEE2fPl0vv/yywsLCHMpFRETos88+U2RkpENnalRUlEM5AHDW0qVL1b9/fzPsknPnzqlt27ZXPVUpAMB3JSQkqHXr1jp58qSZcsnQoUM1Z84cMwwnfPjhhxo7dqwZdklCQoJatmyp06dPmykAgI/bvn277r//fqWnp5spl/To0UPr1683wwAAAAB83KBBg7J8ZZ8//vhDnTp14qoQAOCHFi1apGeeecYMu+Ts2bNq06aNDh48aKbghG7dumnLli1m2CUrVqzQU089ZYbh7MS5wYMH68SJE5KkAQMGqHPnzmYRu/z586tTp04OMc44ByCzhg8f7pYDqaSkpEyfKQcAkH2mTJmiw4cPm+FMGTZsmFvalGCSlpam4cOHm+FM2b17t7744gszDADwcaNHj3bLxOfz589r5MiRZhgAAACAD0tMTNS4cePMcKYsX75cP//8sxkGAPg4d43XJyYmauLEiWYYGdi0aZO+/vprM5wpkydP1qFDh8xw0Mtw4tyGDRv05ZdfSpIiIyM1dOhQs8hlqlevbr+dK1cuVa1a1SF/0YEDB9SnTx+VK1dOefLkUYkSJdSxY0etXbvWLIpLnD59WidOnMhwAfzd9u3btWzZMjOcaZMmTeL0owDgR9LT0zV+/HgznGm//fabfvnlFzOMa/j222+1f/9+M5xpWT1zHQDAu5KTkzVt2jQznGlz5sxx24T4YEffEAAAALxhypQpOnPmjBnONHdNwgMAeMfvv/+uH374wQxn2ocffuhw9UpkzJ3jZKmpqZo0aZIZDnoZTpy79AxNPXv2VHh4uEP+SvLkyWO/Xb16deXMmdMhrwsT8v73v/9p3Lhx2rdvn3Lnzq0jR45ozpw5atCggWJjY82H4IJWrVopf/78GS6Av3P3GeLi4uI0d+5cMwwA8FGLFy/Wnj17zHCW0DnnGnfX17p167Ru3TozDADwUZ9++qlOnTplhjMtNTVVH330kRlGJtA3BAAAAE9z959aJemLL77Q0aNHzTAAwEe5ux04fPiw5s2bZ4ZxFSkpKW79U6skTZw4UefPnzfDQc1mXeOcipZlqVSpUvbrDP/222+Kiooyi11m1KhR9msc9+zZU5MnT3bInzp1SjfddJP++ecf3XLLLZo2bZpuvPFGJSQk6Nlnn1VsbKxy5syp9evXq0aNGg6PzYr09HQlJCSY4SxJSUlRpUqV7PeTkpJUsGBBhzLuEBsbqx49ephhp3Tv3t0jExGTk5NVqFAh+/1du3YpIiLCoYw7eauuM3Lpuli+fLkaN25sFslW3l4vnlS5cmUlJiaa4Sxp3ry5pk+fboYBAD6od+/emj17thnOkty5c2vPnj1X/GMHHCUmJqpKlSpuOQX7pR577DG99tprZhgA4IPuvvtubdiwwQxnSaVKlfTjjz+aYb/mrf4K+obgC7z1fb8WX++bE9sGACBArF+/Xq1atTLDWTZixAhFR0ebYQCAD6pUqZJSUlLMcJbcfffd+vTTT80wruCLL75Q3759zXCWzZ49W3fccYcZ9nmFCxdWSEiG54dznXUNW7dutSRZkqyIiAgrLS3NLHJFTz75pP1x77//vpm2Ro4caUmyChQoYB06dMghl5aWZtWrV8+SZLVr184hl1VxcXH29+WpJSkpyXxZt5gyZYr9NZYvX26mr+hi+e7du5spt0hKSrrs83tz8VRd+7vsXi8sLCwsLCwsLCwsLCwsLMG8eKq/gr4hFl9cPPV993dsGywsLCwsLCwsLCwsLCws7l2OHDliHn67xTWn4u3fv99+u3z58k7P3Pvpp5/st2vVquWQk6TPPvtMktS1a1cVL17cIRcSEqKnn35akvTNN9+4ffYqAAAAAAAAAAAAAAAAAMA/HDt2zAy5xTVnwh06dMh++7rrrnPIXc3OnTvtl/Gw2WyqWbOmQ/748eP69ddfpQuXTLySZs2ayWaz6fz581q9erWZBgAAAAAAAAAAAAAAAAAg0645ce78+fP226dOnXLIXc3IkSP175UgpIoVKyo8PNwhv337dvvtqlWrOuQuKly4sIoWLSoZ5QEAAAAAAAAAAAAAAAAAyCqbdXGW2xXMmjVLnTt3liQVLFhQ8fHxCg0NNYvZrV69WnfccYd94lznzp01c+ZMhzLz589Xu3btpAun0cufP79D/qJatWpp48aNGjBggN555x0znSnp6elKSEgww1mSkpKiSpUq2e8nJSWpYMGCDmXcITY2Vj169JAkLV++XI0bNzaLXMZms0mSunfvrtjYWDOdZcnJySpUqJD9/q5duxQREeFQxp28Vdf+ztvrxZN69Oihb775xgxnyUsvvaS+ffuaYQCAD5o2bZoGDBhghrPk9ttv15w5c8wwrsCyLDVu3Njtf2SJjY1Vq1atzDAAwAe98sorGjt2rBnOkocfflgjR440w37NW/0V9A3BF3jr++7v2DYAAIHg1KlTqlGjhtsvi7Zq1SrddNNNZhgA4IMefvhhfffdd2Y4S1555RU98cQTZhhXsH//ftWtW9c+B8sd8uXLp02bNvnFMarZB5GQkOD01VJdcc2Jc7t371bFihXt9+fMmaMOHTo4lLlo586datiwoY4ePWqPDR8+XIMHD3YoN2PGDHXt2lW6cEa7HDlyOOQvatCggX766SfFxMRo4sSJZtpnmJ0gnuos8ofOUU999ou8/Xr+KpDq6fvvv1ezZs3McKblzp1b//zzj4oUKWKmAAA+6OTJk7r++uuVkpJipjJt9uzZuu+++8wwrmLChAluPYAtXbq09uzZc9VjAACAb9mzZ48qVqzo1s65jRs3qmbNmmbYr3nrOJy+IfgC1rlzqCcAQKB4+umnNXr0aDOcaY0bN9by5cvNMADARy1evFh33XWXGc60PHny6MCBAx6Z/BSo7rnnHreebOjRRx/Vhx9+aIZ9kreOra95qdYKFSooKirKfr9Pnz7auHGjQ5m0tDRNnz5d9evXV0JCgsMgWK1atRzKAoAr7rzzTrf+6+j+++9n0hwA+JGwsDBFR0eb4UwrWbKk2rRpY4ZxDV27dr3qGaIz47HHHmPSHAD4kfLly6tly5ZmONMaNGgQcJPmAAAAgEDmzj9USlLv3r3NEADAhzVr1szhZFtZ9eCDDzJpzkXubjvd/XyB4JoT5yTp9ddft98+fPiw6tSpo6ZNmyomJkYdO3ZU2bJl1a1bNyUlJWnUqFEO/0K+0sS5sLAw++3Tp0875C516tQpSVJ4eLiZAhAkbDabnnzySTOcKTabjUu0AoAfeuKJJ9w20ap3797KmTOnGcY15M+fXz179jTDmZI3b1498sgjZhgA4OP69etnhjLNnc8FAAAAwPNuvPFGt/2ZpnTp0mrXrp0ZBgD4sJCQELeO1/fp08cMIwN33XWXw+VKs+KOO+5wOHka/pXhxLnWrVtr+PDh9vtpaWlatmyZJk2apDlz5ujAgQOKjIzUF198oQYNGigtLU2SVKJECRUtWvSSZ/pXiRIl7LcPHjzokLvUoUOHJKM8gODzxBNPqEuXLmbYZe+8847q1KljhgEAPu6mm25yyymjW7ZsqUGDBplhOGH48OG69dZbzbBLbDabPvvsMxUvXtxMAQB83F133aXnn3/eDLusd+/e6tSpkxkGAAAA4OOmTJmicuXKmWGXhIWFad68efypFQD8UN++fdWxY0cz7LLRo0erdu3aZhgZCA0N1ZdffqmIiAgz5ZLrr79e06dPN8NwZuKcJA0ePFirV69Wx44dVbx4ceXMmVMlSpTQ7bffrtGjR2vHjh3q1KmTw2Vcr3S2OUmqUqWKbDabJGnbtm1mWpKUkJCguLg46UJ5SNHR0bIsS5ZlqXHjxmb6ii6Wj42NNVOA3wgJCVFsbGyW/tE0ZMgQ9e/f3wwDAPxEjx499NZbb5lhp91+++2aOXOm285cF2zy5s2rBQsWXPX3fUZCQkI0adIktW3b1kwBAPzE66+/rscee8wMO+2BBx7QmDFj7P1ByBz6hgAAAJAdihUrpm+//ValS5c2U04JCwvT3LlzmSwBAH4qJCREn376qe666y4z5bQXX3yRKxFkQbVq1bRgwQIVKFDATDmlePHi+vbbb1WqVCkzBWcnzklSgwYNNGvWLB06dEjnzp3TwYMHtXLlSj311FP2axBv2rTJXv5qA2v58+fXzTffLElaunSpmZYkff/997IsSzlz5lTDhg3NNIAgkydPHi1YsMDlgZqcOXNq7NixGjZsGAM0AODnBg4cqGnTpilPnjxm6poefPBBLVmyRPnz5zdTcEGRIkX0ww8/qHXr1mbqmvLnz6/58+dziVYA8HMhISEaP368hg0bppAQp7uSZLPZNHjwYE2bNo0J7AAAAIAfu+mmm/Tzzz/bx3idVbJkSf3www9q0aKFmQIA+JG8efPqq6++0qOPPmqmrilXrlyaOHGiXn31VTMFF91xxx1avXq1ypYta6auqXr16lqzZo3+97//mSlc4HxvpxOcOeOcLvzTWJKmT5+uI0eOOOQsy9Lo0aOlC5eJzerpBgEEhhw5cmjChAnatm2b+vXrd83Z1GXKlNGwYcP0999/q3fv3mYaAOCnunbtqn/++UcjR45UxYoVzbRdWFiYHn/8cW3atEnTp09X7ty5zSLIhPz58+urr77S2rVr1b1792vWa7Vq1TR27Fj9888/uueee8w0AMAP2Ww2DRkyRPv27dOLL76oYsWKmUXsihQpokGDBmn37t0aPny4S5PtAAAAAPimkiVL6pdfftGiRYvUtm3ba/7Ob9CggaZPn649e/a4PNkOAOCbcubMqQ8//FC///67nnzyyWuO15ctW1bDhw/X33//rZiYGDONTPrf//6nnTt3aubMmde8GoHNZlOrVq309ddfa+PGjbrhhhvMIrjE1X/RuMiyLG3evNl+PyoqyiF/qccff1ylSpVSSkqK2rZtq507d0qSEhMT1atXL61Zs0Y5c+bUK6+8Yj4UCAg2m82+jBw50kw7JSoqyv4cwTQgXaVKFY0ZM0YHDx7Ue++9Z6Y1depU7dmzR0OGDLnmQA4AwD8VLlxYzzzzjP744w99/vnnZlrvvPOODh48qPHjx6tGjRpmGllks9lUt25dxcbG6sCBAxo+fLhZRPPnz9eWLVvUu3fvax44AwD8U+nSpfXqq6/qr7/+0kcffWSmNX78eP3999968803Va5cOTMNAD6BvjkAADInJCRELVq00Lx587R37169/PLLZhEtW7ZMq1ev1oMPPnjNP14CAPxT1apV9d577+nAgQMaM2aMmda0adO0e/duDR48WEWLFjXTyKJcuXKpc+fOWr58uVauXGmm9dJLL+nPP//UN998o9atWys0NNQsAoPbJs7t3btXx44dkyQVKFBA5cuXN4vY5cuXT/Pnz1ehQoW0du1a3XTTTSpYsKAiIyP18ccfKzQ0VBMnTmSwE05bt26d+vbtq2rVqiksLExlypRR586d7ZMyM5KcnKyYmBhFRkYqLCxMTZo00YYNG8xidu6Ykdu+fXtNnTr1skuepaena8SIESpXrpzy5MmjGjVq6LPPPnMoI0lvvPGGpk6dqiJFipipoBAWFqb777/fDOuuu+5i5w8AQSAkJER33nmnGdZDDz3EZC0vKVy48BUvwXrrrbdyiXQACAK5cuVSmzZtzLDuu+8+ly+tDsD/0TcHAEDwKVOmzBWv+lO9enUzBAAIQOHh4farTV6qRYsWjNd7SeXKlc2Q+vbte835Wric2ybObdq0yX774r/trqV27dr2M1GULVtWp0+fVmRkpDp06KAff/xRPXr0MB8CXNVbb72lOXPmqGnTphozZoxiYmK0cuVK1a5dW1u3bjWLO0hPT1fr1q01Y8YM9e3bVyNGjFBcXJwaN26sXbt22cstXbpUaWlpDo+VpEWLFpkhp9SoUUPdunVTlSpVHOL/93//p0GDBql58+Z6//33VaZMGT344IOXnVWnVatW6tatm8LCwhziAAAAAAAAgDfRNwcAAAAAAPyR2ybObdy40X67Vq1aDrmruf766zV27Fjt27dPZ8+e1eHDhzVnzhzVq1fPLApc04ABA7R//36999576tWrl1544QWtWrVKqampevPNN83iDmbPnq2ffvpJsbGxGjp0qPr06aMVK1YoNDRUQ4cOlS5cinjSpEmqX7++fZLo3r17ddddd+mdd97RiRMnjGfNnAMHDuidd95Rnz599OGHH+rRRx/VV199pdtvv13PPffcFTsHAQAAAAAAgOxE3xwAAAAAAPBHbps4Z55xDvCm2267Tbly5XKIVapUSdWqVdP27dsd4qbZs2erWLFi6tChgz0WGRmpzp07a/78+Tp79qxsNptmzpypUaNG6fHHH9ehQ4fUoUMH9enTR4sXL1Z4eLi2b9+uvHnz6uGHH3Z4/tWrVys0NFSDBg1yiF/J/Pnzdf78eYdTW9tsNj3xxBP6559/tGbNGofyAAAAAAAAQHajbw4AAAAAAPgjt02cmzdvnizLkmVZio6ONtOA11mWpSNHjqhIkSJmysFvv/2m2rVrKyTEcXOoW7euTp06pZ07d9pjISEhDpchvvR2lSpV9Nprr2nq1KlasGCBJOnkyZOKjo5W5cqV9eqrr9rLXs1vv/2msLCwyy4RUbduXXseAAAAAAAA8HX0zQEAAAAAAF/ntolzgK+ZPn26Dhw4oC5dupgpB4cOHVKJEiXMsD128OBBWZalrl27qn///ho/frxKlCihuXPn6v3331eLFi3sl4MYMGCAGjZsqJiYGCUkJGjQoEHav3+/PvnkE+XOndt4hcsdOnRIxYoVc+j0k/FeAAAAAAAAAF9H3xwAAAAAAPB1TJxDQNqxY4f69OmjW2+9Vd27dzfTDk6fPn3FjrM8efLY8zabTdHR0fr5559Vs2ZNSVK5cuW0ePFiDRgwQOHh4dKFf73GxsbqxIkTatmypcaNG6fnn39ederUcXjuq3HmvQAAAAAAAAC+jL45AAAAAADgD5g4h4Bz+PBhtW7dWhEREZo9e7ZCQ0PNIg7y5s2rs2fPmmGdOXPGnpek5s2bX/G57r77bof7FSpU0Msvv6x169apWrVqevHFFx3y1+LsewEAAAAAAAB8EX1zAAAAAADAXzBxDgElJSVFLVu2VHJysr777juVLFnSLHKZEiVK6NChQ2bYHrvSc+zbt88MOVi8eLF04fINCQkJZvqqSpQoocOHD8uyLIf4td4LAAAAAAAA4AvomwMAAAAAAP6EiXMIGGfOnNG9996rnTt36uuvv1bVqlXNIlcUFRWlDRs2KD093SG+du1a5cuXTzfeeKNDPCMTJkzQkiVLNGzYMJ07d06PPfaYWeSqoqKidOrUKW3fvt0hvnbtWnseAAAAAAAA8DX0zQEAAAAAAH/DxDkEhLS0NHXp0kVr1qzRrFmzdOutt5pFpAv/Dt2xY4fOnz9vj3Xs2FFHjhzR3Llz7bH4+HjNmjVL9957r3Lnzm2PZ2Tv3r167rnndN9992nIkCEaOXKkFixYoE8//dQsekVt27ZVzpw5NW7cOHvMsixNmDBB119/vW677TaH8gAAAAAAAEB2o28OAAAAAAD4IybOISA888wzWrBggVq2bKnExERNmzbNYbno+eefV5UqVXTgwAF7rGPHjqpfv7569OihV199VePGjVPjxo2VlpamV155xV4uI5ZlqWfPnsqbN6/Gjx8vSXrsscfUvHlzPfXUUzp48KD5kMuUKlVK/fv319ixY/XYY4/po48+0r333qtVq1ZpxIgRCg0NNR8CAAAAAAAAZCv65gAAAAAAgD9i4hwCwsaNGyVJX331lR566KHLlmsJDQ3VwoUL1aVLF7333nt67rnnVKRIES1btkw33XSTWfyq3n//fa1YsUITJkxQZGSkPT558mSlp6fr0UcfdSh/NW+++abeeOMNLVq0SH369NG+ffs0bdo0Pfjgg2ZRAAAAAAAAINvRNwcAAAAAAPyRzbIsywzCecnJySpUqJD9flJSkgoWLOhQJlB5+7N7+/U8yWaz6bnnntPAgQMVFhamvHnzmkUylJycrNTUVNWuXVs1atTQ119/bY8HSj1l5OjRoypatKhDLC4uzqFzFAAQuGgHsh/rAACCG+3Av4LpONwUzJ89WAXKOvdk39zFXCDUEwAAGeGYAACCG+1A9gr0+vfWsTVnnAOyydtvv63IyEiNHTvWTDmlcePGioyM1N9//22mAAAAAAAAAFwDfXMAAAAAAICJc0A2WLJkiX3p3LmzmXbKxIkT7c8xbNgwMw0AAAAAAADgCuibAwAAAAAAYuIckD2aNWtmX8qUKWOmnVKvXj37c9SsWdNMAwAAAAAAALgC+uYAAAAAAICYOAcAAAAAAAAAAAAAAAAACDY2y7IsMwjnJScnq1ChQvb7+/btU0REhEOZQJWSkqIbbrjBfj8pKUkFCxZ0KONOwVzXrvD2eslOR48eVdGiRR1icXFxioyMdIgBAAIT7UD2Yx0AQHCjHfhXMPdXBFMfBP4VzN93V7BtAACCBccEABDcaAeyV6DXv9kH4aljaybOZZG5ooKZp76kF1HXmePp9ZKdAr0hAABcG+1A9mMdAEBwox34F/0V/wnkPgj8i+975rBtAAACFccEABDcaAeyV6DXv9kH4aljay7VCgAAAAAAAAAAAAAAAAAIKkycAwAAAAAAAAAAAAAAAAAEFS7VmkWWZSklJcUMB6WIiAjZbDYz7DbUdeZ4er1kp0A/9SgA4NpoB7If6wAAghvtwL/or/hPIPdB4F983zOHbQMAEKg4JgCA4EY7kL0Cvf69dalWJs4B8FuB3hAAAK6NdiD7sQ4AILjRDgAAAADBjWMCAAhutAPZK9Dr31sT57hUKwAAAAAAAAAAAAAAAAAgqDBxDgAAAAAAAAAAAAAAAAAQVJg4BwAAAAAAAAAAAAAAAAAIKkycAwAAAAAAAAAAAAAAAAAEFSbOAQAAAAAAAAAAAAAAAACCChPnAAAAAAAAAAAAAAAAAABBhYlzAAAAAAAAAAAAAAAAAICgwsQ5AAAAAAAAAAAAAAAAAEBQYeIcAAAAAAAAAAAAAAAAACCoMHEOAAAAAAAAAAAAAAAAABBUmDgHAAAAAAAAAAAAAAAAAAgqTJwDAAAAAAAAAAAAAAAAAAQVJs4BAAAAAAAAAAAAAAAAAIIKE+cAAAAAAAAAAAAAAAAAAEGFiXMAAAAAAAAAAAAAAAAAgKDCxDkAAAAAAAAAAAAAAAAAQFBh4hwAAAAAAAAAAAAAAAAAIKgwcQ4AAAAAAAAAAAAAAAAAEFSYOAcAAAAAAAAAAAAAAAAACCpMnAMAAAAAAAAAAAAAAAAABBUmzgEAAAAAAAAAAAAAAAAAggoT5wAAAAAAAAAAAAAAAAAAQYWJcwAAAAAAAAAAAAAAAACAoMLEOQAAAAAAAAAAAAAAAABAUGHiHAAAAAAAAAAAAAAAAAAgqDBxDgAAAAAAAAAAAAAAAAAQVJg4BwAAAAAAAAAAAAAAAAAIKkycAwAAAAAAAAAAAAAAAAAEFZtlWZYZhPMsy1JKSooZDkoRERGy2Wxm2G2o68zx9HrJTkePHlXRokUdYnFxcYqMjHSIwTlsY0D2CeR9tSfRDmQ/1gEABDfaAQAA4Avo1/yPp/uYqOvM8fR6yU4cE7gX2xiQfQJ5X+1JtAPZK9DrPzk5WYUKFbLfT0pKUsGCBR3KuAMT57LIXFHBzFNf0ouo68zx9HrJToHeEHgb2xiQfQJ5X+1JtAPZj3UAAMGNdgAAAPgC+jX/4+k+Juo6czy9XrITxwTuxTYGZJ9A3ld7Eu1A9gr0+jfbRU9tp1yqFQAAAAAAAAAAAAAAAAAQVJg4BwAAAAAAAAAAAAAAAAAIKlyqNYvMUwPu27dPERERDmUCVUpKim644Qb7fU+dFvGiYK5rV3h7vWSnQD/1qLexjQHeE0z7ak+iHch+rAMACG60AwAAwBcEc7+mt/uYgrmuXeHt9ZKdOCZwL7YxwHuCaV/tSbQD2SvQ699sFz21nTJxLou8taJ8kbc/u7dfz18FUz0FekPgbcH03QGyG9ube9AOZD/WAQAEN9oBAADgC4K5n8Xbn93br+evgqmeOCZwr2D67gDZje3NPWgHsleg17+3tlMu1QoAAAAAAAAAAAAAAAAACCpMnAMAAAAAAAAAAAAAAAAABBUmzgEAAAAAAAAAAAAAAAAAggoT5wD4jdTUVG3evFlTpkxR37591bZtW7OIOnXqpEGDBumLL77Qnj17ZFmWWQQA4Kcsy9L+/fs1d+5c/d///Z/uv/9+s4juvfdePfHEE/roo4/022+/6dy5c2YRAAAAAAAAAJlw4sQJrVq1SqNHj9ZDDz2kli1bmkXUo0cPvfHGG1q0aJHi4+PNNADAj106Xt+nTx+1adPGLKLOnTtr8ODBmjVrFuP18As2i29pliQnJ6tQoUL2+0lJSSpYsKBDmUDl7c/u7dfzV4FWT+np6Vq8eLHGjRunpUuX6vTp02aRaypUqJDuu+8+9e7dW7Vq1TLTuESgfXcAX8b25prff/9d48eP18yZM13ubMuVK5eaNGmiJ554Qq1bt1aOHDnMIsiCo0ePqmjRog6xuLg4RUZGOsQAAIGJdgAAAPiCYO5n8fZn9/br+atAq6fjx49r+vTpmjRpkn777TeXJ0BUqFBB0dHR6tWrl4oXL26mcYlA++4AvoztzXnp6elatGiRfbz+zJkzZpFrKlSokDp27KjevXsrKirKTCMLAr1vzlvbKWecA1wUGxsrm8122RISEqICBQqoatWq6tWrl9auXWs+FC5ISEjQyJEjValSJbVs2VJfffWVy5PmdGHn+dFHH6l27dq69dZbNXXqVJcbc8DXsB9CMDh//ry++OILNW7cWNWrV9fYsWNdnjQnSefOndOiRYvUrl07lS9fXsOGDdORI0fMYgAAAAAAAPAT9I96x7Zt2/Tkk0/q+uuv1xNPPKENGza4PGlOknbv3q0XX3xRpUuX1v3336+VK1dm6nkAX8E+CMEiISFBb7/9tipWrKhWrVrp66+/ztQ4e1JSkiZNmqRatWrptttu07Rp03T27FmzGJBtmDgHuIllWTp+/Li2b9+uyZMnq379+urfv79ZDBmwLEtTp05VxYoV9dxzz2nPnj1mkUz7+eef9fDDD6tmzZr66aefzDTg99gPIVD89ttvqlOnjrp06aIffvjBTGfa33//rRdeeEEVK1bUxIkT6aADAAAAAAAIIPSPusepU6f09NNPq3r16vrggw90/Phxs0impKamaubMmWrUqJE6dOigw4cPm0UAv8Y+CIHCsix98sknqlixogYOHKi9e/eaRTJtzZo1euihhxQVFaWff/7ZTAPZgolzQBYsXLhQx48f1/Hjx3Xs2DH9+eefGjNmjAoUKCBJGjNmjEaNGmU+DFdx6NAhtW3bVg8//LCSk5PNtNvs3LlTDRs21DPPPJOps9gBvoT9EALJuXPnNHToUNWtW1ebN282025z4sQJPf7442revLn2799vpgEAAAAAAOAn6B91r9WrVysqKkqjR4/26J9O582bp2rVqmnGjBkefR3A09gHIdAcPHhQ9957r6Kjoz06Xr9jxw41aNBAAwcOzNRZ7AB3YuIckAV58+ZVeHi4wsPDlT9/flWoUEH9+vXT4sWLFRLy7+Y1bNgwpaammg+F4csvv1TVqlX11VdfmSmPsCxLo0aNUlRUlDZt2mSmAb/BfgiBYteuXbrlllv06quveu37+v3336t69eqaOnWqmQIAAAAAAIAfoH/UPdLS0jRw4EDdcccd2rVrl5n2iMTERHXt2lX33Xef285qB3gb+yAEkjlz5qhatWr65ptvzJRHpKen6+2331atWrW0ZcsWMw14DRPnAA+oV6+emjZtKl344f/rr7+aRXCJjz76SPfdd59HZ61fzc6dO9WoUSMu3YqAw34I/mTjxo1q2LChR88ydzUnTpzQww8/zL/+AAAAAAAAAgj9o847d+6cunbtqrfffjtbzv725ZdfqmnTpkpISDBTgN9iHwR/M3HiRHXq1Clbxut37NihRo0acelWZBsmzgEeEhUVZb/9119/OeTwnwkTJujRRx/NloOxi1JSUtS8eXP9+OOPZgrwa+yH4A82btyoJk2aKC4uzkx51TPPPKM333zTDAMAAAAAAMBP0T+asdTUVHXp0kUzZ840U161bt06NWnSRImJiWYK8Fvsg+Avxo4dq8cffzxbx+uTkpLUrFkzrVmzxkwBHsfEOcBDbDab/XZ2NjK+bMaMGerdu7cZzhanTp1S69attXHjRjMF+C32Q/B1O3fu1F133ZUt/2C6kueff14TJkwwwwAAAAAAAPBD9I9eW3p6unr27Kl58+aZqWyxZcsWtWrVSidOnDBTgF9iHwR/MG3aNPXt29cMZ4uTJ0+qVatW2XJ1IgQ3Js4BHnLpdbhLlSrlkIO0bds29ejRI0s/FG02m4oUKeKwXPoj1FUpKSlq3749B2UIGOyH4MvOnj2r++67L0tnmnN3OyBJffr00S+//GKGAQAAAAAA4GfoH722Dz74QFOnTjXDLnF3/9zatWvVr18/Mwz4JfZB8HVbt25Vz549zbBL3N0OJCcnq3379jp58qSZAjyGiXOAB2zcuFGLFy+WJEVEROiWW24xiwS11NRURUdH69y5c2bKJYULF9bRo0cdlsKFC5vFXLJv3z4NGjTIDAN+h/0QfN1rr72mrVu3mmGXeKIdSE9PV3R0tM6cOWOmAAAAAAAA4CfoH722P//8U4MHDzbDLvNE/9yUKVO0cOFCMwz4FfZB8HXnz59XdHS0zp8/b6Zc4ol2YM+ePXr++efNMOAxTJwD3MSyLMXFxenjjz9W8+bNlZaWJkkaOHCgcubMaRYPau+8847WrVtnhn3GuHHjtHz5cjMM+Dz2Q/AXv/76q958800z7DO2b9+uV155xQwDAAAAAADAh9E/6pyLl2g9ffq0mfIZMTExSk5ONsOAT2MfBH/y9ttv69dffzXDPuP999/XDz/8YIYBj2DinJ+IjY2VzWaTzWbTihUrzPQVXSwfHR1tpuAmTZo0sddzSEiIihUrpkceeUTx8fGSpJ49e7rlHzuBZPv27XrppZfMsM/p2bMnl2yFX2A/BH9z7tw5RUdH2zsNfNWIESO4ZCsAAAAAALBjnMY30T/qurFjx2rVqlVm2KccOHBAAwYMMMOAz2EfBH/0+++/6+WXXzbDPqdnz55cshVekemJcykpKXr33XfVqFEjFStWTHny5FG5cuXUsWNHLVu2zF6uWLFi9sZi9+7dDs8BBJqQkBCVLl1aXbp00ZIlSzR58mSFhGR6MwtIb7zxRpYv0eoN+/bt0yeffGKGAZ/Hfgi+bvbs2Vm+RKs3pKen67XXXjPDAAAAPiE9PV1Lly7VI488otatW+v222/XXXfdpQcffFAzZszQ2bNnzYcAAALMjh079Nxzz6ldu3Zq1KiRmjZtqo4dO+qtt97S0aNHzeJA0KB/9NrOnj2r119/3Qz7pNjYWO3Zs8cMAz6NfRD8wbBhw7J8iVZv2LNnj6ZOnWqGAbfL1F56xowZqlixogYMGKCVK1cqLi5OZ8+e1b59+zRnzhw1bdpUw4YNU2JiouLi4iRJBQoUUPny5c2nAvzawoULdfz4cR0/flwnTpxQamqq/vrrL33++edq1qyZWTzoHT16VF988YUZ9lnjxo2TZVlmGPAp7Ifgb8aNG2eGfNY333yjffv2mWEAAIBsk5SUpNGjR6tKlSpq3ry5Pv74Yy1cuFCrV6/W4sWL9dlnn6lr164qXbq0hgwZov3795tPAQDwY6mpqfYxmCpVqmjkyJGaP3++Vq5cqWXLlmnOnDkaPHiwSpUqpYceekg//fQT/ZsIePSPumbu3Ln2sVtfZ1mWJk6caIYBn8I+CP7myJEjmj17thn2WYzXwxtcnjg3fPhwde3a1X560fDwcLVq1Uq9evVS+/btVbBgQUnSCy+8oI8++sj+uKioKNlsNvt9IBDkzZtX4eHhCg8PV1hYGN/xDHz88cd+cba5i7Zt26aVK1eaYcCnsB+CP9m0aZN+/PFHM+yz6JwDAAC+ZMOGDapataqefvpp7dy500w7OHr0qIYPH66bbrrJrzrEAQBXl5SUpGbNml121Z8rOXfunKZNm6YGDRqof//+SktLM4sAAYP+Udf4059aJWny5Mk6c+aMGQZ8Bvsg+JvJkyf7xdnmLtqyZYtfjSvBP7k0cW727NkaMmSIJClHjhwaOnSoDh8+rG+++UaTJk3S3LlztW/fPrVu3VqS9OKLL9ofW6tWLfttAMEnLS1NEyZMMMM+z98OIgHAl40fP94M+byPPvqIS50BAIBs98MPP+iOO+7Q4cOHzdQ1nT17Vp07d/bL43EAwH+OHj2qhg0b6ocffjBTGXrvvfd0//33M3kOgDZv3qzVq1ebYZ+WkJCgWbNmmWEAQCYwXg9cmdMT53bu3KkePXpIF67NPX36dL388ssKCwtzKBcREaHPPvtMkZGRDmeWioqKcigHILj88ssvfnm5uy+//JJ/MwGAG6Snp2vmzJlm2OfFx8fr+++/N8MAAABes23bNrVr104nT540U06xLEt9+vTR/PnzzRQAwA+cOnVK9957r7Zt22amnDZ79mw99dRTXOYKCHL+2DcnSZ999pkZAgBkwpo1a/T333+bYZ83Z84cTnAAj3J64tzgwYN14sQJSdKAAQPUuXNns4hd/vz51alTJ4cYZ5wDgtu6devMkF84f/68Nm/ebIYBAC7avXu3kpOTzbBfWL9+vRkCAADwmujo6Cz/jkpPT9fDDz+s48ePmykAgI978803tXbtWjPssrFjx2rJkiVmGEAQ8ddxmvXr1zPxFwDcwF/bgXPnzmnr1q1mGHAbpybObdiwQV9++aUkKTIyUkOHDjWLXKZ69er227ly5VLVqlUd8vHx8Zo1a5YGDRqkO++8UxEREbLZbFz3GwhQv/76qxnyG/783gHAV/jzvtSf3zsAAPBv69atc1vH9rFjxzRjxgwzDADwYefOndOkSZPMcKZxmSsgeFmW5bd9XEePHtU///xjhgEALvLXdkB+/t7h+5yaOHfpdY579uyp8PBwh/yV5MmTx367evXqypkzp0N+2rRp6ty5s0aMGKHly5fr2LFjDnlc3enTp3XixIkMF8CX+HNj5s/vHQB8hT/vS/35vQMAAP/m7gkO48aN42wdAOBH5s2bp8OHD5vhTPvqq6/0119/mWFkAuM08Df79+9XYmKiGfYb9M8BQNb5877Un987fJ/NyqC3zLIslSpVSgcPHpQk/fbbb4qKijKLXWbUqFF65plnpAuT7SZPnuyQHzNmjEaOHKlbbrlFderUkc1m05AhQ6QLr+kJ6enpSkhIMMNZkpKSokqVKtnvJyUlqWDBgg5l3CE2NlY9evQww07p3r27YmNjzXCWJScnq1ChQvb7u3btUkREhEMZd/JWXWfk0nWxfPlyNW7c2CySrby9Xpxx6tQplS9fXunp6WbKzmazqXDhwmb4mgoXLqwdO3Y4xCpXruzSdp6QkJDhPqd69epatmyZGQ44vrKNIWO+vh9CxnxxX+1p9913n1atWmWGHbjaFrijHZCTbcHWrVtVtGhRMxz04uPjLzuz9LZt21SkSBGHGAAgMNEOeFZiYqKioqJ05swZM5UlCxYsUP369c0wAMAHtWvXTj/99JMZzpL+/fvbx2IChbf6NRmn8V5dZ8TX+0e9vV6c8fXXX6tnz55m2IGrfXNyU/+cM31zAwYM0ODBg81wwPGVbQzX5uv7IDjHF/fVnnTixAlVqFDhmvtbX24HatasqSVLlpjhoBfofXNmu5iQkKDrrrvOoYw7ZDhx7vfff7dfdjUiIkKJiYkKCcn4RHX9+vXT+++/L0l6//331bdvX4d8WlqaQkND7fdXrFihJk2aSB6cOHf06FGPD3h66geMPxyQeZun6trfZfd6yawiRYro6NGjZtjjIiMjFR8fb4bBNgZ4lL/uqz2NtgAAAAAAAGSVp/o1Gae5nKfq2t9l93rJLPrmfA/bGOA5/rqv9iTaAfi6Xbt2qWLFimY4yzKcAbd//3777fLlyzs1aU6Sw7+gatWq5ZCT5DBpDq5Zvny5LMvKcAEAAAAAAAAAAIB7MU4DAAAABIYMZ8EdOnTIftvZU97t3LlTGzZskC6czrFmzZpmEQAAAAAAAAAAAAAAAAAAskWGE+fOnz9vv33q1CmH3NWMHDnS/k+aihUrKjw83CwCAAAAAAAAAAAAAAAAAEC2sFkZnCt61qxZ6ty5sySpYMGCio+Pv+ZlVlevXq077rjDPnGuc+fOmjlzplnsMitWrFCTJk0kyWOnr05PT1dCQoIZzpKUlBRVqlTJft9T15qPjY1Vjx49pAunAG/cuLFZ5DI2m02S1L17d8XGxprpLDOv+71r1y5FREQ4lHEnb9W1v/P2enFGQkKCqlSpYoYd2Gw2FS5c2AxfU+HChbVjxw6HWOXKlV3azhMSEjLc59xwww365ZdfzHDAYRsDvMcX99We1qJFC23cuNEMO3C1LXBHOyAn24Kff/5Z5cuXN8NBLz4+XlWrVnWIbdu2TUWKFHGIAQACE+2AZ23bts2p/h9Xvffee7r//vvNMADAB9WsWdPhqkDu0K5dO3344Ydm2K95q1+TcRrv1bW/8/Z6ccbnn3+ufv36mWEHrvbNyU39c870zcXExOj11183wwGHbQzwHl/cV3tSXFycqlevboYd+HI7UKFCBa1Zs8YMB71A75sz28WEhASnr5Tqigwnzu3evVsVK1a0358zZ446dOjgUOainTt3qmHDhjp69Kg9Nnz4cA0ePNih3JV4Y+KcJ5g7VE/9gPGHAzJPffaLvP16/soX68myLBUvXlxxcXFmKkuKFCnisL+RpMjISMXHxzvEsqpNmzaaP3++GQ44vvjdAQJVMG5v0dHR+uSTT8xwlnirHcibN6+OHTumHDlymKmgd/ToURUtWtQhFhcXp8jISIcYACAw0Q54Xt26dbVu3ToznGn58+fXwYMHuToEAPiJl156Sa+99poZzpLFixerefPmZtiveaufhXEa77+ev/LFelq3bp3q1q1rhrPMW/1zH374oR599FEzHHB88bsDBKpg294sy1JkZKRLE9qc4a12oH379po7d64ZDnqB3jfnre00w0u1VqhQQVFRUfb7ffr0uexsIWlpaZo+fbrq16+vhIQEh0HFWrVqOZQFEHxsNptuvvlmM+w3/Pm9A4Cv8Od9aVRUFJPmAABAtujdu7cZypLu3bszaQ4A/EhMTMw1rwDkqkqVKqlp06ZmGEAQ+N///ufX/Vv+3LcIAL6A8Xrg6jKcOCfJ4dS3hw8fVp06ddS0aVPFxMSoY8eOKlu2rLp166akpCSNGjXK4YxxTJwDIEl16tQxQ36DhhgAso52AAAAwHVdunRx+GdtVj3xxBNmCADgw0qVKqU2bdqY4Ux74oknFBLi1LAQgACTJ08e/e9//zPDfiFXrlwZXl4QAJAxxmmAK3PqCKl169YaPny4/X5aWpqWLVumSZMmac6cOTpw4IAiIyP1xRdfqEGDBkpLS5MklShR4rLTAgIITv7cmPnzewcAX1GzZk2/7Zz354NJAADg3/LmzauXX37ZDGfKQw89pKpVq5phAICPe/HFF5U3b14z7LKKFSuqZ8+eZhhAEPHXsY4aNWooV65cZhgA4CJ/bQfk5+8dvs/p0cvBgwdr9erV6tixo4oXL66cOXOqRIkSuv322zV69Gjt2LFDnTp1criMK2ebA3BRw4YNlTt3bjPs86pXr67ixYubYQCAi/Lly6cGDRqYYZ9ns9nUpEkTMwwAAOA1Tz75pPr27WuGXdKoUSNNmjTJDAMA/ECtWrX0+eefZ+nPaEWKFNG3336riIgIMwUgiDRr1swM+QV/fd8A4Gtuv/125cyZ0wz7vJo1ayoyMtIMA27j0pFWgwYNNGvWLB06dEjnzp3TwYMHtXLlSj311FO67rrrJEmbNm2yl2finPtER0fLsixZlqXGjRub6Su6WD42NtZMAV5XuHBhde7c2Qz7PC5jAwDu44/71HvuuUdlypQxwwAAAF5js9k0ZswYPfPMM2bKKS1bttTXX3/tl39mAwD8q02bNpo9e7by5MljpjJUtmxZ/fDDD6pYsaKZgosYp4G/a9++vd9dKcxmsykmJsYMAwAyITIyUp06dTLDPs8fx5bgX1yaOOcMzjgH4Gp69+5thnxaeHi4unXrZoYBAJnUoUMHv+uc87e2CwAABKaQkBCNHDlSsbGxqly5spm+omLFiumVV17RggULFB4ebqYBAH6mffv2WrlypZo3b26mrih37tx6+OGHtWbNGi7VDUCSlCtXLj366KNm2Ke1atVK5cqVM8MAgEzytzGP/Pnzq2vXrmYYcCu3TpyzLEubN2+234+KinLIXyo9PV3x8fH2JSUlxZ67NJ6UlOTwOAD+q169en41ofahhx5SgQIFzDAAIJNy586tXr16mWGfVb58ebVo0cIMAwAAZJvu3btr27ZtWrZsmTp27KjQ0FCziG677TbNnDlTf/31l1566SXlyJHDLAIA8FO33HKLFi9erJ07d2rAgAFXvPRq2bJl9fbbb+vAgQP65JNPVKJECbMIgCAWExOTpUs/e5u/TfAAAF932223qUaNGmbYZ3Xv3p0/A8Lj3PrLaO/evTp27JgkqUCBAipfvrxZxO6vv/5SZGSkfWnXrp09d2ncnybZAM6w2Wz2ZeTIkWbaKe3atbM/R/Xq1c20z7LZbOrfv78Z9kmhoaHq27evGYaPGjFihCpXrqz09HQz5Teio6OzvF2PHj3aYR8THx9vz02YMEFlypTR2bNnHR7jLOr4X56s42Dx2GOPZerSMtnhqaee8quORAAAEBxsNpuaNGmiWbNmaffu3WZa8+bNU+fOnZUrVy4zBQAIEJUqVdI777yjbdu2mSmtXbtWzz77rAoXLmymAFxwaf9esI3TlClTRvfdd58Z9kk33XST7rrrLjMMH8UYwr88OYZAHf/Lk3UcDGx+Nl7fp08fMwy4nVtHAjdt2mS/HRUVJZvN5pAHPGHdunXq27evqlWrprCwMJUpU0adO3fWzp07zaJXlJycrJiYGEVGRiosLExNmjTRhg0bzGJ2N9xwgxlyWfv27TV16lS1bt3aIT5s2DC1adNGxYoVk81m08svv+yQv+jpp5/W1KlTnb48iy956KGH1LRpUzPscwYNGsQlDK4hq9vd2bNnNWjQIJUsWVJ58+ZVvXr1tGTJErOY3YoVKxQdHW2GJUnHjh3TW2+9pUGDBvn9BJciRYpo6tSpevPNN82UU3V29913a+rUqWrfvr1DXBcORs6dO6eJEyeaKYk61okTJzR06FDdfffduu6662Sz2RQbG+tQRlmsY/yrTJkyeu2118ywz6lbty7/aAUAAD4vX758ZggAEERy5sxphvy+7wb+Kav9xYzTeNfo0aNVsGBBM+xTbDabJk+efMUzLONfWd3unBlzuFSwjyHIyTrLyhhCsNcx4zTe0717dzVu3NgM+5whQ4b4ZTsL/+PWverGjRvttzM6U9wNN9wgy7IyXPbt22c+FHDw1ltvac6cOWratKnGjBmjmJgYrVy5UrVr19bWrVvN4g7S09PVunVrzZgxQ3379tWIESMUFxenxo0ba9euXfZyS5cuVVpamsNjJWnRokVmyCk1atRQt27dVKVKFYf4Cy+8oHXr1mW4/TRq1EjdunVTsWLFzJTPu3iw48unVK1evbpeeuklM4xLZGW704UfrqNGjVLXrl01ZswYhYaGqlWrVlq9erW9TEpKin7++WeHx+lCJ8ratWvt9z/++GOlpqbqgQcecCjnj8LCwtStWzfdc889ZsqpOqtcubK6det2xVMs58mTR927d9eoUaNkWZZEHTvE4+Pj9eqrr2r79u2qWbOmQ+5SrtYxruzpp5/WrbfeaoZ9Rq5cuTRlyhQuawYAAAAAAOCErPQXM07jfSVLltSYMWPMsE/p37+/GjRoYIZxiaxsd3JyzIExBEfO1JmrYwjU8X8Yp/GekJAQffzxxwoLCzNTPqNGjRp64YUXzDDgEW6dOGeecQ7whgEDBmj//v1677331KtXL73wwgtatWqVUlNTL5upbpo9e7Z++uknxcbGaujQoerTp49WrFih0NBQDR06VJJkWZYmTZqk+vXr27/je/fu1V133aV33nlHJ06cMJ418/bu3atDhw5p2rRpZiqglC1bNtOnP/e00NBQTZkyRblz5zZTuERWtrtffvlFn3/+uYYPH663335bMTExWrZsmcqWLauBAwfay+3fv1/du3fXU089Zd/O5syZo9q1a2vNmjX2clOmTFGbNm385tKPmeFsnWWkc+fO2r9/v5YvXy5Rxw5KlCihQ4cOaf/+/Xr77bfNtNPMOsaV+fq+9tVXX+WsowAAAAAAAE7KSn8x4zTZ46GHHrps0oqvqFSpkl5//XUzDENWtjtnxxwYQ/iPs3WWEXMMgTr+D+M03lWuXDmNGDHCDPuE0NBQxcbGKleuXGYK8Ai3TpybN2+e/UxxVzuNKOBut91222U7zUqVKqlatWravn27Q9w0e/ZsFStWTB06dLDHIiMj1blzZ82fP19nz56VzWbTzJkzNWrUKD3++OM6dOiQOnTooD59+mjx4sUKDw/X9u3blTdvXj388MMOz7969WqFhoZq0KBBDvGrccfpxf1FTEyM2rRpY4ZdkpCQoMjISIclISHBLOaSV155RXXq1DHDMGR1uwsNDVVMTIw9lidPHj3yyCNas2aN/v77b+nCPwm2bNmi0qVL67HHHtPs2bP1xRdfaPny5erfv790oRNj8+bNatasmf25Lurdu7dsNts1F0+f1fT06dOqXLmyKleurNOnT9vjiYmJKlGihG677bYr/kvS5GydZeTmm2/Wddddp/nz50vUsYPcuXOrePHiZthlZh3j6m666Sa9++67ZtglnmgHGjdurGeeecYMAwAAAAAA4Cqy2l/MOI332Ww2TZw4USVLljRTLnF3/1yePHn06aefKl++fGYKhqxud86MOTCG8B9n6ywj5hgCdfwfxmm87/HHH7/skuWucnc7IEmvv/56hmd+BdzJrRPnAF9hWZaOHDmiIkWKmCkHv/32m2rXrn3ZteDr1q2rU6dOaefOnfZYSEiIbDab/f6lt6tUqaLXXntNU6dO1YIFCyRJJ0+eVHR0tCpXrqxXX33VXhb/stls+vzzz3XHHXeYKadZlqX4+HiHJSun3e3Xr5+GDBlihuEkV7a7G2+8UQUKFHCI161bVzIu+22z2Ry2vYs/8i/66aefJEm1a9e2xy667777VLduXRUvXlxTp061L+XLl1fVqlU1Y8YMj3eC5M2bV5988on+/PNP/d///Z893qdPH6WkpCg2NlahoaEOj7kSV+osI7Vr19aPP/5ov08du59Zx7i6J554wv7P4cxwdztw8803a/78+VyiFQAAAAAAIItc6S9mnCZ7lCxZUkuWLFHhwoXNlNPc2T+XI0cOzZ49W/Xr1zdTcJIr252zYw6MIfzLlTrLiDmGQB27n1nHuLKQkBB98cUXatiwoZlymjvbAUl6+umnnZ7sDrgLE+cQkKZPn64DBw6oS5cuZsrBoUOHVKJECTNsjx08eFCWZalr167q37+/xo8frxIlSmju3Ll6//331aJFC/tpcwcMGKCGDRsqJiZGCQkJGjRokPbv369PPvnEZy9Fl93y5s2rr776SrfffruZ8ronnnhC7777rsMPUbjGndudJG3ZskU1atTQvn37NGHCBHXs2FEdO3ZU48aNNWbMGEnSjh07pAunEzY1bdpU586dU61atdStWzf7kpiYqIYNG+qBBx4wH+IR9erV08CBAzVmzBitWrVKs2fPtp/O+8YbbzSLX5GzdeaM8uXLa9u2bRJ17DGX1jEyNnToUD3//PNm2Otuvvlmfffdd5d1fAAAAAAAAMB17uwvZpzGc6pWraolS5ZkONHK03LmzKmZM2dm+cxHwc6d250YQ3DgbJ05g3Eaz2Ocxnn58uXT119/rQYNGpgpr+vbt6/eeecdxuvhdUycQ8DZsWOH+vTpo1tvvVXdu3c30w5Onz59xYOli9eHP336tGw2m6Kjo/Xzzz+rZs2a0oUfJosXL9aAAQMUHh4uXZiRHRsbqxMnTqhly5YaN26cnn/+eS77mYECBQrou+++y9aDoeeff15jx4697B9tcJ67tztJKlOmjKZMmaL33nvPvp117NhRGzZssP/jLCEhQTly5LDnL5WWlqYdO3aoevXq9tjff/+t5ORkh9iVpKen68yZM04tzvxr4uWXX1a1atXUvXt39e7dW40aNVK/fv3MYlflbJ05o1ChQjp9+rROnTpFHXvIpXWMjNlsNr3xxht66623zJTXNGrUSMuWLcv2DkIAAAAAAIBA4O7+YsZpPKtWrVpatWqVSpcubaa8IiwsTF9//bXD5XrhOndvd2KcxoGzdeYMxmk8j3Ea10RERGjx4sW6++67zZTXvPDCC3rvvfeYNIdswSwRBJTDhw+rdevWioiIsF9r/lry5s2rs2fPmmGdOXPGnpek5s2bX/G5zMajQoUKevnll7Vu3TpVq1ZNL774okMeV5YvXz4tWLBAo0ePtte5N5QsWVJff/213njjDRrhLPDUdhcREXHFU7IXLFhQ9erVM8OX+fPPP3XmzBlVq1bNHtuyZYskZXiwsHLlSuXNm9ep5Y8//jAffplcuXLp448/1t69e3X8+HFNmTLFpe+cs3XmjIsHNzabjTr2kEvrGM4bOHCgli1bdsV/zXlKzpw5NWzYMC1dupQzzQEAAAAAALiBp/qLGafxrMqVK2vTpk16+OGHzZRH3XHHHdq0aZNatGhhpuACT213jCH8x9k6cwbjNJ7HOI3rLp55btSoUfYJod5QqlQpffvtt3rttddYX8g2TJxDwEhJSVHLli2VnJys7777TiVLljSLXKZEiRI6dOiQGbbHrvQc+/btM0MOFi9eLF04JW9CQoKZxlWEhIToqaee0qZNm7J0HXVnRUdH6/fff8/WM90FAm9td40bN1ZsbKwZVuHChZWamqrjx4+bKW3dulUyDgw2b958WexKKleurClTpji1XOnU3FeyaNEi6cJB1K5du8z0NWWmzq4mKSlJ+fLlu+wgLtjr2J2uVsfIWJMmTbR582b16dPHTLndzTffrA0bNmjIkCHKkSOHmQYAAAAAAICLvNVfzDiNZxQqVEiffPKJFixY4HSfbGbly5dP7733npYvX64KFSqYabjAW9tdsI8hZKbOruZqYwjBXsfudLU6xrWFhobq6aef1qZNm3TbbbeZabfr2bOntm7detkkeMDbmDiHgHDmzBnde++92rlzp77++mtVrVrVLHJFUVFR2rBhg9LT0x3ia9euVb58+Vy+5vqECRO0ZMkSDRs2TOfOndNjjz1mFkEGKlWqpB9++EHjx49XpUqVzHSWNWjQQN9++62mTJmiggULmmm4ICvb3c6dO3Xs2DGH+Nq1a+15Z1WuXFmStHfvXjOlrVu3KiQkRFWqVLHHtmzZoqJFiyoyMtKhrKl48eKKjo52aomIiDAffpnNmzfr1VdfVY8ePVSrVi316tVLKSkpZrGrcmed7d2716FOMhIsdexOrtYxHIWHh+uDDz7QihUrdOedd5rpLCtbtqxGjRqln3/+OcOOAwAAAAAAADgnK/3FjNP4lnvvvVe///67+vfv71TfrCty5cqlBx98UJs3b9aTTz6pkBCGqrMiK9udu8YcgmUMwZ115uoYQrDUsTu5WsdwdOONN2rlypUaO3asKlasaKazrGHDhvruu+80efJkp75bgKfxawR+Ly0tTV26dNGaNWs0a9Ys3XrrrWYR6cKM/x07duj8+fP2WMeOHXXkyBHNnTvXHouPj9esWbN07733XvFa9Vezd+9ePffcc7rvvvs0ZMgQjRw5UgsWLNCnn35qFkUGQkJC9Pjjj2vHjh1avHix2rVrl6WDp7CwMD322GPauHGjVq9ezax1N3B2uzt16pR27Nih+Ph4e6xjx45KS0vThx9+aI+dPXtWU6ZMUb169VS6dGl7PCMXX3f9+vVmSlu3blW5cuWUL18+e2zHjh0Op6v2hvPnzys6OlolS5bUmDFjFBsbqyNHjujpp582i16VO+tsw4YNLv1LJFjq2J1crWNcWaNGjfT9999r27Zt6tevX5YupWqz2dSyZUt99dVX2r17t55++mnOMgcAAAAAAOAmzvYXM07jPwoVKqR3331XBw4c0KRJk1yaFHQlZcuW1fDhw/X3339r+vTpnGXODZzd7hincc8YgjvrzNUxhGCpY3dytY5xudDQUPXu3Vt//PGHFi1apLZt22Z5vP7xxx/Xpk2btGrVKt11111mESDbZP6bDfiIZ555RgsWLFDLli2VmJioadOmOSwXPf/886pSpYoOHDhgj3Xs2FH169dXjx499Oqrr2rcuHFq3Lix0tLS9Morr9jLZcSyLPXs2VN58+bV+PHjJUmPPfaYmjdvrqeeekoHDx40H3JFU6dO1euvv65Ro0ZJF64t//rrr+v111/X/v37zeIBLyQkRM2bN9eXX36pffv2afLkyerdu7fq1at3zWurFyxYUHfeeaeee+45ff755zpw4IAmTJigmjVrmkWRSc5ud7/88ouqVKmiDz74wB6rV6+eOnXqpOeff14DBw7Uhx9+qDvvvFP79u3TiBEj7OWcUb58eVWvXl1Lly41U9q6detlBwaHDx/W+fPnlZyc7BD3pNdff10bN27Uxx9/rPz586tGjRp66aWXNGXKFC1cuNAsfkXuqrNff/1ViYmJatu2rZm6qmCpY0n64IMP9Prrr+vjjz+WJH311Vf2fbCz/4rKTB3j2qpUqaIxY8bo4MGDmjNnjp5//nm1aNFC1113nVnULleuXKpTp44ee+wxffjhh/rzzz+1cOFC3XPPPQoNDTWLAwAAAAAAIAuc7S9mnMb/hIWFqVevXtqwYYN++eUXjRo1Sl27dlXlypVls9nM4nZlypRR+/bt9frrr2vJkiXavXu3Bg8erKJFi5pFkUnObneM07hnDMFddZaZMYRgqWMxTuOTQkJC1KJFC82bN0979+61j9fXrVv3mpPbCxYsqKZNm2rgwIGaOXOmDh48qPHjx6tGjRpmUSD7WciSpKQkS5J9SUpKMosELG9/9qu9XqNGjRzi5nJR9+7dLUnW3r17L3lWy0pMTLQeeeQRq3Dhwla+fPmsRo0aWevWrXMok5ExY8ZYkqw5c+Y4xP/66y+rQIECVqtWrewxSdbQoUMdyl10rc+yfPlys7jVqFEjq1q1ag6xq9VToDl37py1bds2a+3atdaKFSuslStXWuvWrbP27Nljpaenm8XhBFe+O9f6ruqS7W758uWWrvCdP336tPXss89axYsXt3Lnzm3dcsst1nfffedQxlmjRo2ywsPDrVOnTtljZ8+etXLkyGENGTLEoewjjzxi5c6d2+rQoYND3FN+/fVXK0eOHNaTTz7pEE9NTbVuueUWq2TJkvZ67t69u1W2bFmHcpdypc6GDh1qSbKOHj3qEB80aJBVpkwZl7eRYKnjsmXLXvZdvriYbUdW69iV7Q1Xlp6ebu3bt89av369tWrVKmvFihXW2rVrra1bt1pnz541i8ND4uLiLtte4uLizGIAgABFO5D9WAcAENxoB/4VzP0s3v7sV3s9Z/uLGacJLMeOHbM2btxorVmzxlq+fLn1448/Whs2bAjK/ZC7uPLdudZ3VYzT2LlzDMGVOsvqGIIpWOqYcRr/Yo7Xr1q1ivF6Lwv04wFvbac2698fiMik5ORkFSpUyH4/KSlJBQsWdCgTqLz92b39ep5is9n03HPPaeDAgQoLC1PevHnNIhk6fvy4zp49q7Zt2yolJUVbt2615wKlnuB9/vrdSUlJUfny5TVixAg98sgjZtpvREdHa9myZdqwYYNy5MiRqbo/c+aMTpw4oREjRujtt9/W0aNHVaRIEenCKcNvuOEGDR48WE899ZT50Guijv/jrjr21+0NMB09evSyfwrHxcUpMjLSIQYACEy0A9mPdQAAwY124F/B3M/i7c/u7dfzFMZp4Kv89bvDGMJ/3DWGYKKO/+OuOvbX7Q24VKAfD3hrO+VSrUA2ePvttxUZGamxY8eaKac89NBDioyM1E8//WSmgKATERGhgQMH6u2331Z6erqZ9it///23IiMj1bBhQzPllAkTJigyMlJvv/22mdKUKVOUM2dOPf7442YqQ9TxfzxVxwAAAAAAAAC8h3EawH0YQ/iPp8YQqOP/eKqOAQQvzjiXRd6a4eiLvP3Zvf16nnLp9edvvPFGlSlTxiHvjM2bNysuLk6SFB4ervr169tzgVJP8D6+O9lr27ZtOnjwoHSF7dpZf//9t/744w/7/UaNGilnzpwOZYKZL9Ux2xsCRaD/mwkAcG20A9mPdQAAwY124F/B3M/i7c/u7dfzFMZp4Kv47mQvXxpDCFS+VMdsbwgEgX484K3tlIlzWeStFeWLvP3Zvf16/op6Qmbx3QG8h+0NgSLQD8oAANdGO5D9WAcAENxoB/4VzP0s3v7s3n49f0U9IbP47gDew/aGQBDoxwPe2k65VCsAAAAAAAAAAAAAAAAAIKhwxrksMmc47tu3TxEREQ5lAlVKSopuuOEG+31Pze68KJjr2hXeXi8IHGxjgPewr0agCPR/MwEAro12IPuxDgAguNEO/CuY+zW93ccUzHXtCm+vFwQOtjHAe9hXIxAE+vGA2S56ajtl4lwWmSsqmHnqS3oRdZ05nl4vCBxsY0D2YV8NfxXoB2UAgGujHch+rAMACG60A/+iX/M/nu5joq4zx9PrBYGDbQzIPuyr4Y8C/XjAbBc9tZ1yqVYAAAAAAAAAAAAAAAAAQFBh4hwAAAAAAAAAAAAAAAAAIKhwqdYssixLKSkpZjgoRUREyGazmWG3oa4zx9PrBYGDbQzIPuyr4a8C/TTgAIBrox3IfqwDAAhutAP/ol/zP57uY6KuM8fT6wWBg20MyD7sq+GPAv14wFuXamXiHAAAAIBMCfSDMgDAtdEOZD/WAQAEN9oBAAAAIHgF+vGAtybOcalWAAAAAAAAAAAAAAAAAEBQYeIcAAAAAAAAAAAAAAAAACCoMHEOAAAAAAAAAAAAAAAAABBUmDgHAAAAAAAAAAAAAAAAAAgqTJwDAAAAAAAAAAAAAAAAAAQVJs4BAAAAAAAAAAAAAAAAAIIKE+cAAAAAAAAAAAAAAAAAAEGFiXMAAAAAAAAAAAAAAAAAgKDCxDkAAAAAAAAAAAAAAAAAQFBh4hwAAAAAAAAAAAAAAAAAIKgwcQ4AAAAAAAAAAAAAAAAAEFSYOAcAAAAAAAAAAAAAAAAACCpMnAMAAAAAAAAAAAAAAAAABBUmzgEAAAAAAAAAAAAAAAAAggoT5wAAAAAAAAAAAAAAAAAAQYWJcwAAAAAAAAAAAAAAAACAoMLEOQAAAAAAAAAAAAAAAABAUGHiHAAAAAAAAAAAAAAAAAAgqDBxDgAAAAAAAAAAAAAAAAAQVJg4BwAAAAAAAAAAAAAAAAAIKkycAwAAAAAAAAAAAAAAAAAEFSbOAQAAAAAAAAAAAAAAAACCChPnAAAAAAAAAAAAAAAAAABBhYlzAAAAAAAAAAAAAAAAAICgwsQ5AAAAAAAAAAAAAAAAAEBQYeIcAAAAAAAAAAAAAAAAACCoMHEOAAAAAAAAAAAAAAAAABBUbJZlWWYQzrMsSykpKWY4KEVERMhms5lht6GuM8fT6wUAAASvo0ePqmjRog6xuLg4RUZGOsTgHH7vAtmH46bMoR3IfqwD96ItBrIPbXHm0A78i/33fzy9LVHXmePp9QIAAIJToB8PJCcnq1ChQvb7SUlJKliwoEMZd2DiXBaZKyqYeepLehF1nTmeXi8AACB4BfpBmbfxexfIPhw3ZQ7tQPZjHbgXbTGQfWiLM4d24F/sv//j6W2Jus4cT68XAAAQnAL9eMD87emp31RcqhUAAAAAAAAAAAAAAAAAEFSYOAcAAAAAAAAAAAAAAAAACCpcqjWLzFMD7tu3TxEREQ5lAlVKSopuuOEG+31PnRbxomCua1d4e70AAIDgFeinAfc2fu8C3sNxk3vQDmQ/1oF70RYD3kNb7B60A/8K5v23t7elYK5rV3h7vQAAgOAU6McD5m9PT/2mYuJcFnlrRfkib392b7+ev6KeAACAtwT6QZm38TsO8B62N/egHch+rAP3Yt8AeA/bm3vQDvwrmL9P3v7s3n49f0U9AQAAbwj04wFv/abiUq0AAAAAAAAAAAAAAAAAgKDCxDkAAAAAAAAAAAAAAAAAQFBh4hwAAAAAAAAAAAAAAAAAIKgwcQ4AAACAy06cOKFNmzaZYe3bt0+WZZlhAECASU1N1Y4dO8ywtm3bpnPnzplheEBiYqI2bNhghnXo0CHaYgAIAmfOnNHWrVvNsHbt2qW0tDQzDAAAACDAHDlyxAzp119/VXx8vBnGNdgsetKyJDk5WYUKFbLfT0pKUsGCBR3KBCpvf3Zvv56/op4AAIAnbN68WcuWLdOvv/6qX3/9VTt27LjqoHyhQoVUu3Zt3XzzzbrlllvUqlUr5cuXzywGA7/jAO9he3Pd4cOH9e2332r9+vX69ddftWnTJp05c8YsJknKlSuXatSooZtvvll16tTR3XffrVKlSpnF4ALLsvTTTz9p9erV9nWwd+9es5hdsWLFdPPNN+vmm29W/fr11bx5c+XMmdMsBgP7BsB72N5ct2fPHi1atMh+TLZ161alpqaaxSRJYWFhqlWrlr0tbtWqla677jqzWMAI5u+Ttz+7t1/PX1FPAADA3VJTU7Vs2TKtWbPGfkxw8OBBs5hd2bJl7X1DDRo00O23366QEP86t5q3flMxcS6LvLWifJG3P7u3X89fUU8AAMBdzpw5o9mzZ2v8+PH66aefzLTTChYsqOjoaD3++OO66aabzDQu4Hcc4D1sb86xLEurV6/WuHHjNGfOHJ0/f94s4pTQ0FC1bdtWvXv31p133imbzWYWwVUcO3ZMU6dO1bhx47Rt2zYz7bQSJUooJiZGjz76qK6//nozjQvYNwDew/bmnLS0NC1cuFDjxo3Td999Z6adlidPHj3wwAPq3bu36tSpY6b9XjB/n7z92b39ev6KegIAAO5y5MgRffTRR5o4caL+/vtvM+20G2+8UU888YS6d+/u8DvFl3nrN5V/TScEfEBsbKxsNttlS0hIiAoUKKCqVauqV69eWrt2rflQAAAAv3Dq1Cm99NJLKl26tB566KEsTZrThYOb0aNHq3LlymrevLnWrFljFgH8BscDCAaWZWnGjBmqUaOG7rjjDn3++eeZnjSnC4P+c+fOVbNmzVSlShVNnjz5qmctxb/i4+PVp08flSxZUn379s3SpDlduHzrK6+8orJly6pjx476448/zCKA36AtRjBITU3V6NGjVb58ebVp0yZLk+Z04U9RU6ZM0S233KK6devqq6++MosAfoW2AAAABLo9e/bogQceUOnSpfXCCy9kadKcJO3cuVNPP/20rr/+ej366KM6fPiwWSRoMXEOcBPLsnT8+HFt375dkydPVv369dW/f3+zGAAAgE/78ccfFRUVpddee03x8fFmOsuWLl2qBg0a6Nlnn9Xp06fNNOC3OB5AoDh48KDatGmjrl27auvWrWY6y/744w/16tVLzZs31/79+800JH355ZeqVq2axo0bp5MnT5rpLElLS9OcOXMUFRWld955R2lpaWYRwG/RFiNQbN++XQ0aNNDTTz+tv/76y0xn2bp169SmTRs99NBDSkxMNNOAX6MtAAAA/i49PV1jx45VjRo1svxn1is5ffq0PvroI1WrVk2fffYZf25l4hyQNQsXLtTx48d1/PhxHTt2TH/++afGjBmjAgUKSJLGjBmjUaNGmQ8DAADwOadOndKAAQN0++23a9euXWbarSzL0jvvvKOoqKgsn80OyE4cDyCQWJalqVOnqlq1avr666/NtNt9//33ql69uiZOnEgH3QXx8fF64IEH1KFDB8XFxZlptzpz5oyeffZZ3X777Zx9Dn6NthiBJDU1VW+99ZZq1aqlX375xUy73bRp01StWjUtWLDATAF+hbYAAAAEij179qhp06bq27ev2/9MaUpMTNSDDz6oDh06BP3Z55g4B2RB3rx5FR4ervDwcOXPn18VKlRQv379tHjxYoWE/Lt5DRs2TKmpqeZDAQAAfMbhw4d166236t133/Xq5IWdO3eqYcOGGjdunJkC/ALHAwgUqamp6tWrlx5++GElJyebaY85ceKEHn/8cXXp0kXnzp0z00Hl999/V1RUlD7//HMz5VFr1qxRVFSUvvnmGzMF+AXaYgSKEydOqFWrVho8eLDOnj1rpj3m8OHDatu2rQYNGuTVY0HAnWgLAABAIPj+++9Vs2ZNrVixwkx51Lx581SjRg1t2LDBTAUNJs4BHlCvXj01bdpUujBT99dffzWLAAAA+IT9+/erYcOG2rx5s5nyCsuy1KdPHw0fPtxMAX6L4wH4k3PnzqlLly76+OOPzZTXzJo1S23atNGpU6fMVFBYv3697rjjDh04cMBMecWZM2fUrl07r0/aAzyJthj+JCkpSc2bN9eSJUvMlNeMGDFCjz32mNLT080U4LdoCwAAgL9YsGCBWrVqpRMnTpgprzh69KiaNGmi1atXm6mgwMQ5wEOioqLst//66y+HHAAAgC84dOiQmjZtqt27d5sprxsyZAiXTkFA4XgA/iAtLU3dunXT3LlzzZTXLVq0SJ06dQq6M89t2bJFLVq0UGJiopnyqtTUVHXr1k3z5s0zU4Dfoi2GPzh58qRat26tn3/+2Ux53aRJk/Tkk09y5jkEFNoCAADg6xYtWqSOHTtme5/YsWPH1LJlS61fv95MBTwmzgEeYrPZ7LfpbAAAAL7m5MmTuuuuu7I0ac5ms6lIkSIOy6W/gVz1zDPPaPr06WYY8EscD8AfPPXUU5o1a5YZdpq724GFCxeqV69eQbPN/PPPP2rRooWSkpLMlNPcuQ7S0tLUpUuXoP13MQIPbTF8XXp6ujp27Kg1a9aYKae5sx2QpHHjxun11183w4Dfoi0AAAC+7Ndff1WHDh10/vx5M+UUdx8PnDhxQnfffXeWxo38ERPnAA/ZsmWL/XapUqUccgAAANnt//7v/xx+r2RG4cKFdfToUYelcOHCZjGXPPHEE/wLHAGB4wH4um+//VZjx441wy7xRDswderULE3m8xeWZSkmJkaHDx82Uy5x9zo4d+6cHn74YZ08edJMAX6Hthi+buzYsfruu+/MsEvc3Q5I0ssvv6x169aZYcAv0RYAAABfdebMGT388MM6deqUmXKaJ44HEhIS1LNnT6Wnp5upgMXEOcADNm7cqMWLF0uSIiIidMstt5hFAAAAss2qVav03nvvmWGfcPz4ccXExPBPcPg1jgfg65KTk/Xoo4+aYZ/Rp08fxcXFmeGAEhsbq2+//dYM+4S9e/dq8ODBZhjwK7TF8HW7d+/22X1tenq6oqOjdebMGTMF+BXaAgAA4MteeeUVbdu2zQz7hJUrV2b5D7f+hIlzfiI2NlY2m002m00rVqww01d0sXx0dLSZggdYlqW4uDh9/PHHat68udLS0iRJAwcOVM6cOc3iAAAA2eLkyZPq0aOHT09MW7RokSZPnmyGAZ/G8QD8yYABA3TgwAEz7DPi4+PVu3dvn26rsuKff/5R//79zbBP+eCDD5zufwJ8BW0x/EV6erp69uyZpTNLeNq2bdv0yiuvmOGgxziN76MtAAAA/uCXX37RiBEjzLBPGTx4cNBcspWJc0AWNGnSxH7gGxISomLFiumRRx5RfHy8JKlnz54++89BAAAQnIYNG+YXBzsDBgxQQkKCGQZ8CscD8EcrV67UlClTzLDPmTNnjr755hszHBD69++vY8eOmWGf8+ijj9oHmwFfRVsMfzRlyhStXLnSDPucESNG6PfffzfDgM+hLQAAAP7Esiw9+uijPn8p1FOnTqlPnz5mOCBleuJcSkqK3n33XTVq1EjFihVTnjx5VK5cOXXs2FHLli2zlytWrJj9B6s/DNABWRESEqLSpUurS5cuWrJkiSZPnqyQkExvZgAAAG51+vRpTZw40Qz7pOPHjys2NtYMAz6N4wH4gzFjxpghn+VP79VZ+/fv15dffmmGfdKff/6phQsXmmHAp9EWw9dZluU37Vt6enpQXZ4JgYO2AAAA+LIVK1Zo8+bNZtgnLVq0SNu3bzfDASdTvxRnzJihihUrasCAAVq5cqXi4uJ09uxZ7du3T3PmzFHTpk01bNgwJSYmKi4uTpJUoEABlS9f3nwqwK8tXLhQx48f1/Hjx3XixAmlpqbqr7/+0ueff65mzZqZxQEAALLVF198ocTERDPss8aPH+/z/7pCcON4AP7mn3/+0fz5882wz1q6dKn++OMPM+zXPvzwQ79q28aNG2eGAJ9CWwx/8+OPP2rLli1m2GdNnTrVL86SiuBGWwAAAPyJv/W1TJgwwQwFHJcnzg0fPlxdu3a1n+I4PDxcrVq1Uq9evdS+fXsVLFhQkvTCCy/oo48+sj8uKipKNpvNfh8IBHnz5lV4eLjCw8MVFhbGdxwAAPg0fzsg2717t5YsWWKGAZ/B8QD8zaRJk/zu0puB1Dl39uxZh74yf/Ddd99xBQn4NNpi+Bt/OyY7ceKEpk2bZoYBn0JbAAAA/MXBgwf95koEF8XGxurkyZNmOKC4NHFu9uzZGjJkiCQpR44cGjp0qA4fPqxvvvlGkyZN0ty5c7Vv3z61bt1akvTiiy/aH1urVi37bQAAAADetWHDBv3yyy9m2OeNHz/eDAEAMiE1NVUffvihGfZ5U6ZM0enTp82wX/ryyy/tV2bwJ4E0eREAstPRo0c1e/ZsM+zz/G2yHwAAAOCrPvroI7/7U+uxY8c0Y8YMMxxQnJ44t3PnTvXo0UOSFBISounTp+vll19WWFiYQ7mIiAh99tlnioyM1Llz5+zxqKgoh3IAAAAAvOf77783Q35h2bJlfnVJOwDwVdu3b9fhw4fNsM9LSUnRr7/+aob9kr+2xf76vgHA16xatUrnz583wz7v999/15EjR8wwAAAAABf5ax+Lv75vZzk9cW7w4ME6ceKEJGnAgAHq3LmzWcQuf/786tSpk0OMM84BAAAA2Wf9+vVmyC8cP35cf/75pxkGALjIX9sBSQEzcc5f18HWrVt19uxZMwwAcJG/tgMKoLYYAAAAyC7p6enasGGDGfYLgX484NTEuQ0bNtivsxsZGamhQ4eaRS5TvXp1++1cuXKpatWqDvn9+/dr1KhRuueee1S6dGnlypVLBQoU0M0336yXX35ZiYmJDuXxn9OnT+vEiRMZLgAAAMBF/nxg48/vHQB8hT/vS/35vV905swZbd261Qz7hfPnz2vLli1mGADgIn9uz/z5vXsK4zQAAABwxc6dO/329+Gff/6plJQUMxwwnJo4N2HCBPvtnj17Kjw83CF/JXny5LHfrl69unLmzGm/v2/fPpUrV07PPPOMvvnmG/3zzz/Kly+fTp48qQ0bNuiVV15R9erVtXHjRvtj8J9WrVopf/78GS4AAACAJCUnJ2v37t1m2G8wSAMAWefP+1J/fu8XbdmyRampqWbYbwTCOgCA7GRZll/vS/35vXsK4zQAAABwhb//pvbXs+U5w2ZZlmUGL2VZlkqVKqWDBw9Kkn777TdFRUWZxS4zatQoPfPMM9KFyXaTJ0+25/7880/deOONuvfeexUdHa0777xTEREROnPmjBYsWKAnn3xScXFxKl26tHbs2KF8+fJd8syZl56eroSEBDOcJSkpKapUqZL9flJSkgoWLOhQxh1iY2PVo0cPM+yU7t27KzY21gxnWXJysgoVKmS/v2vXLkVERDiUcSdv1XVGLl0Xy5cvV+PGjc0i2crb6wUAAPi+devWqXXr1mbYgc1mU+HChc3wNRUuXFg7duxwiFWuXNml39wJCQnK4JBEd955pz7//HMzHHB85fcurs3XjwfgnGA8bqpQoYKOHz9uhu2yqx2QE21BSEiIDhw4oNDQUDPlNz7//HP169fPDDvIrnWQUf1LUq9evfTGG2+Y4YBDW+wfaIsDQ7C1xUePHlW1atXMsANfbgfKlSuntWvXmmGf4a39N+M03qvrjPh6W+Dt9QIAAHzfG2+8odGjR5thB64eE7jjeEBOHhMMHz5cjzzyiBn2KPO3Z0JCgq677jqHMu6Q4cS533//3X7Z1YiICCUmJiokJOMT1fXr10/vv/++JOn9999X37597bnk5GT9/fff+t///nfJI/6zcuVKNWrUSJI0ZcoURUdHm0Uy5ejRoypatKgZditPHSRk5iDAZrNJXjwg8zZP1bW/y+71AgAA/FORIkV09OhRM+xxkZGRio+PN8Pg9y7gURw3XS672gHRFthl1zqg/q+OthjwHNriy9EOuI+n9t+M01zOU3Xt77J7vQAAAP/EMcG17dq1SxUrVjTDWZbhDLj9+/fbb5cvX96pSXOS9NNPP9lv16pVyyFXsGDBq06ak6Q77rhDN9xwgxTgp/sDAAAAAAAAAAAAAAAAAHhfhrPgDh06ZL/t7Cnvdu7caZ/wZrPZVLNmTbNIhi6efjAtLc1MAQAAAAAAAAAAAAAAAACQaRlOnDt//rz99qlTpxxyVzNy5Ej79W8rVqyo8PBws8g1JSYmauvWrZJkv0wsAAAAAAAAAAAAAAAAAADuYLMuznC7ilmzZqlz587ShUusxsfHKzQ01Cxmt3r1at1xxx32iXOdO3fWzJkzzWLX9Oyzz+qdd95ReHi49uzZo8jISLNIpqSnpyshIcEMZ0lKSooqVapkv5+UlKSCBQs6lHGH2NhY9ejRQ5K0fPlyNW7c2CxyGZvNJknq3r27YmNjzXSWJScnq1ChQvb7u3btUkREhEMZd/JWXfs7b68XAADg+/744w/dfvvtZtiBzWazn/XZWYULF9aOHTscYpUrV3bpN3dCQoL92OFq2rVrpw8//NAMBxx+7wLeE4zHTbVq1dKBAwfMsF12tQNyoi0oUKCAdu3aZe/n8EcLFy5UdHS0GXaQXesgo/qXpAEDBmjw4MFmOODQFgPeE2xt8alTp1S+fHmlp6ebKTtfbgdq1qypJUuWmGGf4a39N+M03qtrf+ft9QIAAHzf+++/r9dee80MO3D1mMAdxwNy8pjggw8+sM8d8xbLsnTs2DH7/XLlyl1zvlpmZThxbvfu3apYsaL9/pw5c9ShQweHMhft3LlTDRs21NGjR+2x4cOHu9SxtmzZMrVo0UJpaWkaMWKEnnvuObOITzF//HrqIMEfDsg89dkv8vbr+SvqCQAAmNLS0lSgQAGnzyDtrCJFijj89pekyMhIxcfHO8Syyh+OC9yB33GA9wTj9tauXTvNnz/fDGeJt9qBJk2aaNmyZWbYr/z1118qW7asGc4yb62DL7/8Uu3atTPDAScY9w1AdgnG7a1atWratm2bGc4Sb7UDMTExmjhxohn2Gd76PjFO4/3X81fUEwAAMC1dulTNmzc3w1nireMBSfr9999VtWpVMxwQMrxUa4UKFRQVFWW/36dPH23cuNGhTFpamqZPn6769esrISFBOXLksOdq1arlUPZadu3apfvvv19paWm6++679eyzz5pFAAAAALgoNDTU4Te9v7n55pvNEADARf68L/Xn935R6dKlVaRIETPsNwJhHQBAdvPnfak/v3cAAADAF9SuXdsM+Y2wsDDddNNNZjhgZDhxTpJef/11++3Dhw+rTp06atq0qWJiYtSxY0eVLVtW3bp1U1JSkkaNGuVwCj9nJ879888/atGihY4ePapbbrlFs2bN8utLcAAAAAC+xJ8HOvz5gBIAfIU/twP+/N4vstlsfvs5IiMjVapUKTMMAHCRv7YD8vP3DgAAAPiC6667TuXKlTPDfiEqKsojl0j1FU5NnGvdurWGDx9uv5+WlqZly5Zp0qRJmjNnjg4cOKDIyEh98cUXatCggdLS0iRJJUqUUNGiRS95piuLi4tT8+bNtW/fPlWrVk3ffvutwsPDzWIAAAAAMumWW24xQ36hYsWKXM4EANygTp06Zshv+PN7v5S/tsV16tThz60A4Ab+2g7kypVL1atXN8MAAAAAXOSvxwSB0jd3NU5NnJOkwYMHa/Xq1erYsaOKFy+unDlzqkSJErr99ts1evRo7dixQ506dXK4jKszZ5tLTk7WXXfdpR07dqh8+fJasmSJChcubBYLetHR0bIsS5ZlqXHjxmb6ii6Wj42NNVMAAAAIMvfee6/y5ctnhn3eAw88YIYAAJlQtGhRNW3a1Az7vFtuuUUVK1Y0w37p/vvvN0N+4cEHHzRDAIBMqFevnm644QYz7PM6duyo3Llzm+GgxDgNAAAAssJfxzsCvW/I6YlzktSgQQPNmjVLhw4d0rlz53Tw4EGtXLlSTz31lK677jpJ0qZNm+zlM5o4d/LkSbVq1UobN27U9ddfr++//14lSpQwiwEAAADIooIFC6pr165m2KeFhoYqJibGDAMAMql3795myOf543u+mmrVqqlRo0Zm2KcVKVJEHTt2NMMAgEwIDQ3V448/boZ9XiC1xQAAAEB2uueee1SqVCkz7NNuvvlmvz1TnrNcmjjnDGfPOHf27Fm1a9dOa9asUdGiRfX999/75b+tAAAAAH/hbwMebdq08buDSADwZW3atNH1119vhn3Wddddpy5duphhv+ZvbfEjjzyiPHnymGEAQCb17NlTuXLlMsM+q0aNGrrtttvMMAAAAIBMyJEjhx577DEz7NN69+4tm81mhgOKWyfOWZalzZs32+9HRUU55C9KS0vTAw88oKVLl6pQoUJasmSJbrrpJrMYEJBsNpt9GTlypJl2Srt27ezPUb16dTMNAABwRVFRUX416NGnTx8zBADIAn/rnOvZs6fy5s1rhv1a+/btVbx4cTPsk2w2m1+eGQkAfFlkZKRfTQrv06dPwA+SITgxTgMAALJLr169lDNnTjPskwoVKqT777/fDAcct06c27t3r44dOyZJKlCggMqXL28WkST9+OOP+vLLLyVJZ86cUYsWLVS8ePErLh06dDAfDjhYt26d+vbtq2rVqiksLExlypRR586dtXPnTrPoFSUnJysmJkaRkZEKCwtTkyZNtGHDBrOYnTvOjNi+fXtNnTpVrVu3tsd27NihgQMHKioqSvnz51eJEiXUunVrrV+/3uGxkvT0009r6tSpqly5spkCAAC4pldffdUM+aRGjRrpzjvvNMPwUSNGjFDlypWVnp5upvxGdHR0lgc9Ro8e7TAAEx8fb89NmDBBZcqU0dmzZx0e4yzq+F+erONg0bt3bxUrVswM+5yCBQvq6aefNsN+L2fOnBo6dKgZ9kmPPPKIW/pA4B20E//yZDtBHf/Lk3UcLIYMGaLcuXObYZ9TsWJFdevWzQwDV8Q4DQAAgHOKFy+uvn37mmGf9PzzzytfvnxmOOC4deLcpk2b7LejoqJku8o/kS7tXDh9+rSOHDly1SUxMdHhsYDprbfe0pw5c9S0aVONGTNGMTExWrlypWrXrq2tW7eaxR2kp6erdevWmjFjhvr27asRI0YoLi5OjRs31q5du+zlli5dqrS0NIfHStKiRYvMkFNq1Kihbt26qUqVKvbYRx99pEmTJqlOnTp65513NGDAAP3xxx+qX7++li5d6vD4Ro0aqVu3bn4x2AEAAHxL06ZNff5sQ/ny5dPHH3981eMJZH1Q4uzZsxo0aJBKliypvHnzql69elqyZIlZzG7FihWKjo42w5KkY8eO6a233tKgQYMUEuLWQ0yvK1KkiKZOnao333zTTDlVZ3fffbemTp2q9u3bO8R1YaD63LlzmjhxopmSqGOnv9NZqWP8q3DhwpowYYIZ9jljxoxRyZIlzXBAiImJ8fnJ4aVLl9Y777xjhnEJZ/dbV+NMu3KpYG8nTpw4oaFDh+ruu+/WddddJ5vNptjYWIcyymI7Eex17Ox3Oit1jH9VrlxZr732mhn2KTabTVOmTAmKQTK4B+M0AAAAznv99ddVsWJFM+xT6tevrwEDBpjhwGS50UsvvWRJsiRZTz31lJkOSElJSfbPLMlKSkoyiwQsb3/2q73ejz/+aJ09e9ah7M6dO63cuXNbXbt2dYibZs6caUmyZs2aZY/FxcVZBQsWtB544AHLsiwrPT3d6ty5s1WnTh1r48aNVtmyZa09e/ZYLVq0sJo3b24dP378kmfMmCRr6NChZthav379Zc8VHx9vRUZGWg0aNHCIX9SoUSOrWrVqDrGr1RMAAMBFKSkpVpkyZRx+M2RmKVKkiPnUVpEiRS4r5+ry/vvvm08bFFz5HXffffdZxYsXt5588klr0qRJ1muvvWYVK1bMCgsLs7Zs2WIWv8z9999v5ciRw3r22WetiRMnWrfeequVI0cOa9WqVfYyycnJ1po1ayzLsqzly5db3bt3t6wL7/Pnn3+2l3v33XetAgUKWKdPn7bH/FH37t2tsmXLmmE7Z+rsoqFDh1qSrKNHjzrEBw4caJUtW9ZKT0+3LOrYgavfaWfr+Gpc2d4C1QMPPHDZ/tfVxVPtQOvWrTNch/5uz549VlhY2GWf3dXFU+vgu+++M582KLiyb3B1v2Vypl2hnfjP3r17LUlWmTJlrMaNG1uSrClTppjF7JxtJ6jj/7j6nXa2jq/Gle0tEKWmplr16tW7bP/r6uKpdqB///7m0/q0YP4+efuzX+31GKdhnAYAALhm1apVls1mc/jN4OriqeOB3LlzW9u3bzefOmC5deJc27Zt7RV5rY6LQBLMP369/dldfb3atWtbtWvXNsMOOnXqZBUrVsxKS0tziMfExFj58uWzzpw5Y4+tXLnSql+/vpUrVy4rKirKmj9/vj23bds2K0+ePNZDDz1kj1kXdnYhISHWwIED7TFd5YDsajp06GBdd911ZtiyOCADAABZsGTJEoffDJlZbDabVaRIEYclqwd6jRs3vuy3WbBw5XdcVgYl1q5da0my3n77bXvs9OnTVoUKFaxbb73VHtu0aZN14403Wv369bO++uorq3v37tbs2bOtcuXKWe+++669XI0aNaxu3brZ7/uraw0kO1tnF11tIHn9+vWWJOv777+3LOrYgavfaWfr+Gpc2d4CVXx8vFWsWLHL9sOuLJ5oBwoWLGgdOHDAfLsBady4cZd9flcXT6yDXr16mW81aLiyb3B1v3UpZ9sV2on/nDlzxjp06JBlWZa1bt06Sxn0PzvbTlDH/3H1O+1sHV+NK9tboNq+fbuVO3fuy/bDriyeaAcqVapknTx50ny7Pi2Yv0/e/uyuvh7jNM7VEwAACE79+/d3+M3g6uKJ4wFJ1ogRI8y3GtDcel75efPm6cJkvKue1h7wBsuydOTIERUpUsRMOfjtt99Uu3btyy6xULduXZ06dcrhUgQhISEOlwu79HaVKlX02muvaerUqVqwYIEk6eTJk4qOjlblypX16quv2su66vDhwxl+DgAAAFc1a9ZMb731lhl2iWVZio+Pd1j+7X/OnAoVKmjGjBmX/TbD5W677TblypXLIVapUiVVq1ZN27dvd4ibZs+erdDQUMXExNhjefLk0SOPPKI1a9bo77//li5ctmbLli0qXbq0HnvsMc2ePVtffPGFli9frv79+0uS9u7dq82bN6tZs2b257qod+/estls11z27dtnPsytTp8+rcqVK6ty5co6ffq0PZ6YmKgSJUrotttuu+KlfkzO1llGbr75Zl133XWaP3++RB07yMp3+lJmHePqChcurLlz52bpEmzubgdy5cqlL774ImAv0Wp6/PHH9cgjj5hhl7h7Hdx2220aPXq0GcYVZGW/5Wy7Qjvxn9y5c6t48eJm2GVmO0Ed/ycr3+lLmXWMq6tcubI+/fRT2S7pZ3aVu9uB6667Tl9++WWWfh8AFzFOAwAAcG1vvvmmmjZtaoad5u7jAUm6//77g+cSrRcwIoWANH36dB04cEBdunQxUw4OHTqkEiVKmGF77ODBg7IsS127dlX//v01fvx4lShRQnPnztX777+vFi1a6MSJE5KkAQMGqGHDhoqJiVFCQoIGDRqk/fv365NPPlHu3LmNV3DOqlWrtGbNmgw/BwAAQGYMHDhQzz//vBnOFtdff72WLl16xd9mcI4rgxI33nijChQo4BCvW7euJGnjxo32mM1mcxiYuDgAfNFPP/0kSapdu7Y9dtF9992nunXrqnjx4po6dap9KV++vKpWraoZM2bohhtuMB/mVnnz5tUnn3yiP//8U//3f/9nj/fp00cpKSmKjY1VaGiow2OuxJU6y0jt2rX1448/2u9Tx1fn7HfaZNYxru62227Tl19+edlEiewQGhqqzz77TM2bNzdTActms2nixInq1KmTmcoWUVFR+uabbxQWFmam4CRn91uutCu0E+5nthPU8dU5+502mXWMq+vcubMmTpxohrNFeHi4vv32W1WrVs1MAZnCOA0AAMC15c6dW/PmzVP9+vXNVLZo3bq1Pv3000wfQ/qr/2fvTsOkKK+GAZ9mUVFgWBwQxQW3oCCCoKKgaFDjEg0qkijwChpNwO11iRK/GJdIjKi8KAkBVxI3FBVNojGiaNS4Ioq4EDA6irgMwzKCbAr1/Yi0dgkyzAwwPX3f11UXXec8NXRXd9VT1XW6HoVz1DrTp0+PM844I/bbb784+eST0+kcS5YsWe3J0mabbZbNZzKZGDBgQLzwwgux5557RkREmzZt4rHHHovzzjsvGjZsGPHVL53Gjh0bixYtiiOOOCJGjRoVv/zlL6NLly45f7uiSktL46STToo2bdrEhRdemE4DAFSLoUOHxmWXXZYOb1A77bRTPPPMM+v9omJtV50XJSIipk2bFh06dIiSkpIYPXp09O7dO3r37h0HHXRQXH/99RFfHXvHV8fHaT179ozly5dHp06dol+/ftlp3rx50b179zjxxBPTi6wX++67b1x44YVx/fXXxzPPPBP33XdfjBs3Lq666qrYdddd081Xq6LrrCJ23HHHeOuttyKs47Wq6Gc67ZvrmLU77LDDNnqx1KabbhoPPPBAHHfccelUrVe3bt2466674n/+53/SqQ2qa9euMWnSpGjSpEk6xTqo6H6rov2KfmL90BdXXEU/02n64nVz2mmnxW233fatu21tSM2bN48nn3wyW8ALVeU6DQBAxTRs2DAee+yxOOigg9KpDap3795x//33R/369dOpWm/jnYnBevDJJ5/EUUcdFUVFRdlhL75LgwYNYtmyZelwLF26NJuPiDj00ENX+7cOP/zwnPmddtopLrvssnj55ZejXbt2cckll+TkK+rzzz+PH/7wh7Fw4cJ46KGHsid9AADVLZPJxKWXXhqjR4/OHvtsSAcccEA888wzq70QScVV90WJiIjtttsubrvttrjhhhuyx6O9e/eOKVOmZH8BN3fu3KhXr95qj1dXrFgR06dPj/bt22djs2bNigULFuTEVmflypWxdOnSCk0VufX8ZZddFu3atYuTTz45Bg8eHD169Iizzz473WyNKrrOKqJp06axZMmSWLx4sXX8HdblM532zXVMxRxyyCExadKkjVLAvM0228Q//vGPOOaYY9KpglGvXr247bbb4v/9v/+3UYomTjjhhJg4cWI0bdo0nWIdrMt+q6L9in5i/dAXV8y6fKbT9MXrbsCAATFhwoRo1qxZOrXetWvXLp5++ulKFxZBmus0AADrplGjRvHII49stB9WnnvuuTFu3LjVfldRCDb8t3GwnpSXl8cRRxwRCxYsiEcffTS23nrrdJNvadWqVXz88cfpcDa2ur9RUlKSDuV47LHHIr76dfDcuXPT6bVavnx5HHfccfH666/HQw89tNYv2QAAqsPPfvazmDp1anTr1i2dWi8aNGgQ119/fTz11FOrveMKFbe+LkoUFRWt9hbxTZo0iX333Tcd/pZ33nknli5dmjPU07Rp0yIi1nqM+/TTT0eDBg0qNP373/9OL/4tm2yySdx6663x3nvvxcKFC+O2227LGYJtbSq6zipi1YXvTCZjHa/Bun6m0765jqm4ffbZJ6ZNmxaDBw9Op9abgQMHxhtvvBE9evRIpwpOnTp14sorr4znnnsu2rZtm06vF1tuuWXce++9ce+997oQXEXrut+qaL+in1g/9MVrt66f6TR9ceUcc8wx8dZbb8Wxxx6bTq0XdevWjYsvvjheeeWV2H333dNpqBTXaQAAKqdBgwbxpz/9Kf7yl7/EVlttlU6vFzvttFP885//jOHDh6/zeV9tonCOWmHp0qVx9NFHx4wZM+Jvf/tbhU/0O3bsGFOmTImVK1fmxF988cXYfPPN13kog9GjR8fEiRNj6NChsXz58vjZz36WbvKdVq5cGf/zP/8TTzzxRNx1110uHgAAG9Quu+wS//znP+P//u//osE6FAKtqwMOOCBef/31OPvsszfKnXVqkw11UeKggw6KsWPHpsPRvHnz+PLLL2PhwoXpVLzxxhsRqYvGr7/++rdiq9O2bdu47bbbKjRVtPDyH//4R8RX5w4zZ85Mp79TZdbZmsyfPz8233zzb21jhb6OV6nMZzptTeuYtWvYsGH84Q9/WO93n9tmm23i4YcfjltvvdXQoCn77rtvvPrqq3HhhReu1z6yd+/e8eabb8YJJ5yQTrGOKrPfqky/op+oPmvqJ6zj/6rMZzptTeuYtWvZsmXcf//9cdddd63Xu8+1a9cuXnjhhRg6dGjB3lWC6uc6DQBA1R199NHx5ptvRv/+/dOpanX22WfH1KlT48ADD0ynCk9ClcyfPz+JiOw0f/78dJNaa0O/9jX9f19++WVyzDHHJPXq1Usefvjh9GJZH330UfL2228ny5cvz8bGjRuXREQyfvz4bGzOnDlJkyZNkh//+MfZWEW8++67ScOGDZPjjz8+SZIkGT16dBIRyZ/+9KecdhGRXHrppTmxVQYPHpxERDJmzJh0arV69OiRtGvXLie2pvUEALAuPvroo+SKK65Ittlmm5xji8pOderUSY455pjk0UcfTVasWJH+76jEcdySJUuSAw44INl8882T5557Lp1eowsuuCCpW7duUl5enhMfOnRoEhHJBx98kBP/LnfccUcSEcnUqVPTqeSyyy5L6tSpk3z++efZ2EknnZS0aNEip92GMHXq1GSTTTZJBg4cmHTq1CnZdtttkwULFuS0Ofnkk5Ptt98+J7bKuq6zSy+9NImIZM6cOTnxJEmSQw45JOncuXM6vEaFso6TdfxMV3Udr+v2VogWL16cjB07Ntlnn32+tU+v7LTnnnsmN954Y7Jo0aL0f8dqzJgxIznvvPOSpk2bfmtdVmbaZJNNkv79+691+ypk67pvWJf91jeta7/yXQqpn1jl5ZdfTiIiue2229KprKr2E99USOt4XT7TVV3H67q9FaL58+cnI0aMSHbddddv7dMrO/Xo0SO55557kmXLlqX/u7xWyJ+nDf3a1/T/uU7jOg0AUP0mT56cnHrqqUmDBg1yji0qOzVu3Dg566yzkrfeeiv9XxW09ffTVdhAzj///PjLX/4SRxxxRMybNy/uuOOOnGmVX/7yl7HbbrvF7Nmzs7HevXtH165dY+DAgXHFFVfEqFGj4qCDDooVK1bE5Zdfnm23NkmSxCmnnBINGjSIP/7xjxFfDXd26KGHxjnnnBMfffRRepFvGTFiRIwaNSr222+/2Hzzzb/1Oj7//PP0IgAA602rVq3ikksuiZKSknjggQfi0EMPrdSdCLbbbru4+OKL4913342HHnoofvCDH6zXO+gUihUrVsSPf/zjeP7552P8+PGx3377pZtERMTixYtj+vTpUVZWlo317t07VqxYETfeeGM2tmzZsrjtttti3333jW233TYbX5tV/+/kyZPTqXjjjTeiTZs2sfnmm2dj06dPzxnKbEP44osvYsCAAbH11lvH9ddfH2PHjo1PP/00zj333HTTNarOdTZlypTYf//90+E1KpR1XNHPdEWs6zpm9Ro0aBAnn3xyvPjii/Hyyy/HKaecEk2bNk03W6uioqLo27dvPPfcc/Hqq6/GaaedFltssUW6Gauxyy67xHXXXRcffvhh3HrrrdG1a9dKDZvRtm3buPrqq+PDDz+MP//5z1XavvhaRfdb+uLq6Seq07r2E4Wyjiv6ma6IdV3HrF6TJk3inHPOienTp8fjjz8exx13XKWG1m7RokWcccYZ8cYbb8RTTz0Vffr0iU022STdDKrEdRoAgOrXuXPnuPnmm2P27NkxfPjwaN++fWQymXSz71SnTp3o0qVLjBkzJmbPnh033HBD7LbbbulmhS1dSce6KeRfjWzo176m/69Hjx7fqpT95rTKySefnERE8t57733jrybJvHnzklNPPTVp3rx5svnmmyc9evRIXn755Zw2a3P99dcnEZHcf//9OfEPPvggady4cXLkkUdmY7GGXzKten5rmtLPO/FLJgBgA1u+fHny2muvJbfccksyaNCg5KCDDkr22WefZI899kj22muvZP/990969eqV/OY3v0n+/ve/J59++mn6T/Ad1uU47pxzzkkiIjn66KOT22+//VvTKk8++eRqjz9POOGEpF69eskvfvGLZMyYMcn++++f1KtXL/nnP/+Z064i2rdvn5x44onpcNK2bdvkmGOOyYltvfXWSffu3b/ztVW3X//610kmk0kmTZqUjV155ZVJROTcCWFtd2BZl3W2pjuwTJ48OYmI5PHHH8+Jr00hrOOKfqZXqeo6Xpftja+tXLkyeffdd5Px48cnQ4YMSQ4//PCka9euSceOHZM999wz6dq1a3LYYYclv/jFL5Jx48YlM2fOTFauXJn+M1TB4sWLkxdeeCH5wx/+kJxyyinJAQcckHTp0iXZY489ks6dOyfdunVLfvKTnyTXXHNNMmnSJJ/tdbQu+4aK7rf0xdXTTyRJkowcOTL5zW9+kwwaNCiJiOS4445LfvOb3yS/+c1vvnVntar2E2mFsI4r+pleparreF22N762YsWK5O23307uuOOO5H//93+Tnj17Jvvuu2/SoUOHpGPHjsl+++2XHHXUUcmvfvWr5MEHH0xmzZpVEH1xIX+eNvRrX9P/5zqN6zQAwIbx2WefJf/85z+T6667LjnppJOSbt26JZ07d0722GOPpEuXLkn37t2Tk08+ORk5cmTy3HPP5dwhndVTOFdFhXzwu6Ff+4b+/9aXiEh+8YtfJHPmzEkWL16cTlfIZ599lsyZMyfZf//9nZABANQS63IcV9GLEmu6WL9kyZLkggsuSLbaaqtk0003Tfbee+/k0UcfzWlTUcOHD08aNmyYc2y7bNmypF69esnFF1+c0/bUU09NNt100+S4447Lia8vr7zySlKvXr3krLPOyol/+eWXyd57751svfXW2fX8XReSk3VcZ2u6kHzRRRcl22233TpfvCyEdVzRz/QqVV3H67K9AYVjXfYNFd1v6Yurp59IkiTZfvvtv7WeV03pQoaq9hNphbCOK/qZXqWq63hdtjdYm0L+PG3o176h/7/1JVynAQDgK5nkvweIVNKCBQtyhiqZP39+NGnSJKdNbbWhX/uG/v/Wl2/eOvOaa66JCy64ICdfEb169YqHHnooIiLatWsXb7zxRjZXW9YTAEChydfjuPLy8thxxx1j2LBhceqpp6bTeWPAgAExadKkmDJlStSrV69S637p0qWxaNGiGDZsWFxzzTUxZ86c2HLLLSO+GoJvhx12iCFDhsQ555yTXvQ7Wcdfq651nK/bG7B+5eu+QT/xterqJ9Ks469V1zrO1+2NmqmQP08b+rVv6P9vfXGdBgCAVeqkA8D6NXHixOzUp0+fdLpCrrjiiuzfuPnmm9NpAADYYIqKiuLCCy+Ma665JlauXJlO55VZs2ZFcXFxdO/ePZ2qkNGjR0dxcXFcc8016VTcdtttUb9+/fj5z3+eTq2Vdfy19bWOAfKZfuJr66ufsI6/tr7WMcCG5DoNAACruONcFRXyr0Y29Gvf0P9fvrKeAADyk+O4jeutt96Kjz76KCIiGjZsGF27dk03WatZs2bFv//97+x8jx49on79+jltCllNWse2N2B17Bs2rprUT9RWNWkd296oToX8edrQr31D/3/5ynoCAMgfCueqqJAPfjf0a9/Q/1++sp4AAPKT4zjYcGxvwOrYN8CGY3ujOhXy52lDv/YN/f/lK+sJACB/KJyrovTBb0lJSRQVFeW0qa3Ky8tjhx12yM6v7wP/Ql7X62JDvy8AAFQPx7uw4ThvAlZHXwwbjr6Y6lTI++8NvS0V8rpeFxv6fQEAoPIUzlVR+iShkK3vA3/runLW9/sCAED1cLwLG4/zJiD0xbBR6YupCvvvr63vbcm6rpz1/b4AAFB5ddIBAAAAAAAAAAAAqM0UzgEAAAAAAAAAAFBQDNVaRUmSRHl5eTpckIqKiiKTyaTD1ca6rpz1/b4AAFA9HO/CxuO8CQh9MWxU+mKqwv77a+t7W7KuK2d9vy8AAFSewjkAAAAAAAAAAAAKiqFaAQAAAAAAAAAAKCgK5wAAAAAAAAAAACgoCucAAAAAAAAAAAAoKArnAAAAAAAAAAAAKCgK5wAAAAAAAAAAACgoCucAAAAAAAAAAAAoKArnAAAAAAAAAAAAKCgK5wAAAAAAAAAAACgoCucAAAAAAAAAAAAoKArnAAAAAAAAAAAAKCgK5wAAAAAAAAAAACgoCucAAAAAAAAAAAAoKArnAAAAAAAAAAAAKCgK5wAAAAAAAAAAACgoCucAAAAAAAAAAAAoKArnAAAAAAAAAAAAKCgK5wAAAAAAAAAAACgoCucAAAAAAAAAAAAoKArnAAAAAAAAAAAAKCgK5wAAAAAAAAAAACgoCucAAAAAAAAAAAAoKArnAAAAAAAAAAAAKCgK5wAAAAAAAAAAACgoCucAAAAAAAAAAAAoKArnAAAAAAAAAAAAKCgK5wAAAAAAAAAAACgoCucAAAAAAAAAAAAoKArnAAAAAAAAAAAAKCgK5wAAAAAAAAAAACgoCucAAAAAAAAAAAAoKArnAAAAAAAAAAAAKCgK5wAAAAAAAAAAACgoCucAAAAAAAAAAAAoKArnAAAAAAAAAAAAKCgK5wAAAAAAAAAAACgoCucAAAAAAAAAAAAoKArnAAAAAAAAAAAAKCgK5wAAAAAAAAAAACgoCucAAAAAAAAAAAAoKArnAAAAAAAAAAAAKCgK5wAAAAAAAAAAACgoCucAAAAAAAAAAAAoKArnAAAAAAAAAAAAKCgK5wAAAAAAAAAAACgoCucAAAAAAAAAAAAoKArnAAAAAAAAAAAAKCgK5wAAAAAAAAAAACgoCucAAAAAAAAAAAAoKArnAAAAAAAAAAAAKCgK5wAAAAAAAAAAACgoCucAAAAAAAAAAAAoKArnAAAAAAAAAAAAKCgK5wAAAAAAAAAAACgoCucAAAAAAAAAAAAoKArnAAAAAAAAAAAAKCgK5wAAAAAAAAAAACgoCucAAAAAAAAAAAAoKArnAAAAAAAAAAAAKCgK5wAAAAAAAAAAACgoCucAAAAAAAAAAAAoKArnAAAAAAAAAAAAKCgK5wAAAAAAAAAAACgoCucAAAAAAAAAAAAoKArnAAAAAAAAAAAAKCgK5wAAAAAAAAAAACgoCucAAAAAAAAAAAAoKArnAAAAAAAAAAAAKCgK5wAAAAAAAAAAACgoCucAAAAAAAAAAAAoKArnAAAAAAAAAAAAKCgK5wAAAAAAAAAAACgoCucAAAAAAAAAAAAoKArnAAAAAAAAAAAAKCgK5wAAAAAAAAAAACgoCucAAAAAAAAAAAAoKArnAAAAAAAAAAAAKCgK5wAAAAAAAAAAACgoCucAAAAAAAAAAAAoKArnAAAAAAAAAAAAKCgK5wAAAAAAAAAAACgoCucAAAAAAAAAAAAoKArnAAAAAAAAAAAAKCgK5wAAAAAAAAAAACgoCucAAAAAAAAAAAAoKArnAAAAAAAAAAAAKCgK5wAAAAAAAAAAACgoCucAAAAAAAAAAAAoKArnAAAAAAAAAAAAKCgK5wAAAAAAAAAAACgoCucAAAAAAAAAAAAoKArnAAAAAAAAAAAAKCgK5wAAAAAAAAAAACgoCucAAAAAAAAAAAAoKArnAAAAAAAAAAAAKCgK5wAAAAAAAAAAACgoCucAAAAAAAAAAAAoKArnAAAAAAAAAAAAKCgK5wAAAAAAAAAAACgoCucAAAAAAAAAAAAoKArnAAAAAAAAAAAAKCgK5wAAAAAAAAAAACgoCucAAAAAAAAAAAAoKArnAAAAAAAAAAAAKCgK5wAAAAAAAAAAACgoCucAAAAAAAAAAAAoKArnAAAAAAAAAAAAKCgK5wAAAAAAAAAAACgoCucAAAAAAAAAAAAoKArnAAAAAAAAAAAAKCgK5wAAAAAAAAAAACgoCucAAAAAAAAAAAAoKArnAAAAAAAAAAAAKCgK5wAAAAAAAAAAACgoCucAAAAAAAAAAAAoKArnAAAAAAAAAAAAKCgK5wAAAAAAAAAAACgoCucAAAAAAAAAAAAoKArnAAAAAAAAAAAAKCgK5wAAAAAAAAAAACgoCucAAAAAAAAAAAAoKArnAAAAAAAAAAAAKCgK5wAAAAAAAAAAACgoCucAAAAAAAAAAAAoKArnAAAAAAAAAAAAKCgK5wAAAAAAAAAAACgomSRJknQQAKi4JEmivLw8HS44RUVFkclk0mEAAKjVnA98zTkBAAAAAPlE4RwAVNGCBQuiadOm6XDBmT9/fjRp0iQdBgCAWs35wNecEwAAAACQTwzVCgAAAAAAAAAAQEFROAcAAAAAAAAAAEBBMVQrAFRRemimkpKSKCoqymlTG5WXl8cOO+yQnTcsEwAAhahQzwfCOQEAAAAAeU7hHABUUfpCWaFcLCrU1w0AAN9UyMfFhfzaAQAAAMh/hmoFAAAAAAAAAACgoCicAwAAAAAAAAAAoKAonAMAAAAAAAAAAKCgKJwDAAAAAAAAAACgoCicAwAAAAAAAAAAoKAonAOAGmbs2LGRyWRWOzVq1Ch23XXX6Nu3b/z9739PLwoAAOQ55wMAAAAAsGEonAOAPLJo0aKYOXNm3HXXXXHkkUfG8ccfH8uXL083AwAAaiHnAwAAAABQfRTOAUAN9sgjj8TChQtj4cKFUV5eHlOnTo3hw4dHUVFRREQ88MADMWTIkPRiAABALeB8AAAAAADWH4VzAFCDNWjQIBo2bBgNGzaMxo0bR4cOHeLcc8+NRx99NDKZTEREjBo1KhYtWpReFAAAyHPOBwAAAABg/VE4BwB5qGvXrtGzZ8+IiFi2bFm89NJL6SYAAEAt5XwAAAAAAKpO4RwA5Knddtst+7i0tDQnBwAA1G7OBwAAAACgahTOAUCeSpIk+7hp06Y5OQAAoHZzPgAAAAAAVaNwDgDy1Ntvvx0REZlMJnbfffd0GgAAqMWcDwAAAABA1SicA4A89Pzzz8ekSZMiIuLYY4+NbbfdNt0EAACopZwPAAAAAEDVKZwDgBpsyZIlsWjRoli0aFF89tlnMW3atBgxYkQcccQRkSRJdOzYMW688cb0YgAAQC3gfAAAAAAA1h+FcwBUyYoVK2LhwoWxcuXKdIpqcOSRR0ajRo2iUaNGUVRUFB06dIhzzz03ysvL49e//nW8+OKL0bx58/Riccwxx0Qmk4kJEyakU1m9evWKTCYTDzzwQDoFAAAVtmTJkli8eHEkSZJOUUXOBwAAAABg/alU4Vx5eXn83//9X/To0SNatmwZm222WbRp0yZ69+6dHSYiIqJly5aRyWQik8nEf/7zn5y/AUD+euWVV+LUU0+N5s2bR7169aJx48ZRr169aNGiRZxxxhnxxhtvpBdhPRg2bFg88cQT6XBERIwZMyaaNm0agwYNirlz56bTceedd8ZDDz0UJ554Yhx33HHpNAAArNHixYvjtttui3322Sc222yz2HzzzWOLLbaIzTbbLPbaa68YM2ZMLFq0KL0Y1cz5AAAAAABUzToXzt11112x8847x3nnnRdPP/10lJaWxrJly6KkpCTuv//+6NmzZwwdOjTmzZsXpaWlERHRuHHj2HHHHdN/CoA8c88998S+++4bXbp0iVtvvTXmzZuXzSVJEnPmzIlRo0bFHnvsET169Ii//e1vOcuz7p588slIkiSSJInFixfHtGnT4pxzzolMJhNLly6NPn36rLY4vVWrVnHDDTfEp59+GmeeeWZO7tNPP42zzz47WrZsGSNHjszJAQDAmpSVlcX5558frVu3jlNOOSVefvnlWLZsWTa/fPnyePXVV+PnP/95bL311nHWWWfFRx99lPM3WDfOBwAAAABg/Vmnwrmrrroq+vbtG2VlZRER0bBhwzjyyCPjpz/9aRx77LHRpEmTiIj41a9+FTfffHN2uY4dO0Ymk8nOA5BfVq5cGeeee2785Cc/iZdeeimdXq2nn346jj766PjNb35jyKZq0qBBg2jfvn2MGDEihg0bFhERixYtisGDB6ebRkREv3794kc/+lGMGzcuZ/ilQYMGxbx582LMmDGrHdYJAADS3nnnndhvv/1i+PDhMX/+/HT6WxYuXBi///3vo2vXru5IXU2cDwAAAABA9apw4dx9990XF198cURE1KtXLy699NL45JNP4uGHH46bbropHnjggSgpKYmjjjoqIiIuueSS7LKdOnXKPgYgvyRJEj/72c9ixIgR6VSF/PrXv45f/vKX6TBVdP7558d+++0XERGPPfbYGodoGj16dDRr1iwGDRoUZWVlMW7cuJgwYUL07ds3fvSjH6WbAwDAt7z77rvRrVu3eOedd9KptZo1a1YccMAB8eabb6ZTVIHzAQAAAACougoVzs2YMSMGDhwYERF16tSJO++8My677LLYYostctoVFRXF3XffHcXFxbF8+fJsvGPHjjntAMgfV111Vc5dRCvj6quvjtGjR6fDVEEmk4lrr702O3/ppZfm5FfZaqutYuTIkVFaWhoDBgyIs846KztsEwAArM38+fPjiCOOiNLS0nSqwhYsWBBHHHFEfPLJJ+kUleR8AAAAAACqrkKFc0OGDIlFixZFRMR5550Xffr0STfJatSoUZxwwgk5MXecA8hPZWVlcfnll6fDlTJkyJD4/PPP02GqYP/9948f/vCHERHxr3/9KyZOnJhuEhERJ510Uhx77LHx8MMPR1lZWYwZMyaaNWuWbgYAAN8yatSomDFjRjq8zmbNmhXDhw9Ph6kC5wMAAAAAUDVrLZybMmVKTJgwISIiiouL1/gL1m9q37599vEmm2wSu+++e05+ldmzZ8cZZ5wRbdq0ic022yxatWoVvXv3jhdffDHdFICN4JZbbsm5g2hVlJeXx7hx49Jhqmjo0KGRyWQiIr6zyHHo0KEREbHPPvvE0UcfnU4DAMC3fPnll9V65+hbbrkllixZkg5TBc4HAAAAAKDy1lo4980vSE855ZRo2LBhTn51Nttss+zj9u3bR/369XPy8VVB3h577BGjRo2KkpKS2HTTTePTTz+N+++/P7p16xZjx45NLwLABrRixYpqvUgWEfGHP/whkiRJh6mCDh06xE9+8pOIr+4y8fjjj6ebREREgwYNcv4FAIC1+dvf/hYffvhhOlxp8+bNi/Hjx6fDVIHzAQAAAACovEzyHRUMSZJE69at46OPPoqIiFdffTU6duyYbvYtw4cPj/PPPz/iq2K7W265JSe/ePHi+N73vhcffvhh7L333nHHHXfErrvuGnPnzo0LLrggxo4dG/Xr14/JkydHhw4dcpatipUrV8bcuXPTYQBWY9KkSdkLMNXpscceq1Bfkk/Ky8tjl112yc7Pnz8/mjRpktNmXYwdOzYGDhwYERFPPvlkHHTQQekmOd55553Ybbfd4ssvv4zu3bvHM888k24SJSUl0aZNm+jRo0c89dRT6XSlLFiwIJo2bZqdnzlzZhQVFeW0AQAgf5144onxxBNPpMNVsvfee8fDDz+cDue1Qj0fCOcEAAAAAGwgzZs3jzp11np/uHX2nYVzb775ZnbY1aKiopg3b16FnsTZZ58dI0eOjIiIkSNHxplnnpmTv+666+KCCy6Ixo0bx7///e/YaqutsrmVK1fG/vvvHy+++GL06tUrO0xsdSgtLY2WLVumwwBQrap6oWx9WB8XytIXyQAAgMI5HwjnBAAAAABsIKWlpVFcXJwOV9l3VsG9//772cc77rhjhYrmIiKee+657ONOnTrl5CIi7r777oiI6Nu3b07RXEREnTp14txzz42IiIcffjjKy8tz8lXx2WefpUMAAAAAAAAAAAAUmO+shPv444+zj5s1a5aTW5MZM2bElClTIiIik8nEnnvumZNfuHBhvPLKKxERceihh+bkVjnkkEMik8nEF198Ec8++2w6DQAAAAAAAAAAAJX2nYVzX3zxRfbx4sWLc3Jrcu2118aq0V933nnnaNiwYU7+7bffzj7efffdc3KrNG/ePFq0aBGRag8AAAAAAAAAAABVlUlWVbmtxvjx46NPnz4REdGkSZMoKyuLunXrpptlPfvss3HggQdmC+f69OkT99xzT06bhx56KHr16hXx1dCpjRo1ysmv0qlTp3jttdfivPPOi+uuuy6drpR58+ZF8+bNs/MzZ86MoqKinDYA/NfkyZPjyCOPTIer7Pnnn4+ddtopHc5r5eXlscsuu2Tn58+fH02aNMlpUxstWLAgmjZtmp3XrwIA1C4/+9nPYsKECelwlfTs2TPuvvvudDivFer5QDgnAAAAAGADad68edSp8533h6uU7yyc+89//hM777xzdv7++++P4447LqfNKjNmzIju3bvHnDlzsrGrrroqhgwZktPurrvuir59+0Z8dUe7evXq5eRX6datWzz33HNx+umnx5gxY9LpSkl/mVdIX2QCrKskSWKvvfaK1157LZ2qtEMOOSQmTpyYDue9Qu1fCvV1AwAUiqeffjp69OiRDlfJX//61/jhD3+YDue1Qj4uLuTXDgAAAED++85SvJ122ik6duyYnT/jjDO+VUCxYsWKuPPOO6Nr164xd+7cnEK4Tp065bQFIH9kMpkYPHhwOlwl1f33AACA9eeAAw6Idu3apcOVtv3228cRRxyRDgMAAAAAbBTfWTgXEXHllVdmH3/yySfRpUuX6NmzZ5x++unRu3fv2H777aNfv34xf/78GD58eHaY1lhD4dwWW2yRfbxkyZKc3DctXrw4IiIaNmyYTgGwgZx00knVNszONttsE0cffXQ6DAAA1FDV/WOan//851G3bt10GAAAAABgo1hr4dxRRx0VV111VXZ+xYoVMWnSpLjpppvi/vvvj9mzZ0dxcXHce++90a1bt1ixYkVERLRq1SpatGjxjb/0X61atco+/uijj3Jy3/Txxx9HpNoDsGFtscUWMXr06HR4ndWtWzduvvnmNQ7PDQAA1EynnnpqHHTQQenwOtt7773jrLPOSocBAAAAADaatRbORUQMGTIknn322ejdu3dstdVWUb9+/WjVqlUccMABMWLEiJg+fXqccMIJOcO4ru5ucxERu+22W2QymYiIeOutt9LpiIiYO3dulJaWRnzVHoCN5yc/+Ulce+216XCFZTKZuOmmm+Lwww9PpwAAgBpu0003jQkTJkSHDh3SqQrbeeed469//WvOKAQAAAAAABtbhQrnIiK6desW48ePj48//jiWL18eH330UTz99NNxzjnnRLNmzSIiYurUqdn2ayqca9SoUXTu3DkiIh5//PF0OiIinnjiiUiSJOrXrx/du3dPpwHYwM4///y4+eab13lYpc022yzGjx8fAwcOTKcAAIA80aRJk/jnP/8ZBx98cDq1Vl27do3nnnsuWrZsmU4BAAAAAGxUFS6cq4iK3HEuIuLEE0+MiIg777wzPv3005xckiQxYsSIiK+GiS0qKsrJA7BxnHrqqTF58uQ49dRTo0GDBul0jkaNGsUZZ5wRr776ahx//PHpNAAAkGeaNGkSjz76aNx2223RpUuXdPpbOnToEGPGjIlJkyZFcXFxOg0AAAAAsNFVW+FckiTx+uuvZ+c7duyYk/+mn//859G6desoLy+PH/3oRzFjxoyIiJg3b1789Kc/jeeffz7q168fl19+eXpRADaijh07xs033xyzZ8+OK664Ip2Obt26xahRo2L27Nnx+9//Ptq2bZtuAgAA5KlNNtkkBgwYEC+//HK89NJL2R9GflPv3r3j2Wefjddeey1OP/30tf7oBgAAAABgY6m2wrn33nsvPvvss4iIaNy4cey4447pJlmbb755PPTQQ9G0adN48cUX43vf+140adIkiouL49Zbb426devGmDFjokOHDulFAagBmjZtGj//+c/T4ZgwYUIMGjQoGjVqlE5RQQsXLozTTz89mjdvHk2aNIn+/fvHvHnzsvnLLrssMplMZDKZaNiwYc6yFfXggw9m/0Ymk4nJkyenmwAAwHfae++94/rrr0+HY9SoUdGtW7fIZDLpFBW0Ic4JXnvttZxzgvvuuy/dBAAAAABqvWornJs6dWr2cceOHdf6Belee+0V06ZNi8GDB8f2228fS5YsieLi4jjuuOPiX//6VwwcODC9CADUakmSxHHHHRcTJkyICy+8MC655JJ4/PHH4/DDD48vvvgip+3tt98et9xyS04sIuLtt9+Oww8/PBo2bBjNmjWL/v37x5w5c3LadOnSJW6//fY4/fTTc+IAAMDGVdVzgptuuil69OgRLVu2jE033TTatGkTAwcOjJKSkpx222+/fdx+++1x8cUX58QBAAAAoJBUW+Hca6+9ln3cqVOnnNyabLPNNvGHP/whSkpKYtmyZfHJJ5/E/fffH/vuu2+6KQDUeg8++GA8/vjj8de//jUuuuiiOP/88+PRRx+NV155Jf70pz/ltO3Xr1/8+Mc/zol9+OGHceCBB8Y777wTv/3tb+OCCy6Ihx9+OA499NBYvnx5tl3r1q2jX79+sd9+++UsDwAAbFxVPSd49dVXo02bNnHhhRfGH//4x+jXr1/8/e9/j7333js++uijbLumTZtGv3794tBDD81ZHgAAAAAKSbUVzqXvOAcArJs///nP0blz5+jatWs2tueee8aBBx4Yt99+e07b1fntb38bn3/+eUyaNCnOPvvsuPjii+Pee++NqVOnxtixY9PNAQCAGqaq5wSjRo2KsWPHxvnnnx+nnHJK/OY3v4mHH344ysrK4s9//nO6OQAAAAAUtGornHvwwQcjSZJIkiQGDBiQTgMAa/Hcc8+t9i5w++67b7zwwguxYsWKdCrH/fffHz/84Q9ju+22y8YOOeSQ2HXXXePee+/NaQsAANQ8VT0nWJ0ddtghIiIWLFiQTgEAAABAQau2wjkAoPIWLlwYpaWlUVxcHGVlZTlTixYtYvny5fHhhx+mF8uaPXt2lJaWRpcuXdKp2GeffeLVV19NhwEAgBqkqucE3zR37twoLS2NyZMnx8CBAyMiomfPnulmAAAAAFDQFM4BQA3w2WefRUTEpZdeGsXFxTnT+eefHxER5eXlqaW+9vHHH0dERKtWrdKpaNWqVcybNy+WLVuWTgEAADVEVc8JvmmbbbaJli1bxt577x3PPfdc3HDDDXHooYemmwEAAABAQVM4BwA1QCaTiYiIn/70pzFx4sScadVFslVtVmfJkiUREbHpppumU7HZZptFfKMNAABQ81T1nOCb/v73v8cjjzwS1113XWy33Xbx+eefp5sAAAAAQMFTOAcANUDjxo0jImLbbbeNQw45JGfaYYcdctqsToMGDSIiVntXuaVLl0Z8ow0AAFDzVPWc4JsOPvjgOOKII+K8886L8ePHx+WXXx6///3v080AAAAAoKApnAOAGqBhw4bRokWL7JCr3zRr1qzYZJNNonXr1ulU1qohWle3/McffxzNmjVb7d3oAACAmqGq5wRrstNOO0WnTp3izjvvTKcAAAAAoKApnAOAGqJbt24xefLkdDief/756Nq1a9StWzedytpmm22iuLh4tcu/9NJL0bFjx3QYAACoYapyTvBdlixZEuXl5ekwAAAAABQ0hXMAUEP0798/Jk+eHM8880w2Nnny5Hj22Wejf//+OW1X5/jjj4+//e1vMWvWrGzsiSeeiBkzZsQJJ5yQ0xYAAKh5qnJO8OWXX8b8+fPT4XjppZdi2rRp0aVLl3QKAAAAAAqawjkAqCF69eoVPXv2jF69esXvfve7uPbaa+Ooo46KLl26xMknn5xu/i0XX3xxbL755nHwwQfHyJEj46qrrooTTjgh9thjjxg4cGC6OQAAUMNU5Zxg0aJFse2228app54aw4cPjzFjxsSZZ54ZBx98cBQVFcUll1ySXgQAAAAACprCOQCoITKZTEyYMCGOP/74GDZsWFx55ZVx2GGHxaOPPhr169dPN/+WbbfdNv75z3/GTjvtFEOGDIlhw4bFkUceGRMnToxNN9003RwAAKhhqnJOsPnmm8dPf/rTmDx5clx++eVx1llnxd/+9rc48cQT45VXXolddtklvQgAAAAAFDSFcwBQgzRq1ChuvPHGmDdvXixYsCBuv/32aNasWbpZlJWVxdy5c9PhaNeuXfzjH/+Izz//PObPnx933HFHtGzZMqfN8uXLo6ysLBYtWpQTBwAANr7KnhNssskmMWLEiJg6dWqUl5fH8uXLo6SkJG6++ebYYYcdcpZdsWJFlJWVRXl5eU4cAAAAAAqJwjkAyEPFxcWx/fbbp8MV8sgjj0RxcXGcddZZ6RQAAJAnqnJOMG3atCguLo5evXqlUwAAAABQMDJJkiTpYG21YMGCaNq0aXZ+/vz50aRJk5w2AFTMnDlzokWLFjmx0tLSKC4uzokVgg3Zv7z77rvx7rvvRkREvXr14qCDDko3Was5c+bE1KlTs/P77rtvNGrUKKdNRWzI1w0AQM3jnOC/NvRxcXWcEyxatCheeOGF7HyHDh2+9V5WxIZ+7QAAAABQnRTO+TIPoFJcJPtaofYvhfq6AQD4L+cE/1XIx8WF/NoBAAAAyH8K53yZB1ApLpJ9Ld2/lJSURFFRUU6b2qi8vDx22GGH7Lx+FQCgsDgn+K9CPR8I5wQAAAAA5DmFc77MA6gUF8m+lu5fCpV+FQCgsDgn+C/nA19zTgAAAABAPqmTDgAAAAAAAAAAAEBtpnAOAAAAAAAAAACAgmKoVsNHAFSKYZm+liRJlJeXp8MFp6ioKDKZTDoMAEAt5Zzgv5wPfM05AQAAAAD5ROGcwjmASnGRDAAACptzAgAAAAAgnxmqFQAAAAAAAAAAgIKicA4AAAAAAAAAAICConAOAAAAAAAAAACAgqJwDgAAAAAAAAAAgIKicA4AAAAAAAAAAICConAOAAAAAAAAAACAgqJwDgAAAAAAAAAAgIKicA4AAAAAAAAAAICConAOAAAAAAAAAACAgqJwDgAAAAAAAAAAgIKicA4AAAAAAAAAAICConAOAAAAAAAAAACAgqJwDgAAAAAAAAAAgIKicA4AAAAAAAAAAICConAOAAAAAAAAAACAgqJwDgAAAAAAAAAAgIKicA4AAAAAAAAAAICConAOAAAAAAAAAACAgqJwDgAAAAAAAAAAgIKicA4AAAAAAAAAAICConAOAAAAAAAAAACAgqJwDgAAAAAAAAAAgIKicA4AAAAAAAAAAICConAOAAAAAAAAAACAgqJwDgAAAAAAAAAAgIKicA4AAAAAAAAAAICConAOAAAAAAAAAACAgqJwDgAAAAAAAAAAgIKSSZIkSQdrqwULFkTTpk2z8/Pnz48mTZrktAGgYubMmRMtWrTIiZWWlkZxcXFODABgfUuSJMrLy9PhglNUVBSZTCYdhvXGOcF/2Qd9zX4IAAAAgHyicE7hHECluEgGANQU6XO9QuUclw3NOcF/2Qd9zX4IAAAAgHxiqFYAAAAAAAAAAAAKisI5AAAAAAAAAAAACoqhWg0fAVAphmUCAGqK9LleSUlJFBUV5bSpjcrLy2OHHXbIzjvHZUNzTvBfhboPCvshAAAAAPKcwjlf5gFUiotkAEBNUajneoX6uqk5nBP8VyFvi4X82gEAAADIf4ZqBQAAAAAAAAAAoKAonAMAAAAAAAAAAKCgKJwDAAAAAAAAAACgoCicAwAAAKDC5s2bFxMnTozf//736VTccMMN8eijj8acOXPSKQAAAACAGkXhHAAAAABrtHTp0rjjjjvihBNOiDZt2kTz5s3jsMMOiyuuuCLdNK688so44ogjokWLFrHddtvFcccdF7feemssXrw43RQAAAAAYKNSOAcAAADAt7z33nsxZMiQ2HbbbaN///5x3333RUlJSbrZGs2aNSsmTJgQp556arRu3TrOP//8mDlzZroZAAAAAMBGoXAOAAAAvmHs2LGRyWRWOzVq1Ch23XXX6Nu3b/z9739PLwq1QllZWfTr1y922mmnuPrqq6OsrCzdZJ3Nnz8/hg8fHrvuumscf/zx8fHHH6eb8BX7IAAAAADYMBTOAQAAQAUtWrQoZs6cGXfddVcceeSRcfzxx8fy5cvTzSBvPfDAA9GuXbu48847I0mSdLparPo/7rjjjvX2f9RW9kEAAAAAUH0UzgEAAMAaPPLII7Fw4cJYuHBhlJeXx9SpU2P48OFRVFQU8VUB0JAhQ9KLQd6ZN29enHjiiXH88cdHaWlpOl3t5s+fH/37949evXrFp59+mk7zFfsgAAAAAFh/FM4BAADAGjRo0CAaNmwYDRs2jMaNG0eHDh3i3HPPjUcffTQymUxERIwaNSoWLVqUXhTyxuzZs6N79+4xbty4dGq9+8tf/hL77bdfvPvuu+kU9kEAAAAAsF4pnAMAAIB11LVr1+jZs2dERCxbtixeeumldBPIC++//35079493n777XRqg3nvvfeie/fu8e9//zudYg3sgwAAAACg6hTOAQAAQCXstttu2ccbYmhLqG6ffvppHHLIIVFSUpJObXAff/xxHHroofHBBx+kU6yBfRAAAAAAVI3COQAAAKiEJEmyj5s2bZqTg5ruyy+/jGOOOSbeeeeddKrCMplMbLnlljnTquFDK2PWrFlx1FFHxdKlS9MpVsM+CAAAAACqRuEcAAAAVMKqoS0zmUzsvvvu6TTUaNdcc02Vh/ds3rx5zJkzJ2dq3rx5utk6eeONN+Lyyy9Ph1kN+yAAAAAAqBqFcwAAALCOnn/++Zg0aVJERBx77LGx7bbbpptAjfXGG2/EZZddlg7XGMOGDatyUV9tZx8EAAAAAFWncA4AAADWYMmSJbFo0aJYtGhRfPbZZzFt2rQYMWJEHHHEEZEkSXTs2DFuvPHG9GJQY3355ZcxcODAWL58eTpVY6xcuTIGDhxoyFb7IAAAAABYrxTOAUAeSpIkXnzxxbjxxhvj6quvjt/97ncxZsyYeOaZZyJJknRzAGqhDz74IMaOHRvDhw+PoUOHxu9///uYMGGCQpNqduSRR0ajRo2iUaNGUVRUFB06dIhzzz03ysvL49e//nW8+OKLqx2a8phjjolMJhMTJkxIp7J69eoVmUwmHnjggXSKCigrK4s77rgjRowYEUOHDo0bbrghxo0bF+Xl5emmfMPtt98ekydPTodrnLfeeitGjx6dDhcc+yAAAAAAWH8ySSWvrpeXl8ett94aDz74YEyfPj3Ky8ujVatW0blz5xg8eHB8//vfj4iIli1bRmlpaUREvPPOO7HTTjul/tKGs2DBgmjatGl2fv78+dGkSZOcNgBUzJw5c6JFixY5sdLS0iguLs6JUb0+//zzuPvuu2PUqFHx6quvptMREbH77rvH4MGDo3///tG4ceN0GoA8tnLlynj88cdj1KhR8de//jVWrlyZbhLNmzePU089NX7+859HmzZt0ulaqbrP9caOHRsDBw5Mh79ls802iwceeCCOOOKIdCo+/vjjaNeuXWyyySbx5ptvfquw5c4774x+/frFiSeeGHfddVdOrqKq+3XngyRJ4qWXXopRo0bFPffcE8uWLUs3iS222CL69esXgwcPjg4dOqTTBS1JkujSpUtMmTIlnaqULbfcMubMmZMTKy4ujrKyspxYZe2yyy4xffr0qFOnZv/us7q3xXzZB8V6eO0AAAAAsCFV6pvHu+66K3beeec477zz4umnn47S0tJYtmxZlJSUxP333x89e/aMoUOHxrx587JFc40bN44dd9wx/acAgAq64447YptttonTTjttjUVz8dXdOc4888zYZpttYtSoUek0AHnqjTfeiHbt2sUPfvCDeOihh1ZbNBcRMXfu3Bg2bFjstNNOMWDAAHegq6Inn3wykiSJJEli8eLFMW3atDjnnHMik8nE0qVLo0+fPvGf//wnvVi0atUqbrjhhvj000/jzDPPzMl9+umncfbZZ0fLli1j5MiROTnW7KOPPoru3btH165d489//vNqi+biqx8ajBkzJvbcc884/PDDY968eekmBevll1+utqK5DWHmzJkxadKkdLig2AcBAAAAwPqzzoVzV111VfTt2zf76+GGDRvGkUceGT/96U/j2GOPzf6q9Fe/+lXcfPPN2eU6duwYmUwmOw8AVNxVV10V/fv3X6ehxxYtWhRnnHFGXHTRRYZvBchzTz31VHTr1i2mT5+eTq1RkiTxpz/9KQ499NBYsGBBOk0lNGjQINq3bx8jRoyIYcOGRXzV3w4ePDjdNCIi+vXrFz/60Y9i3LhxOUMhDho0KObNmxdjxoz51l2gWL233347unbtGs8991w69Z3+8Y9/xP777x8ffPBBOlWQ8vFHFfn4nNcX+yAAAAAAqF7rVDh33333xcUXXxwREfXq1YtLL700Pvnkk3j44YfjpptuigceeCBKSkriqKOOioiISy65JLtsp06dso8BgIr7wx/+kO1/K2PYsGHx29/+Nh0GIE+89tprcfTRR8dnn32WTlXIs88+G8cdd1wsX748naIKzj///Nhvv/0iIuKxxx6LJ554It0kIiJGjx4dzZo1i0GDBkVZWVmMGzcuJkyYEH379o0f/ehH6easxocffhiHHXZYzJo1K52qkH//+9/xgx/8oODvPPf555/HuHHj0uEa76GHHvrWcLDYBwEAAABAdahw4dyMGTNi4MCBERFRp06duPPOO+Oyyy6LLbbYIqddUVFR3H333VFcXJxzYaZjx4457QCAtXvhhRfi7LPPTofX2a9+9av4xz/+kQ4DUMMtWbIkfvjDH8aiRYvSqXXy5JNPxpAhQ9JhqiCTycS1116bnb/00ktz8qtstdVWMXLkyCgtLY0BAwbEWWedlR1CkbVLkiSOP/74+PDDD9OpdTJ9+vQ4+eST0+GC8uqrr65xeNuabOXKlfHyyy+nwwXPPggAAAAAqq7ChXNDhgzJXqw577zzok+fPukmWY0aNYoTTjghJ+aOcwCw7kaMGBErV65Mhytl+PDh6RAANdw999wTs2fPTocr5cYbb6z0XetYvf333z9++MMfRkTEv/71r5g4cWK6SUREnHTSSXHsscfGww8/HGVlZTFmzJho1qxZuhmr8a9//SteeumldLhS/va3v63TcMe1zSuvvJIO5Y18fu7rk30QAAAAAFRNhQrnpkyZEhMmTIiIiOLi4jX+ivWb2rdvn328ySabxO67756TLysri/Hjx8dFF10U3//+96OoqCgymUxkMpmcdgBQqD755JO4//770+FKe+yxx2LmzJnpMAA12KhRo9KhSvv888/j9ttvT4epoqFDh2bPYy+//PJ0Omvo0KEREbHPPvvE0UcfnU6zBtW5DcRXw1YWqsmTJ6dDeSOfn/v6Zh8EAAAAAJWXSZIkSQfTTj/99LjpppsiIuKiiy6K3/3ud+km33LbbbfFKaecEhERe+2117d+HTxixIg499xzc2KrVOApVcq8efOiefPm2fmZM2dGUVFRThsAKqasrOxbRdFvvfVWbLnlljkxKm/48OEV6nPXxaBBg77zghoANcdrr70Whx12WDpcJd/73vfi6aefrnU/WCovL49ddtklOz9//vxo0qRJTpt1MXbs2Bg4cGDEV8PcHnTQQekmOU466aS4++67IyJi4sSJccghh6SbRElJSbRp0yZ69OgRTz31VDpdKQsWLIimTZtm52vbOe6cOXOiY8eO8cUXX6RTlda4ceOYOnVqbLHFFulUrde9e/eYMWNGOpyVyWRyvjOpiObNm3/rLn5t27aNuXPn5sTWZu7cud/5XVCrVq1i6tSp6XCNUaj7oCiA/RAAAAAANUPz5s2jTp0K3R9u3SRrsXLlymTrrbdOIiKJiOTVV19NN1mt6667LrvMKaeckk4nI0aMSFq3bp0ce+yxydChQ5Pf/va32fbry8yZM7P/h8lkMplMJpPJZDKZauc0f/789OngOrntttuyf+vJJ59Mp79l5syZSb169ZKISLp3755OJ0mSJO+9914SEUmPHj3SqUqbP3/+t167yVTZacstt0x/xDaYLbfc8lvPJ5+nQtkHJfZDJpPJZDKZTCaTyWQymUymDTSVlpamv5qqFmstxXvrrbfio48+ioiIoqKi6NChQ7rJapWUlGQfd+rUKScXEXHmmWfGrFmz4oEHHoiLL7449ttvv3QTAAAA2OAGDBgQSZJEkiRrvdNTRMTOO+8cX3zxRSRJEs8880w6DbBO7IMAAAAAYMNYa+Hc+++/n3284447Vvi2d88991z28eoK5+rWrZsOAQAAAAAAAAAAwHq31iq4jz/+OPu4WbNmObk1mTFjRkyZMiUiIjKZTOy5557pJgAAAAAAAAAAALBRZJIkSdLBbxo9enQMGjQoIiL222+/nDvJrcnpp58eN910U0RE7LLLLjFjxox0k2956qmn4uCDD46IiLU8pUqbN29eNG/ePDs/c+bMKCoqymkDQMWUlZXF7rvvnhN76623Ysstt8yJUXk9e/aMadOmpcNVst1228XkyZPTYQBqoN/+9rcxYsSIdLjKnnvuudh5553T4bxWXl4eu+yyS3Z+/vz50aRJk5w2G1tJSUm0adMmevToEU899VQ6XSkLFiyIpk2bZudr2znu3XffHeecc046XGV33nlnHHrooelwrbf99tvHkiVL0uGsTCaT851JRTRv3jymT5+eE2vbtm3MnTs3J7Y2c+fOXet3QbNnz4769eunwzVCoe6DogD2QwAAAADUDM2bN6/wKKnrYq2Fc+PHj48+ffpERESTJk2irKzsO4dZffbZZ+PAAw/MfuHZp0+fuOeee9LNvmVDFM6lv8yriV9kAuSLOXPmRIsWLXJipaWlUVxcnBOj8q666qq4+OKL0+Eq+cUvfhHDhg1LhwGogV599dXYa6+90uEq2WOPPWLq1KmRyWTSqbxWqOd6tf11z5kzJ1q3bh3Lly9PpyqtadOmMXv27GjQoEE6Veu1b98+3nzzzXS4SrbccsuYM2dOTqy4uDjKyspyYlXVunXrmDVrVjpcY9T2bfG7FPJrBwAAACD/rbUU75sXahYsWBAPPfRQTv6bZsyYEccdd1xO4VunTp1y2gAAFXPqqadW6101MplM/OxnP0uHAaihOnXqFF27dk2Hq2Tw4MG1rmiO2qu4uDj7Q77qMnDgwIIsmouI6Ny5czqUN7p06ZIOAQAAAABU2VoL53baaafo2LFjdv6MM86I1157LafNihUr4s4774yuXbvG3Llzo169etmcwjkAqJwWLVrECSeckA5X2uGHHx477bRTOgxADTZ48OB0qNIaNWoUffv2TYehRqvObSAi4uc//3k6VDDyuXAun587AAAAAFBzrbVwLiLiyiuvzD7+5JNPokuXLtGzZ884/fTTo3fv3rH99ttHv379Yv78+TF8+HB3nAOAavK///u/3zlE+ro477zz0iEAargTTjghtttuu3S4Un7+859Ho0aN0mGo0bp27RrdunVLhyulV69escsuu6TDBSOfi8/y+bkDAAAAADVXhQrnjjrqqLjqqquy8ytWrIhJkybFTTfdFPfff3/Mnj07iouL4957741u3brFihUrIiKiVatW0aJFi2/8JQBgXey9997xxz/+MR1eZ8OGDYtDDjkkHQaghttss83i4YcfjsaNG6dT6+Swww6LoUOHpsNQ42Uymbjvvvti++23T6fWSfv27WPs2LHpcEHp2LFjXg5TW7du3dh7773TYQAAAACAKqtQ4VxExJAhQ+LZZ5+N3r17x1ZbbRX169ePVq1axQEHHBAjRoyI6dOnxwknnJAzjKu7zQFA1Z122mlx3XXXpcMVdskll8QFF1yQDgOQJ9q3bx+PPPJING3aNJ2qkO9///tx3333Rf369dMpyAtbbbVVTJw4MXbYYYd0qkLat28fjz76aBQVFaVTBWWLLbaIE088MR2u8Y499tjYcsst02EAAAAAgCqrcOFcRES3bt1i/Pjx8fHHH8fy5cvjo48+iqeffjrOOeecaNasWURETJ06Ndte4RwAVI/zzjsv7rnnnmjevHk6tUZFRUVx8803xxVXXBGZTCadBiCPdOvWLZ577rnYY4890qk1qlOnTpx++unx97//3RCt5L1ddtklXnjhhTj44IPTqe909NFHxzPPPBPbbLNNOlWQBg8enA7VePn4nAEAAACA/LBOhXMV4Y5zALB+9OnTJz788MP485//HPvtt186ndWpU6e4+eabY/bs2XHqqaem0wDkqbZt28bUqVPjn//8Z/Tp0yfq1auXbhLx1d25Lrnkknj//fdjzJgxsckmm6SbQF5q2bJlTJo0KaZMmRKnnXZabL755ukmERHRuHHjOPvss+Ptt9+Ov/zlL9GkSZN0k4LVuXPn2GeffdLhGqtt27Zx0EEHpcMAAAAAANWiWgvnkiSJ119/PTvfsWPHnPw3rVy5MsrKyrJTeXl5NvfN+Pz583OWA4BCttlmm0X//v3jueeeiyeeeCKdjn/84x/xyiuvxKmnnhpbbLFFOg1AnstkMnHggQfGPffcE6+++mo6HXfddVe8//77ccUVV0Tr1q3TaSpg4cKFcfrpp0fz5s2jSZMm0b9//5g3b142f9lll0Umk4lMJhMNGzbMWbaiXnvttezfyGQycd9996Wb8B06deoUN954Y84d71e57bbb4qOPPorrr78+2rZtm04TEWeccUY6VGMNHjy4IO+cvCH2Qw8++GDOfmjy5MnpJgAAAABQ61Vr4dx7770Xn332WcRXv/Decccd002yPvjggyguLs5OvXr1yua+GXfXOgBYvdUN19epU6eCvLgIUIhatmyZDsUhhxziDnNVkCRJHHfccTFhwoS48MIL45JLLonHH388Dj/88Pjiiy9y2t5+++1xyy235MReeumlGDx4cHTu3Dnq16+/xj55++23j9tvvz0uvvjidIp1UFRUlA7FUUcd5ccDa9G3b9/o2rVrOlzj7LHHHvGzn/0sHa71qrof+qYvvvgidt9998hkMnHttdfm5Lp06RK33357nH766TlxAAAAACgk1Vo4981fe3fs2HGNFwkAAACgpnnwwQfj8ccfj7/+9a9x0UUXxfnnnx+PPvpovPLKK/GnP/0pp22/fv3ixz/+cU7skUceiZtvvjkymcx3/pCsadOm0a9fvzj00EPTKVjv6tatG7fddltsuumm6VSNUbdu3Rg7dmxBFgJXdT/0TSNHjowPPvggHY6IiNatW0e/fv1iv/32S6cAAAAAoGBUa+Hca6+9ln28tjvF7bDDDpEkyVqnkpKS9KIAAABQ7f785z9H586dc+7Gteeee8aBBx4Yt99+e07b1Rk0aFCUl5fH5MmTFcVRo7Vt2zZ+85vfpMM1xi9/+cvYa6+90uGCUNX90CqlpaVxxRVXxEUXXZROAQAAAABfqdbCufQd5wAAACBfPPfcc6u9+9K+++4bL7zwQqxYsSKdytGyZcto0KBBOgw10nnnnRf7779/OrxO5s6dG8XFxTnT3Llz083WyZ577hmXXHJJOlwwqrofWmXIkCHxve99L/r165dOAQAAAABfqdbCuQcffDB7p7gBAwak0wAAAFAjLVy4MEpLS6O4uDjKyspyphYtWsTy5cvjww8/TC8Geatu3brx0EMPxW677ZZOVViSJN/aXpIkSTersDZt2sTDDz9ckEO0RjXuh1566aX405/+FCNGjIhMJpNOAwAAAABfqdbCOQAAAMhHn332WUREXHrppd+6g9b5558fERHl5eWppSC/bbnlljFx4sTYeeed06kNbtttt42JEyfGNttsk04VjOrYDyVJEmeddVb8+Mc/Xu2d6wAAAACArymcAwAAoOCtuivTT3/605g4cWLOtKpgxZ2bqI222WabeOaZZ6JDhw7p1Aaz6667xrPPPhs77bRTOlVQqmM/NHbs2Jg2bVpcffXV6RQAAAAAkKJwDgAAgILXuHHjiK/uenXIIYfkTDvssENOG6htttpqq3j66afj5JNPTqfWuz59+sS//vWv2G677dKpglPV/dBnn30Wv/zlL+MXv/hFbLvttuk0AAAAAJCicA4AAICC17Bhw2jRokV8/PHH6VTMmjUrNtlkk2jdunU6BbVGUVFRjB07Nv72t7/F1ltvnU5Xu+Li4hg/fnzcc889seWWW6bTBamq+6Frr702li9fHj/+8Y+jpKQkSkpK4sMPP4yIiPnz50dJSUksX748vRgAAAAAFCyFcwAAABAR3bp1i8mTJ6fD8fzzz0fXrl2jbt266RTUOkcddVS88cYbccopp6yXz3ydOnXipJNOijfffDN69+6dThe8quyHPvjgg5g/f360a9cu2rRpE23atIkDDjggIiJ++9vfRps2beKtt95KLwYAAAAABUvhHAAAAERE//79Y/LkyfHMM89kY5MnT45nn302+vfvn9MWarOmTZvGLbfcEu+//35ceuml0apVq3STdVZcXBwXX3xxvPvuu3HnnXdGcXFxuglV3A+dffbZMWHChJxpzJgxERExYMCAmDBhQrRp0ya9GAAAAAAULIVzAAAAEBG9evWKnj17Rq9eveJ3v/tdXHvttXHUUUdFly5d4uSTT043/5b3338/rrzyyrjyyiuzd4xaNX/77benm0ONt80228Rll10W77//fowfPz769u0bbdu2jUwmk266Wrvsskv85Cc/iTvvvDNmzZoVQ4cOje233z7djG+oyn5or732il69euVMhx12WEREtGvXLnr16hVFRUXpxQAAAACgYCmcAwAAgIjIZDIxYcKEOP7442PYsGFx5ZVXxmGHHRaPPvpo1K9fP938W95777245JJL4pJLLokXX3wxIiI7f8stt6SbQ96oX79+9O7dO+644454++23o7y8PJ5++um44YYb4vLLL49f/vKXMWTIkLj88stjxIgR8eSTT8aCBQtixowZcffdd8dJJ50Um266afrPshpV3Q8BAAAAABWncA4AAAC+0qhRo7jxxhtj3rx5sWDBgrj99tujWbNm6WZRVlYWc+fOzYkddNBBkSTJaqennnoq227FihVRVlYW5eXlOctDvmjUqFEccMABcdZZZ8Wvf/3r+O1vfxtXXXVV/PrXv45zzjknDjroIHc2q4Kq7IfSdthhh0iSJC644IKc+PLly6OsrCwWLVqUEwcAAACAQqJwDgAAANZRcXFxpYecnDZtWhQXF0evXr3SKYAKq8p+6JFHHoni4uI466yz0ikAAAAAKBiZJEmSdLC2WrBgQTRt2jQ7P3/+/GjSpElOGwAqZs6cOdGiRYucWGlpaRQXF+fEWH+8BwCFTT/wtQ15rvfuu+/Gu+++GxER9erVi4MOOijdZK0WLVoUL7zwQna+Q4cO33ovK2JDvu6ayDZATbGht8Xq2A/NmTMnpk6dmp3fd999o1GjRjltKmJDv3YAAAAAqE4K53yZB1ApLlRufN4DgMKmH/haoZ7rFerrXsU2QE1RyNtiIb92AAAAAPKfoVoBAAAAAAAAAAAoKO4451ewAJXiDh8bn/cAoLDpB76WPtcrKSmJoqKinDa1UXl5eeywww7Z+UI7x7UNUFMU6j4o7IcAAAAAyHMK53yZB1ApLlRufN4DgMKmH/ha+lyvUBXaOa5tgJrCPuhrhbYfAgAAACC/GaoVAAAAAAAAAACAgqJwDgAAAAAAAAAAgIJiqFbDRwBUiqGxNj7vAUBh0w98LUmSKC8vT4cLTlFRUWQymXS41rINUFPYB32t0PZDAAAAAOQ3hXMK5wAqxYXKjc97AFDY9AMUOtsAAAAAAABVYahWAAAAAAAAAAAACorCOQAAAAAAAAAAAAqKwjkAAAAAAAAAAAAKisI5AAAAAAAAAAAACorCOQAAAAAAAAAAAAqKwjkAAAAAAAAAAAAKisI5AAAAAAAAAAAACorCOQAAAAAAAAAAAAqKwjkAAAAAAAAAAAAKisI5AAAAAAAAAAAACorCOQAAAAAAAAAAAAqKwjkAAAAAAAAAAAAKisI5AAAAAAAAAAAACorCOQAAAAAAAAAAAAqKwjkAAAAAAAAAAAAKisI5AAAAAAAAAAAACorCOQAAAAAAAAAAAAqKwjkAAAAAAAAAAAAKisI5AAAAAAAAAAAACorCOQAAAAAAAAAAAAqKwjkAAAAAAAAAAAAKisI5AAAAAAAAAAAACorCOQAAAAAAAAAAAAqKwjkAAAAAAAAAAAAKisI5AAAAAAAAAAAACorCOQAAAAAAAAAAAAqKwjkAAAAAAAAAAAAKisI5AAAAAAAAAAAACkomSZIkHaytFixYEE2bNs3Oz58/P5o0aZLTZmNJkiTKy8vTYWADKCoqikwmkw6zFnPmzIkWLVrkxEpLS6O4uDgnxvrjPahe+mLYePTFlaMf+Jp9+H8V2rZkG/iabeC/Cm0bAAAAAACqRuFcDSmcSz83YMOpSfuCfOJC5cbnPahe+mLYePTFlaMf+Jp9+H8V2rZkG/iabeC/Cm0bAAAAAACqxlCtAAAAAAAAAAAAFBSFcwAAAAAAAAAAABQUQ7XWkCE80s+tpKQkioqKctoA1aO8vDx22GGH7HxN2hfkE0NjbXzeg+qlL4YNR19cPfQDXyvUfXihb0u2ga/ZBv6r0LYBAAAAAKBqFM7VkC9Ua/Jzg9rG9lY9XKjc+LwH1cu+ATYc21v10A98rVA/U4X6ulexDXytUD8Lhfq6AQAAAIDqYahWAAAAAAAAAAAACorCOQAAAAAAAAAAAAqKwjkAAAAAAAAAAAAKSiZJkiQdrK0WLFgQTZs2zc7Pnz8/mjRpktNmY6nJzw1qG9tb5SxdujRef/31mDx5crzyyivx4osvxptvvpnTpqioKHbeeefo3Llzdtpjjz1ik002yWlH5Xz88cfxyiuvZN+DKVOmxEcffZTTZquttopOnTrlvAetW7eOTCaT045vs2+ADcf2VjkLFy6MV199NV555ZV45ZVX4qWXXoqZM2fmtGnWrFm0bds2OnfuHF26dInOnTtH27Zto27dujntaptC/UwV2uteunRpTJ06NbsNVOR4tEuXLtG+fftafzxaaJ+FVQr1dQMAAAAA1UPhXA35QrUmPzeobWxv62bKlCnxxz/+Me68885YsmRJOr1WjRo1ipNPPjkGDRoUu+++ezrNWixZsiTuvffeGDVqVLz00kvpdIXsueeeMXjw4DjppJOiYcOG6TRfsW+ADcf2VnFJksRTTz0Vo0aNigkTJsSKFSvSTdaqRYsWcdppp8Xpp58e2223XTpdKxTqZ6pQXveUKVNi1KhRcddddzkeXYNC+SykFerrBgAAAACqh6FaYR2NHTs2MpnMt6Y6depE48aNY/fdd4+f/vSn8eKLL6YXhbyxYsWKuP3222O//faLzp07x80331ypi5Tx1d1xfv/730e7du3i4IMPjvvuuy9WrlyZbkbKBx98EL/4xS+idevWMWDAgEoXzUVETJ06NX72s5/FNttsE2effXa888476SaQV/TFFILFixfHyJEjY/fdd4/vf//7cd9991WqaC4iorS0NIYOHRpt2rSJXr16xaRJk9JNoMb58ssv489//nN07do1OnfuHLfccovjUQAAAAAAqpXCOagmSZLEwoUL4+23345bbrklunbtGv/7v/+bbgY13ttvvx3dunWL//mf/4kXXnghna6Sp556Kk444YQ45JBD4r333kuniYiVK1fGqFGjYvfdd49rr7025s2bl25SaZ999lmMHDky2rdvH9dcc02lCzCgptIXU1s8++yzseeee8bZZ58d06dPT6crbeXKlfHQQw9Fz549o2/fvjF37tx0E76ypgLdTCYTjRo1il133TX69u0bf//739OLUg3eeuut6NatW5x88snVXgS96nj00EMPjZKSknSar9gGAAAAAIBCoHAOquCRRx6JhQsXxsKFC+Ozzz6Ld955J66//vpo3LhxRERcf/31MXz48PRiUCOtWLEihg0bFp06dar2C5RpTz75ZOyxxx7xxz/+0d0+vuG9996LQw45JM4444z4/PPP0+lqs2zZsrjwwgujW7du1VqQARuDvpjaZPHixXHuuefGgQceuN7vDnrXXXdFu3bt4sEHH0ynWItFixbFzJkz46677oojjzwyjj/++Fi+fHm6GZXw5ZdfxtVXXx2dOnWq0t12K2LSpEnRvn17x6OVYBsAAAAAAGoLhXNQBQ0aNIiGDRtGw4YNo1GjRrHTTjvF2WefHY899ljUqfPfzWvo0KHx5ZdfpheFGqW0tDQOOOCAuOiii2LZsmXp9Hrx+eefx+DBg+MHP/hBlJeXp9MF55577ok99tgjnnzyyXRqvXnxxRejY8eOcfPNN6dTkDf0xdQW06dPjz333DNGjBgRSZKk0+vFp59+Gscee2wMHDgwvvjii3Sar3yzQLe8vDymTp0aw4cPj6KiooiIeOCBB2LIkCHpxVhHn376aXTv3j2GDBmywYqwVh2PHn744Y5Hv4NtAAAAAACorRTOwXqw7777Rs+ePSMiYt68efHKK6+km0CN8cEHH8QBBxwQzz//fDq1QTz++ONx8MEHR2lpaTpVMEaPHh0nnnjier3L3JosW7YsTjvttLj66qvTKchr+mLyyZQpU+KAAw5Y73eZW5OxY8dGr169YvHixekUqQLdxo0bR4cOHeLcc8+NRx99NDKZTEREjBo1KhYtWpRelAp6//3344ADDljvdz1ek4kTJ8bBBx8cc+bMSaewDQAAAAAAtZjCOVhPOnbsmH38wQcf5OSgppg9e3b06NEjZsyYkU5tUK+++mp8//vfj3nz5qVTtd7o0aNj0KBBG+zuQmsyZMgQxXPUOvpi8sHUqVPj+9//fpSVlaVTG9QjjzwSvXr12mB3nq0Nunbtmi3QXbZs2XofWrS2mj17dhx00EExc+bMdGqDKuTj0cqyDQAAAAAA+U7hHKwnq355HxEbvSAGVmfevHlx2GGHRUlJSTq1Ubz55ptxxBFHbJS7rm0s99xzTwwePDgd3miGDBkSN954YzoMeUtfTE33zjvvxGGHHVZjhoicOHFi9O3bN1asWJFOsQa77bZb9nEh3z23subOnRuHHnpojTkefeONN+LII48sqOPRqrINAAAAAAD5TOEcrCfTpk3LPm7dunVODmqCQYMGxVtvvZUOV1gmk4ktt9wyZ/pmkUplvPTSS3HhhRemw7XSf/7znzjllFOqVMyzPt6DM888M15//fV0GPKSvpia7Msvv4wTTzyxSoUm66MfuP/++2PkyJHpMGvwzX68adOmOTnWbtCgQfH222+nwxW2PraBF198MS666KJ0mDWwDQAAAAAA+UzhHKwHr732Wjz22GMREVFUVBR77713uglsVPfdd1/ce++96fA6ad68ecyZMydnat68ebrZOhs1alQ8+eST6XCtsnLlyjj11FNj8eLF6dQ6WR/vwRdffBEDBw6ML774Ip2CvKIvpqa79tprY/LkyenwOlkf/UBExMUXX7zRh83MF6uKvjKZTOy+++7pNN9h/PjxMX78+HR4nayvbeAPf/hDPPXUU+kwq2EbAAAAAADymcI5qCZJkkRpaWnceuutceihh2aHuLrwwgujfv366eaw0cyZM6dGDQ+6OqecckosWrQoHa41Ro0aFf/85z/T4RpjypQpcfXVV6fDUOPpi8kXb775Zlx66aXpcI2xZMmSOOWUU2LlypXpFN/w/PPPx6RJkyIi4thjj41tt9023YQ1mDNnTpxxxhnpcI1S249Hq4NtAAAAAADIdwrnoAoOPvjgyGQykclkok6dOtGyZcs49dRTo6ysLOKriy1DhgxJLwYb1TnnnBNz5sxJh2uUkpKSuPjii9PhWqGkpCQvhv+64oor4s0330yHocbRF5NvVq5cGQMHDozly5enUzXKs88+G3/4wx/S4YK0ZMmSWLRoUSxatCg+++yzmDZtWowYMSKOOOKISJIkOnbsGDfeeGN6Mb7D2WefXeOPR9977734f//v/6XDBck2AAAAAADUVpUunCsvL4//+7//ix49ekTLli1js802izZt2kTv3r2zvziOiGjZsmX2YuZ//vOfnL8BtU2dOnVi2223jR//+McxceLEuOWWW6JOnUpvZlDt/vOf/8S4cePS4RppzJgx2cKX2uSGG26o8hCtG8IXX3wR1113XToMNZ6+mJruiSeeiJdffjkdrpGuvvrq+PLLL9PhgnPkkUdGo0aNolGjRlFUVBQdOnSIc889N8rLy+PXv/51vPjii6sdHvSYY46JTCYTEyZMSKeyevXqFZlMJh544IF0qtZyPJp/bAMAAAAAQG1VqauId911V+y8885x3nnnxdNPPx2lpaWxbNmyKCkpifvvvz969uwZQ4cOjXnz5kVpaWlERDRu3Dh23HHH9J+CvPbII4/EwoULY+HChbFo0aL48ssv44MPPohx48bFIYcckm4OG92YMWMiSZJ0uEZavnx53HrrrelwXlu8eHHcdttt6XCNdffdd8e8efPSYahR9MXkm1GjRqVDNdbs2bPjr3/9azrMNwwbNiyeeOKJdDjiq+Oupk2bxqBBg2Lu3LnpdNx5553x0EMPxYknnhjHHXdcOl1rjR49Oh2qsZYtW5ZXx24bg20AAAAAAMhn61w4d9VVV0Xfvn2zv7pu2LBhHHnkkfHTn/40jj322GjSpElERPzqV7+Km2++Obtcx44dI5PJZOehNmjQoEE0bNgwGjZsGFtssYXPODXakiVL4pZbbkmHa7TRo0fHihUr0uG8NW7cuFiwYEE6XGMtXbo0xo4dmw5DjaIvJp/MmjUr/vKXv6TDNVo+FfqtL08++WQkSRJJksTixYtj2rRpcc4550Qmk4mlS5dGnz59Vnt39VatWsUNN9wQn376aZx55pk5uU8//TTOPvvsaNmyZYwcOTInV5stWbIk734Y8cc//jFWrlyZDhcU2wAAAAAAUFutU+HcfffdFxdffHFERNSrVy8uvfTS+OSTT+Lhhx+Om266KR544IEoKSmJo446KiIiLrnkkuyynTp1yj4GYMO799578+7uYe+99148+uij6XBeSpIk/vCHP6TDNd6oUaMK/mIxQHUZM2ZM3u1TH3/88fj3v/+dDhesBg0aRPv27WPEiBExbNiwiIhYtGhRDB48ON00IiL69esXP/rRj2LcuHE5Q1EOGjQo5s2bF2PGjFntEJe11T333ON4NM/ZBgAAAACA2qTChXMzZsyIgQMHRkREnTp14s4774zLLrsstthii5x2RUVFcffdd0dxcXEsX748G+/YsWNOOwA2rAkTJqRDeSFfn3farFmzYsqUKelwjfef//wn3njjjXQYgErI1z7twQcfTIeIiPPPPz/222+/iIh47LHH1jhc5ejRo6NZs2YxaNCgKCsri3HjxsWECROib9++8aMf/SjdvFbL120gX5/3+mYbAAAAAADyXYUL54YMGRKLFi2KiIjzzjsv+vTpk26S1ahRozjhhBNyYu44B7BxvfLKK+lQXsjX552Wz68jn587QE3x+eefx/Tp09PhvKAfWL1MJhPXXnttdv7SSy/Nya+y1VZbxciRI6O0tDQGDBgQZ511VnYIy0KTr5+lfH3e65ttAAAAAADIdxUqnJsyZUr2F9bFxcVr/DL0m9q3b599vMkmm8Tuu++ek3///fdj+PDh8cMf/jC23Xbb2GSTTaJx48bRuXPnuOyyy/Ju+BaAmuzTTz+NDz/8MB3OC2+88UYsXbo0Hc47+XzBNZ+fO0BN8dprr+XdMK2r6AfWbP/9948f/vCHERHxr3/9KyZOnJhuEhERJ510Uhx77LHx8MMPR1lZWYwZMyaaNWuWblarffLJJzF79ux0OC/UluPR9cE2AAAAAADkswoVzo0ePTr7+JRTTomGDRvm5Fdns802yz5u37591K9fPztfUlISbdq0ifPPPz8efvjh+PDDD2PzzTePzz//PKZMmRKXX355tG/fPl577bXsMgBUXj5f8P7yyy/j9ddfT4fzzuTJk9OhvJHPzx2gpsjnfem7777rh03fYejQoZHJZCIi4vLLL0+ns4YOHRoREfvss08cffTR6XStl8/Ho1988UVMmzYtHeYrtgEAAAAAIF9lkiRJ0sFvSpIkWrduHR999FFERLz66qvRsWPHdLNvGT58eJx//vkRXxXb3XLLLdncO++8E7vuumscffTRMWDAgPj+978fRUVFsXTp0vjLX/4SZ511VpSWlsa2224b06dPj8033/wbf7ny5s2bF82bN8/Oz5w5M4qKinLabCzl5eWxyy67ZOfnz58fTZo0yWlDzTB27NgYOHBgREQ8+eSTcdBBB6WbUMMtWLAgmjZtmp2vSfuC9WXEiBHx29/+Nh3OkclkcvaRa9O8efNvDTnXtm3bmDt3bk5sbebOnRtr6Yri2muvjf/5n/9Jh/NKu3btYs6cOelw1rqu/9iA78Fmm20WJSUlUadOhert85a+OH/oi/NfIfbFZ599dowbNy4dzrGufcGG6gciIh544IHo3r17OlxjVPc+fF33MyeddFLcfffdERExceLEOOSQQ9JNsj8g69GjRzz11FPpdKXk07b0f//3f3HVVVelwzlq8jZw3XXXRf/+/dPhGsM28F81eRsAAAAAACqvefPm6+V69VoL5958883ssKtFRUUxb968Cj2Rs88+O0aOHBkRESNHjowzzzwzm1uwYEHMmjUr9thjj28s8bWnn346evToERERt912WwwYMCDdpFLeeeednC+Sa7KqfskNrFn64gr/teWWW35nYdf6UlxcHGVlZelwwdlY6z+8B2ukL4b1R1+8ehurL6iN/UBV9+HrWjT0zjvvxG677RZffvlldO/ePZ555pl0kw1SNJTvbAPVxzYAAAAAANQmpaWlUVxcnA5X2Vor4N5///3s4x133LFCRXMREc8991z2cadOnXJyTZo0WWPRXETEgQceGDvssENEREyZMiWdBgAAgPVmwIABkSRJJEmy1oKhiIidd945vvjii0iSZLUFQ5BvbAMAAAAAQCFYaxXcxx9/nH3crFmznNyazJgxI1vwlslkYs8990w3WatVw7OsWLEinQIAAAAAAAAAAIBKW2vh3BdffJF9vHjx4pzcmlx77bWxagTYnXfeORo2bJhu8p3mzZsXb7zxRkREdphYAAAAAAAAAAAAqA6ZZFWF2xqMHz8++vTpE/HVEKtlZWVRt27ddLOsZ599Ng488MBs4VyfPn3innvuSTf7ThdccEFcd9110bBhw3j33XerbYzaFStWxHvvvZedb9y4cWQymZw2G0t5eXnssssu2fn58+dHkyZNctoA1WPBggXRtGnT7PzMmTOjqKgop01tc+2118awYcPS4RyZTCZ7t8+KaN68eUyfPj0n1rZt25g7d25ObG3mzp2b7TPW5He/+12ccsop6XBeadu2bcybNy8dzlrX9R8b8D2oX79+zJo1q8LDtecrfTFsOIXYFw8ePDjuu+++dDjHuvYFG6ofiIi49957KzRc48aSD/vwkpKSaNOmTfTo0SOeeuqpdLpS8mlbuuaaa+Kaa65Jh3PU5G3g6quvjoEDB6bDNYZt4L9q8jYAAAAAAFRe8+bN18v16rUWzv3nP/+JnXfeOTt///33x3HHHZfTZpUZM2ZE9+7dY86cOdnYVVddFUOGDMlp910mTZoUhx12WKxYsSKGDRsWv/jFL9JNaqX0l7018UtuqC0KcXt76KGHolevXulwlWy55ZY5+/uIiOLi4igrK8uJVYdnnnkmunfvng7nlZ49e8akSZPS4SrZUO9Bp06dskOw12aFuG+AjaUQt7drr7222s9tNlQ/EBHxySefRMuWLdPhGqMQP1ORZ6/7wQcfjGOPPTYdrpINuQ08++yz0a1bt3S4xsinz0J1KtTXDQAAAABUj7WW4u20007RsWPH7PwZZ5wRr732Wk6bFStWxJ133hldu3aNuXPnRr169bK5Tp065bT9LjNnzoyf/OQnsWLFijj88MPjggsuSDcBoBI6d+6cDuWNOnXq5PRD+Sqf34MuXbqkQwCso3zuB1q3bl2ji+bID/m8DdSW41EAAAAAAHKttXAuIuLKK6/MPv7kk0+iS5cu0bNnzzj99NOjd+/esf3220e/fv1i/vz5MXz48JwhTipaOPfhhx/GYYcdFnPmzIm99947xo8fX2OGUQXId9tss020aNEiHc4Lbdu2jYYNG6bDeSefLxbn83MHqCn22muvdChv6AeoDq1bt47i4uJ0OC/stttuscUWW6TDAAAAAADkuQoVzh111FFx1VVXZedXrFgRkyZNiptuuinuv//+mD17dhQXF8e9994b3bp1ixUrVkRERKtWrSpUqFFaWhqHHnpolJSURLt27eLvf/97rSiSAKgpMplM3l70ztfnnZbPryOfnztATVFUVBQ777xzOpwX9ANUB8ejAAAAAADUNBUqnIuIGDJkSDz77LPRu3fv2GqrraJ+/frRqlWrOOCAA2LEiBExffr0OOGEE3KGca3I3eYWLFgQP/jBD2L69Omx4447xsSJE6N58+bpZgBU0VFHHZUO5YV8fd5pO+20U3zve99Lh2u8rbfeOvbcc890GIBKyNc+LV+fNzVPvn6W8vV5AwAAAADw3SpcOBcR0a1btxg/fnx8/PHHsXz58vjoo4/i6aefjnPOOSeaNWsWERFTp07Ntl9b4dznn38eRx55ZLz22muxzTbbxBNPPBGtWrVKNwOgGvTv3z/vhphq2bJlHHvsselwXspkMjFo0KB0uMY7/fTTo379+ukwAJWQj/3Avvvum9fDzFKz5OPx6FZbbRW9evVKhwEAAAAAqAXWqXCuIip6x7lly5ZFr1694vnnn48WLVrEE088ETvssEO6GQDVpHHjxtG/f/90uEY77bTTYpNNNkmH89bJJ58cDRo0SIdrrLp168Zpp52WDgNQSd/73veiZ8+e6XCNNnjw4HQIKq2oqCj69euXDtdote14FAAAAACAr1Vr4VySJPH6669n5zt27JiTX2XFihVx4oknxuOPPx5NmzaNiRMn5uXwdQD5Jp/udFOnTp04/fTT0+G81qRJk+jbt286XGMde+yxsfXWW6fDAFRBPhWiNWvWLPr06ZMOQ5Xk0/Fo3bp1a93xKAAAAAAAX6vWwrn33nsvPvvss4iv7my04447pptERMS//vWvmDBhQkRELF26NA477LDYaqutVjsdd9xx6cWpgYYNGxZt27aNlStXplN5Y8CAAZHJZCKTycT/b+/Og6sqzziO/24SCWExbImAZhGBQYMBwxKgKlREghQKSEGmocEBqZVFkU5AEIMadgchWKXOlERTlUqsCNZSWUfAsBcCRaAOAUGWBgghDAQknP4BueS+JOTc5Ga938/MmeE+73sCeXjf8xxyXs7btm1bs9mWBQsWOL+Gw+HQmTNnnG2LFy9WaGiorly54nKOXeT4hvLMsTeIjIxUTEyMGa6Shg0bppCQEDNc7b388svy8/Mzw1WOw+HQxIkTzTCqKGrEDeVZI8jxDeWZY2/Rv39/tW7d2gxXSePHj1ft2rXNcI2Xm5ur0aNHq3HjxmrQoIGGDx+uc+fOOdunT5/unAP16tVzOdeu3bt3u8yltLQ0s0uN1a5dO/Xu3dsMV0nDhg3TfffdZ4ZrvIqYA8uXL3eZAzt27DC7AAAAAAAAAEC58+jCuT179jh/3b59ezkcDpf2AoUfOF6+fFmnT58u9ij8w1ncsn37do0dO1YRERGqW7euQkNDNWTIEB06dMjsWqQrV65o0qRJat68uQICAhQdHa3Vq1eb3Zw2bNigESNGmGFJ0oULFzRnzhxNmjRJPj4eHVIVrkmTJkpNTdXs2bPNJls5i4mJUWpqqgYOHOgS182H1VevXtWf//xns0kix7bHdFlyjBsWL15c6gdcFSUoKEjvvPOOGa4RIiIiNHXqVDNc5YwfP15dunQxw7jJ7jWrOHZqSmHeXiMuXryohIQExcTEqFGjRnI4HEpJSXHpozLWCG/Psd0xXZYc4wY/Pz8lJycX+2+lqqJt27aaPHmyGa7xLMvSoEGD9MUXXyg+Pl7Tpk3TmjVrFBMTo59//tmlb2pqqv7yl784P1+/fl0pKSnq37+/QkJCVLduXbVt21aJiYnKy8tzOTcsLEypqamaMmWKS9xbVIf70eDg4Bp7P3onZZkDMhZpFz7atGnj0q9jx45KTU3ljX4AAAAAAAAAKpVHn/zt3r3b+etHHnnEpa2wHj16yLIsW8eGDRvM0yFpzpw5+vzzz9WzZ08tXLhQo0eP1rfffquoqCjt27fP7H6bESNGaP78+frtb3+rhQsXytfXV08//bQ2bdrk7JOTk6MtW7a4nCdJ58+f19atW52flyxZomvXrmnYsGEu/aqjunXrKjY2Vr/61a/MJls5a9OmjWJjYxUZGelyriTVrl1bcXFxmj9/vizLksixS9zumHY3x7hdWFiY3n77bTNcpbz//vsKCgoywzXGlClT1K5dOzNcZTzwwAOaOXOmGUYhdq9ZxbFTU6gRt5w5c0Zvvvmmvv/++zvOHXdrBDm+xe6YdjfHKFq3bt30yiuvmOEqw9fXVykpKfL39zebarzly5drzZo1WrlypSZNmqSJEydq1apV2rlzpz788EOXvrGxsRo6dKjz86VLl/Tcc88pKytLL7zwghYsWKDOnTsrISFBffr0cZkXDRs2VGxsrHr16uWMeZPw8HDNmzfPDFcp77//vpo0aWKGa7yyzIEC/v7+Sk1NdTnMv+/77rtPsbGx6tq1q0scAAAAAAAAACqSRxfOmW+cQ/l55ZVXdPToUSUlJWnUqFF67bXXtHHjRl27du22N4iYtm3bpqVLl2rWrFmaN2+eRo8erXXr1iksLEzx8fHOfkePHlVcXJxeeuklXbx4UZL0+eefKyoqSunp6c5+ycnJ6t+/f43exsluzkoyZMgQHT16VOvXr5fIsYuyjOnCzByjaKNHj1bPnj3NcJUwZMgQPfPMM2a4RqlVq5ZSUlKq5JatDodDycnJqlOnjtmEQspyzbJbU6gRtzRr1kwnT57U0aNHb3vw7g6zRpDjW8oypgszc4zivfXWW1V2y9bJkyerQ4cOZtgrfPTRR+rQoYPLW1fbtWunxx9/XKmpqS59TbVq1dLmzZuVnp6uqVOn6vnnn9eSJUuUkJCgDRs2aO3ateYpXm306NF64oknzHCVMHToUA0aNMgMe4WyzIECfn5+io2NdTn69etndgMAAAAAAACASufRhXPLly93vimuuK2u4BndunVTrVq1XGKtWrVSRESEvv/+e5e4KS0tTb6+vi5botSuXVsjR45Uenq6jh07JkmKjIzU3r17FRISot///vdKS0vTZ599pvXr1+vll1+WJGVmZiojI0NPPvmk82sVePHFF2/bnsU8jhw5Yp7mUZcvX1abNm3Upk0bXb582Rk/d+6cmjVrpm7duik/P9/lnKLYzVlJOnTooEaNGunLL7+UyLGLsozpwswco2iOm4uj7r33XrPJtrNnzyooKMjlOHv2rNnNLa1atdKf/vQnM1wjtW/fvsxv/iuPv4OEhAQ99thjZhiGslyz7NYUasQt/v7+atq0qRl2m1kjyPEtZRnThZk5RvECAgL0ySeflGm7yvKoA4899pimTZtmhr3Gd999V+QbsKKjo7Vly5Y7zqdatWqpW7duZti5tbE7c8kb+Pj4KDk5Wc2bNzebbCuPOdC6dWuvuR8tSlnmQGH5+fm6cOGCGQYAAAAAAACAKsWjC+dQuSzL0unTp0vcTubf//63Wrdurbvvvtsl3rlzZ8nYctfhcMjHx0cOh8P5ueDXuvlDdUmKiopyxgo888wz6ty5s5o2beqyRUuLFi300EMP6ZNPPlF4eLh5mkcFBAToww8/1A8//KCpU6c642PGjFFOTo5SUlLk6+vrck5R3MlZSaKiorR582bnZ3JcPLtj2mTmGEULCQnR6tWr1bhxY7PJFsuydObMGZejLFvzhYSEaM2aNW7/fVdnL730UpkWJ3j672DcuHF6/fXXzTBssnvNcqemUCM8z6wR5Lh4dse0ycwxitehQwetWLGi1FuieroOREVFaeXKlaX+81R3ubm5+t///qegoKDb8hocHKyrV6/q+PHj5mklOnXqlCS5PZe8QWhoaJW7Hy3Ln6e689QcuHTpku6++24FBgaqUaNGGjNmjPPNrgAAAAAAAABQlbBwrgb5+OOP9dNPP2no0KFmk4uTJ0+qWbNmZtgZO3HihCRp7969ioyM1JEjR7R48WINHjxYgwcPVo8ePbRw4UJJ0oEDByRJ999/f6GvdEPPnj119epVPfLIIy5btJw7d06PPvqohg0bZp5SLqKjoxUfH6+FCxdq48aNSktLc26RZ3d7LLs5s6NFixbav3+/RI5LZHdMmwrnGHf24IMPat26dbrnnnvMpgoVHh6udevWKTQ01Gyq8d544w2XxS6VZezYsVqwYIHLgiG4x+41y25NoUaUD+qwfXbHtIk67J5f/vKXWrFiRaVvkd2pUyd98803CgwMNJu8RsHbsRISEm57i9nEiRMlSTk5OcZZJZs7d67uvvtu9enTx2yCpIceekhr165VcHCw2VShwsPDtX79eq+8Hy3giTnQrFkzxcfHKzk5WZ9++qn69++v9957TzExMbp27ZrZHQAAAAAAAAAqFQvnaogDBw5ozJgx6tq1q+Li4sxmF5cvXy7yLRK1a9d2tuvm//5PTk5WUlKScwupwYMHa9euXerSpYt0c2scPz+/IreYys/P14EDB9S2bVtn7NixYzp//rxLrCjXr19XXl6ercPOGwWmT5+uiIgIxcXF6cUXX1T37t01fvx4s1ux7ObMjoYNG+ry5cu6dOkSOb4Dd8a0qXCOUbLIyEht3LhRDzzwgNlUIR5++GFt2rRJLVu2NJu8gsPhUGJioubPny8fn8opywkJCUpKSqq0378mcOeaZbemUCPKB3XYHnfGtIk67L6nnnpKq1evrrQ3kvXq1Utr16712rdsFShYPD5q1CitXr3a5ShYNOTuAvOZM2dqzZo1mj17tho0aGA246Z27dpp06ZNlXY/GhkZWam/f1XhiTkwa9YszZ49W0OGDNGzzz6rlJQUzZgxQ5s3b1ZaWprZHQAAAAAAAAAqFU/Ia4BTp06pb9++CgwMVFpaWonbcQUEBOjKlStmWHl5ec52SQoMDHQ+NC6sQYMGio6ONsO3+eGHH5SXl6eIiAhnbO/evZJU4sPkb7/9VgEBAbaOgwcPmqffplatWlqyZIkyMzOVm5ur5OTkEn/gX5jdnNlR8PDb4XCQ42K4O6ZNhXMMe1q1aqU9e/Zo7NixZlO58fX11ZQpU7R9+3bde++9ZrPXmTBhgrZs2aKHHnrIbCo3LVq00IYNGzR9+nTmSxm4e82yW1OoEeWDOlwyd8e0iTpcOt26ddN//vMfPfPMM2ZTualTp46SkpK0atUq1a9f32z2OgVbaIeEhOjJJ590OQq2XTa32b6Tv/3tb3rttdc0cuRI/eEPfzCbYWjVqpV2795dKfej27Zt4360HOZAgQkTJsjHx0dr1qwxmwAAAAAAAACgUrFwrprLyclRnz59dP78ea1atUrNmzc3u9ymWbNmOnnypBl2xor6Gj169FBKSooZVuPGjXXt2jXl5uaaTdq3b59kPDjOyMi4LVaUNm3aKDk52dZR1HZ3RfnXv/4l3VyY8N///tdsvqPS5Kw42dnZqlOnjgKMxXbenuMCpRnTpuJyjDurW7euFi1apA0bNqhFixZms0dFRERoy5YtmjFjRpFv3vJWnTp10s6dOzV58uRyf/vbuHHjlJGRoe7du5tNcENprlmlqSnUCM8prkaQ4xtKM6ZNxeUYJQsODtayZcu0dOnScn/72+OPP66MjAyNGzeu3GtOdVGvXj0FBwcXeY0+duyYatWqpfvuu89sKtLq1av1u9/9Tn379tXixYvNZhSjXr16WrRokdavX1/kFtmexP3o7Tw5BwoLCAhQ48aNde7cObMJAAAAAAAAACoVT0iqsby8PPXr10+HDh3SV199ZfstRe3bt9ehQ4d04cIFl/jWrVud7Xa1adNGkpSZmWk2ad++ffLx8dGDDz7ojO3du1fBwcEKCgpy6Wtq2rSpRowYYesIDAw0T79NRkaG3nzzTT333HN65JFHNGrUKOXk5JjdiuXJnGVmZrrkpCTekmOVYUyb3M0xXHXv3l0ZGRmaOXOmQkNDzeYyadmypebPn6+dO3eqY8eOZjNubtc5a9Ysbd++Xc8++6zuuusus0up+fj4aODAgdq8ebOSkpJUt25dswvcUNprlidrijfVCE9xt0Z4U45LO6ZN7uYYrhwOh4YOHar9+/crPj7e4wvooqKilJKSovXr13v9tpRF+cUvfqEdO3aYYaWnp6tLly623sC4detWDRw4UB07dtRnn30mPz8/swtK0KNHD2VkZGjGjBkKCQkxm8ukVatWeuedd7gfLYYn5oApNzdXZ86cKbE2AgAAAAAAAEBFY+FcNZWfn6+hQ4cqPT1dy5YtU9euXc0ukqRLly7pwIEDOnPmjDM2ePBg5efn64MPPnDGrly5ouTkZEVHR7v1YKLg9y3qB+v79u3T/fffrzp16jhjBw4ccNnOrCL8/PPPGjFihJo3b66FCxcqJSVFp0+f1oQJE8yuxfJkznbt2qVu3bqZ4WJ5S47tjmk73M0xble3bl29+uqrOnz4sFasWKGYmBizi20+Pj4aMGCAvvnmGx08eFATJkzgrR42REVF6dNPP9WPP/6oxMREt64zpnvuuUfTpk3TkSNH9Pe//5354QF2r1nUYc/UCE9yt0Z4S47tjmk73M0xihYcHKw5c+bo+PHj+uijj4rcVtguf39/xcXFaevWrdqxY4fi4uJ4y1wxhg8frh07dmjjxo3O2I4dOwp8ZAYAAAhzSURBVLRp0yYNHz7cpW9Rvv/+e/Xt21fh4eH66quvePNiGdSrV09TpkxRZmamvvzyS/Xu3dvsYlvh+9EDBw7o5Zdf5n60GGWZA3l5eUW+ofWtt96SZVll+jcFAAAAAAAAAJQHnpZUUxMnTtSKFSvUp08fnTt3Tn/9619djgLbtm3Tgw8+qHfffdcZi46O1m9+8xu9+uqrio+P1wcffKAnnnhCR44c0dy5c5397GjRooXatm2rNWvWmE3at2/fbQ+OT506pZ9//lnnz593iZenxMRE7d69W0uWLFH9+vUVGRmp119/XcnJyfr666/N7kXyVM527typc+fO6de//rXZVCxvybHdMV2S0uQYxfP19VW/fv30z3/+U8eOHVNaWppeffVVPfXUU8W+Aeeee+7R008/rWnTpmn58uX66aef9MUXX6hXr148pC+Fpk2baurUqTp8+LC2bt2q9957TyNHjlT79u2LfIONj4+PHn74YY0YMUKLFi3Sd999px9//FFvvvmmWwuycGd2r1nUYc/UCEl69913lZiYqCVLlkiSVq5cqcTERCUmJtp+s1ppaoS35NjumC5JaXKMO6tdu7aGDx+u9PR0HTp0SB9//LFeeeUVde/eXfXr1ze7S5JCQ0M1cOBAzZgxQ6tWrdLJkyeVkpKizp07y+FwmN1RyIABA9SzZ08NGDBAs2fP1ttvv62+ffuqY8eOiouLM7u7yM3NVe/evZWdna3hw4frH//4h8s8Sk9PN0+BDb6+vurfv79WrVpVqvvRL7/8UidOnOB+1KayzIFTp04pNDRUL774opKSkpSUlKS+fftq3rx5iomJoTYAAAAAAAAAqHosVAnZ2dmWJOeRnZ1tdnHRvXt3l/7mUWD9+vWWJCshIcHl/MuXL1t//OMfraZNm1r+/v5Wp06drFWrVrn0sWv+/PlWvXr1rEuXLjljV65csfz8/KwpU6a49B05cqTl7+9vDRo0yCVeXnbu3Gn5+flZ48aNc4lfu3bN6tSpk9W8eXNnruPi4qywsDCXfoW5k7OEhARLkpWVleUSnzRpkhUaGmpdv37dJV4Sb8ix3TFdoCw5dne+oWjXr1+3cnNzraysLOv48eNWVlaWdfHixTvmHp519epVKzs72zp58qR14sQJKzs727p69arZDTa5c22we82iDnumRliWZYWFhd2W54IjMzPTpW9ZakRRvCHHdsd0gbLm2J35huLl5+dbFy5csE6fPm0dP37cOnPmjMs49SaeHFMXLlywnn/+eathw4ZWYGCgFRsba509e9bZXjD+TZmZmbfNncJHXFyceYqzTixbtsxsssWT33d1xP3oLZ4cC6WdA9nZ2VZsbKzVsmVLq06dOpa/v78VERFhzZw5s9h71OTkZEuStX37drPJFk9+3wAAAAAAAAC8j8OyLMtcTIeKd/78eTVs2ND5OTs7Ww0aNHDpU1Xl5OSoRYsWmjt3rkaOHGk2VxsjRozQunXrtGvXLvn5+ZUq/3l5ebp48aLmzp2refPmKSsrS02aNJFubsMXHh6uyZMn66WXXjJPvSNyfIsnclyd5xuA8lNdrw3UiFs8USOKQo5v8VSOq+t8Q9VVkWNq+vTpeuONN5SVlSWHw1HsW8/uJD8/X9nZ2dq8ebMGDBigZcuWafDgwWa3ElXk942qrSLHgifmwNWrV3XhwgUtXbpU48aN0/bt29WxY0ezW4kq8vsGAAAAAAAAUPOwRwnKLDAwUPHx8Zo3b56uX79uNlcrx44dU1BQkB599FGzyZbFixcrKChI8+bNM5uUnJysu+66Sy+88ILZVCJyfEt55RgAqitqxC3lVSPI8S3llWOgOgoKClJYWJgZtmXv3r0KCgrSgAEDzCag2ijLHPj6668VFBSkcePGmU0AAAAAAAAAUGF441wVwf+Srnz79+/XiRMnJEn16tVTly5dzC4lOnbsmA4ePOj83L17d911110ufbxZVckx8w1AUbg2VK6qUiNqsqqUY+YbPK0ix9Thw4d1+PBhSZKfn5969OhhdinRxYsXtWXLFufnyMhIBQcHu/SxoyK/b1RtFTkWPDEHsrKytGfPHufn6Oho1a9f36WPHRX5fQMAAAAAAACoeVg4V0Xww16g4jDfABSFawNQcZhv8DRvHVPe+n3jdt46Frz1+wYAAAAAAADgGSycqyLMH/YeOXJEgYGBLn0AeEZOTo7Cw8Odn3m4AkDUYqBCUYvhad56DWcuoQBz4AbmAAAAAAAAAAB3sHCuijB/yA2g4vBwBYCoxUClohajrLiG38Bc8l7MgRuYAwAAAAAAAADc4WMGAAAAAAAAAAAAAAAAAACoyVg4BwAAAAAAAAAAAAAAAADwKmzVWkVYlqWcnBwzDKACBAYGyuFwmGEAXoZaDFQeajHKimv4Dcwl78UcuIE5AAAAAAAAAMAdLJwDAAAAAAAAAAAAAAAAAHgVtmoFAAAAAAAAAAAAAAAAAHgVFs4BAAAAAAAAAAAAAAAAALwKC+cAAAAAAAAAAAAAAAAAAF6FhXMAAAAAAAAAAAAAAAAAAK/CwjkAAAAAAAAAAAAAAAAAgFdh4RwAAAAAAAAAAAAAAAAAwKuwcA4AAAAAAAAAAAAAAAAA4FVYOAcAAAAAAAAAAAAAAAAA8CosnAMAAAAAAAAAAAAAAAAAeBUWzgEAAAAAAAAAAAAAAAAAvAoL5wAAAAAAAAAAAAAAAAAAXoWFcwAAAAAAAAAAAAAAAAAAr8LCOQAAAAAAAAAAAAAAAACAV2HhHAAAAAAAAAAAAAAAAADAq7BwDgAAAAAAAAAAAAAAAADgVVg4BwAAAAAAAAAAAAAAAADwKiycAwAAAAAAAAAAAAAAAAB4FRbOAQAAAAAAAAAAAAAAAAC8yv8BEQ5PUAW13AUAAAAASUVORK5CYII=;imageBorder=none;" vertex="1" parent="1">
          <mxGeometry x="-591.5" y="380" width="1760" height="477.51" as="geometry" />
        </mxCell>
        <mxCell id="rHatvHldpQKt2PcZZXSv-6" value="" style="shape=image;verticalLabelPosition=bottom;labelBackgroundColor=default;verticalAlign=top;aspect=fixed;imageAspect=0;image=data:image/png,iVBORw0KGgoAAAANSUhEUgAABsYAAAC/CAYAAABNA2kXAAAAAXNSR0IArs4c6QAAAARnQU1BAACxjwv8YQUAAAAJcEhZcwAAFxIAABcSAWef0lIAAF50SURBVHhe7d15nI3l/8fx9xlbMoxtLGVJi4SE7Cn6oiwlJH2FjCWFJBRSoSSFRMrylShps7Xx7YuasiaSokj9MiXbWMaYyRjGXL8/mMO5zHDOzDlnzvJ6Ph734zHn87nOOXNf577u+zNznfu+HcYYIwAAAAAAAAAAACDERdgBAAAAAAAAAAAAIBQxMQYAAAAAAAAAAICwwMQYAAAAAAAAAAAAwgITYwAAAAAAAAAAAAgLTIwBAAAAAAAAAAAgLDAxBgAAAAAAAAAAgLDAxBgAAAAAAAAAAADCAhNjAAAAAAAAAAAACAtMjAEAAAAAAAAAACAsMDEGAAAAAAAAAACAsMDEGAAAAAAAAAAAAMICE2MAAAAAAAAAAAAICw5jjLGDuDhjjBITE+1wWIqKipLD4bDDXkNfZ4+vPxcAAJC7qJHO8XXdQ19nj68/FwAAkLuokc6h7glPjIFzgnEMMDGWDUePHlWxYsXscFhKSEhQ0aJF7bDX0NfZ4+vPBQAA5C5qpHN8XffQ19nj688FAADkLmqkc6h7whNj4JxgHANcShEAAAAAAAAAAABhgYkxAAAAAAAAAAAAhAUupZgN9mmScXFxioqKcmkTqhITE3XVVVc5H/v6NMlw7mtP+PtzAQAAuSucayR/1z3h3Nee8PfnAgAAclc410jUPRBjIOjHABNj2WBv9MH4wWeXv9fd3+8XrOgnAADCSzgf+/297v5+v2BFPwEAEF7C+dgfzuuOc8J5OwiFdedSigAAAAAAAAAAAAgLTIwBAAAAAAAAAAAgLDAxBgAAAAAAAAAAgLDAxBgAAAAAAAAAAADCAhNjAAAAAAAAAAAACAtMjAEAAAAAAAAAACAsMDEGuGHu3LlyOBwXLBERESpSpIiqVq2q3r17a8OGDfZTAQAAgByjHgUAAKEsq1rH4XCocOHCqly5srp06aL//ve/9lOBkMAY8C8mxoAcMMYoKSlJ27dv1+zZs9WgQQM9/vjjdjMAAADAJ6hHAQBAqEtOTtZvv/2m9957T61bt9a9996rkydP2s2AkMUY8D4mxgAPLVu2TElJSUpKStKxY8f0+++/a8qUKSpSpIgkacqUKZo0aZL9NAAAAMArqEcBAEAoO7/WSUxM1I8//qhJkyYpKipKkrR48WINHz7cfhoQMhgDvsfEGOChggULKjIyUpGRkSpcuLCuueYaPfbYY1q+fLkiIs4MqbFjxyotLc1+KgAAAJBj1KMAACCUnV/rFClSRDVq1NCgQYP0xRdfyOFwSJKmTZum5ORk+6lASGAM+B4TY4CX1K9fX82aNZMkHTlyRN9//73dBAAAAPAZ6lEAABDKGjRo4Kx1UlNT9d1339lNgJDGGPAeJsYAL6pZs6bz57/++sslBwAAAPga9SgAAAhlN9xwg/Pn+Ph4lxwQDhgD3sHEGOBFGaey6uyN0AEAAAB/oh4FAACh7Pz6plixYi45IBwwBryDiTHAi7Zu3er8uVy5ci45AAAAwNeoRwEAQCjbvn27dPbLQFWrVrXTQMhjDHgHE2OAl2zZskXLly+XJEVFRalu3bp2EwAAAMBnqEcBAEAoW79+vb766itJUvv27VW+fHm7CRDSGAPew8RYAJs7d64cDoccDoe+/vprO52pjPYxMTF2Cj5gjFF8fLzeeusttWjRQqdPn5YkDR06VPny5bObAwAABBXq0cBHPQoAAEJNSkqKkpOTlZycrGPHjmnr1q2aPHmyWrVqJWOMatasqf/85z/204CQwRjwPSbGAA/dfvvtzn/4REREqHTp0urVq5cOHTokSerZs6eGDx9uPw1ekJKSosWLF+v111/X2LFjNWnSJM2dO1d///233RQAEIKMMfrmm280c+ZMvfTSSxo/frxmzZqljRs32k2BkEY9mntSUlK0aNEiZz366quv6u2336YeBYAwkVU9umnTJrspcqB169YqXLiwChcurKioKNWoUUODBg1SYmKiRo4cqQ0bNqhEiRL209S2bVs5HA4tWbLETjm1a9dODodDixcvtlNw0/fff69Zs2Zp/PjxGjdunGbMmKHY2Filp6fbTZFNjAE/MG46evSomTRpkrnttttMqVKlTIECBcxVV11l7r33XvPll18625UqVcpIMpLM77//7vIaoSIhIcG5jpJMQkKC3cQr5syZ43yP2NhYO52pjPbdu3e3U17hr3XP4O/3y8r5n4W9REREmPLly5v777/frFixwn6qXwRKP/nKb7/9ZoYMGWKKFSt2Qf9LMnny5DEdOnQwK1euNOnp6fbTAQBBLiEhwUyZMsVUqVLlgmNAxlKnTh3z1ltvmX/++cd+ekjy17GfetT/75cV6tHcRT0KAOEtox69/vrrLzgGZCwZ9ejx48ftp4ckbx/7L1brnL9cdtllZtmyZfbTjTHG7N271xQrVsyULl3aHDp0yE6bd99910gynTt3tlMe8fa6B4Pjx4+buXPnmnr16l3wmWQslStXNq+++qo5cuSI/fSQ5O3tgDHgX26dMfbee+/p2muv1eDBg7Vq1SrFx8crNTVVcXFxWrRokZo1a6axY8fqyJEjio+PlyQVKVJEV199tf1SQNBbtmyZkpKSlJSUpOTkZKWlpemvv/7SBx98oObNm9vNkQMpKSnq2rWrrrvuOr3yyitKSEiwm0iSTp8+rcWLF6t58+a68cYbnTehBAAEvylTpujKK6/UwIEDtWPHDjvttGnTJvXs2VPlypXThx9+aKeBkEI96j/Hjx9Xly5dPK5HL7a/AgAED2OMJk+e7KxHf/31V7uJU0Y9euWVV+qjjz6y0/BAbGysjDEyxuj48ePaunWrBg4cKIfDoRMnTqhTp076v//7P/tpKlu2rF577TUdOHBAjz76qEvuwIEDeuyxx1S6dGlNnTrVJYeLW7RokcqVK6eYmBh99913dtpp586dGjRokK688kq98sorOvOdOWQHY8D3LjkxNm7cOHXp0sV5WY7IyEi1bt1avXv3Vvv27VW0aFFJ0jPPPKM333zT+byaNWvK4XA4HwOhomDBgoqMjFRkZKQKFSrEdu4jR44c0b/+9S/Nnz/fTl3Uzz//rEaNGmnNmjV2CgAQRIwxGjRokB5//HEdP37cTmcpISFB//73v/XKK6/YKSBkUI/6x5EjR9SsWTO99957duqiMurRtWvX2ikAQBDJqEcHDRrkcT16//33U496ScGCBVW9enVNnjxZ48ePlyQlJyerX79+dlNJUteuXXXPPffogw8+cLlUXN++fXXkyBHNnDkz00vQIXOvvfaa7rvvPh05csROZSklJUVPPPGEHnvsMS6v6AWMAd+46MTYwoULNWLECElS3rx5NWrUKO3fv19Lly7VrFmztHjxYsXFxalNmzaSpGeffdb53Fq1ajl/BgBPnDhxQvfcc4++/fZbO+WWo0eP6q677tK2bdvsFAAgSIwaNUqTJ0+2w2574oknXL60BQCeOHHihNq2bZvtejQhIUFt2rTRzz//bKcAAEFi5MiRmjJlih122xNPPKHZs2fbYeTAkCFD1LBhQ0nS8uXL9eWXX9pNJEkzZsxQ8eLF1bdvXx06dEgffPCBlixZoi5duuiee+6xmyMLc+fO1cCBA7N95tfrr7+up59+2g4jBxgD3pPlxNjOnTvVo0cPSVJERITmz5+v0aNHq1ChQi7toqKi9P777ys6OlonT550xmvWrOnSDgDcNWTIkByf8ZWYmKi77rpLqampdgoAEOA+++wzjRkzxg577JFHHtH3339vhwHgkgYPHpzjM74SExPVpk0bl7+TAQDB4dNPP9ULL7xghz328MMPa/PmzXYY2eRwODRx4kTn41GjRrnkM5QpU0ZTp05VfHy8YmJiNGDAAOcl5uCeH3/8UQ899JAd9thLL72kRYsW2WFkE2PAe7KcGBs+fLiSk5Ols38UdOrUyW7iVLhwYd13330uMc4YA5AdR44c0VtvvWWHs+XPP/90OWUYABAcvHXZmdOnT1P4A/DY4cOHNWfOHDucLdSjABCcqEcDV6NGjXTXXXdJktauXasVK1bYTSRJDzzwgNq3b6+lS5fq0KFDmjlzpooXL243QxZee+01paWl2eFsmTRpkh1CDjAGvCPTibHNmzdryZIlkqTo6OgsZx7PV716defP+fPnV9WqVV3yGfbs2aP+/furUqVKuuyyy1S2bFl17NhRGzZssJviPCkpKUpOTr7kAgS7uXPn6sSJE3Y426ZNm2aHAAAB7Oeff9Y333xjh7Ptww8/dN4rFzlDPYpwQT0KAOFt27ZtWrVqlR3Otg8++ECHDx+2w8iBsWPHOu+x+txzz9lpp7Fjx0qS6tWrp7vvvttOIwsJCQl6//337XC2rVu3Tj/++KMdRg4wBnLOYTK5SGifPn00a9YsSdKwYcP00ksv2U0uMGfOHPXs2VOSVLt27UwvW7N582Y1b95cCQkJkqQiRYooKSlJxhjlyZNHb775pmJiYuynZVt6erpPDjyJiYm67rrrnI8TEhJUtGhRlzbeMHfuXOflLD3VvXt3zZ071w7n2NGjR1WsWDHn499++01RUVEubbzJX319Ked/FrGxsWratKndJFf5+3PxlfT0dDVs2FC7du2yUzny9ddfZzlZDwAILE899ZTX78UwcuRIPfroo3Y4qPmrRqIe9V9fXwr1qH+kp6erQYMGiouLs1M58s033+iGG26wwwCAADR8+HCvXckmw6hRo9S/f387HNS8XSN5Wus88MADzsmbFStWqHnz5nYTxcXFqVKlSmrSpIm+/vprO51toVL3ZGXmzJl69tln7XCOPPjggy6XAAwFjAH/jIESJUooIiLT87tyxljS09PNFVdcYSQZSeaHH36wm2TqlVdecT6nZ8+edtr8888/ply5ckaSqVu3rvn111+NMcYcOnTIxMTEGEkmX7585scff7Sfmm3x8fHO38mXS0JCgv3WXjFnzpwL3svdpXv37vbLeUVCQsIF7+XPxVd9fSnnfxaxsbF2Otfl9ufCwsLCwsLCkruLr2ok6tELF1/19aVQj7KwsLCwsLAE8pLTGsnTWue3334zefPmNZJM48aN7bQxxphdu3YZSaZJkyZ2Kkeoe1gyWxgDvlni4+Ptt/eKC6bafvnlF+3du1eSFBUVpRo1athNMnX+N+oyu7/Y9OnT9ffff6tIkSL69NNPVblyZensjN/s2bNVv359nTp1yq3LNoaj2NhYGWMuucA3YmJinH18qdl6AACAUEQ9mruoRwEAQCjztNa59tprderUKRljtHr1ajsNBB3GgH9dMDH2559/On+++uqr3T5Nbd26dc6fM5sYyzitr0uXLipTpoxLLiIiQoMGDZIkLV26VImJiS55AAAAAAAAAAAAIKcumPXat2+f8+fixYu75LKyc+dObd68WZLkcDh00003ueSTkpKc9xxr0aKFSy5D8+bN5XA4dOrUKa1Zs8ZOAwAAAAAAAAAAADniMNb1TmbMmKG+fftKkho2bOhyJlhW+vTpo1mzZkmSrrvuOu3cudMl/91336l+/fqSpB07duj66693yWcoU6aMDhw4oAkTJuiJJ56w0x5LT0/X4cOH7XCOefvGelnx9IZ7OjsxKW52Hnb8/bn4ys8//6zbb7/dDufY0KFDvbJPAQD4Xo0aNbR//347nCM333yz/vvf/9rhoOavGol61H99Hez8/bn4yrZt2/Svf/3LDufYsGHDNGTIEDsMAAhAN954ow4cOGCHc6ROnTpatmyZHQ5qwVAjxcXFqVKlSmrSpIm+/vprO51toVL3ZKVt27b69ttv7XCOlCxZUr/88osdDmqMAf+MgRIlSrh9VUOP2Dcd++ijj5w3NitatKhJS0uzm7hYvXq1cTgczud06tTJbmI+/vhjZ/7YsWN22qlmzZpGkhk8eLCdCij2zeVyemO9rHh6wz1zZpLTyI83O/fVumfw9/sFq1Dpp/T0dHP99de7rIs3lm3bttlvBQAIUI899tgF+/GcLq+88or9NkHPX8d+6lH/v1+wCpV+On36tKlcubLLunhj+fnnn+23AgAEqAEDBlywH8/pMmnSJPttgl6oHPuzI9TXfcqUKRdswzld+vbta79N0Av17eBiQmHdL5hqq127tvPno0eP6pNPPnHJn2/nzp3q0KGDy022M7u/2D///OP8uWDBgi65811++eWSpOTkZDsFIAw4HA7nGave0qRJE1WrVs0OAwAClLePA5dddpliYmLsMABkKiIiwuv7oaZNm6pq1ap2GAAQoLx9HChYsCD1KILKgw8+6Pw/vbd4e1wBOXXBxNg111yjmjVrOh/3799fW7ZscWlz+vRpzZ8/Xw0aNNDhw4eVN29eZy6ziTEAcFf37t0vOoHuqX79+tkhAEAAq1KlilcvY9a5c2e375sLAKIeBYCwd8MNN3j1Ng+dO3d2ueQYEOiKFi2qLl262OFsu/XWW3XjjTfaYSBXXTAxJkkvvPCC8+f9+/erTp06atasmfr06aOOHTuqYsWK6tq1qxISEjRp0qRLnjFWqFAh588pKSkuufMdP35ckhQZGWmnAISJokWL6qGHHrLD2XL11VerXbt2dhgAEOC8dV/IvHnz6rHHHrPDAHBRxYoVU+/eve1wtlxzzTXUowAQhLxVj+bLl496FEHpscceU758+exwtnhrPAHelOnEWJs2bTRu3Djn49OnT+urr77SrFmztGjRIu3Zs0fR0dH66KOPdMstt+j06dOSpLJly6pUqVLnvdIZZcuWdf68d+9el9z59u3bJ1ntAYSfCRMm5PjbWcWKFdPSpUuVP39+OwUACHCtWrXSmDFj7LDHZs+e7XIlBABw14QJE9S0aVM77JHixYtr6dKlXvunEgDAf1q3bq3nn3/eDnts9uzZuummm+wwEPCqV6+uuXPn2mGPjRw5Um3btrXDQK7LdGJMkoYPH641a9aoY8eOKlOmjPLly6eyZcvq1ltv1eTJk7Vjxw7dd999LpdZzOxsMZ09BdnhcEiSfvnlFzstSTp8+LDi4+Ols+0hxcTEyBgjY4zbf5RltPfGjgvILfnz59fixYt122232Sm3lCxZUv/9739VpUoVOwUACBJPP/20hg0bZofd4nA4NHXqVD344IN2Ch6iHkW4KlCggJYsWaJbb73VTrklox69/vrr7RQAIEg888wzGjp0qB12S0Y92q1bNzsFBI0HHnhA06dPV0REllMIFzV48GCNHj3aDgMB4aJb9S233KIFCxZo3759OnnypPbu3atVq1Zp4MCBzns1/Pjjj872WU2MFS5cWDfffLMkaeXKlXZakvTll1/KGKN8+fKpcePGdhpAmClatKiWL1+uHj16eHQArlmzptavX6/69evbKQBAEHE4HHrppZc0ffp0FSlSxE5nKTo6WosWLdKjjz5qpwDAI9mtR2vVqqX169erXr16dgoAEEQcDodefvllTZs2TYULF7bTWaIeRSh55JFHtGTJkkyvEpeVyMhIvfbaa3rllVecJ8sAgcb96j4L7pwxprM3mpSk+fPn68CBAy45Y4wmT54snb2MY1RUlEseQHgqUKCA3nrrLe3atUtPP/10lgfhfPnyqXPnzlq9erU2b96sa6+91m4CAAhSjzzyiPbs2aOZM2eqRo0adtrplltu0fz587V79261b9/eTgNAtlx22WV666239Mcff2jEiBEXrUcfeOABrVmzRt9//z31KACEkL59+2rv3r2aMWPGRevRxo0b67333qMeRchp27atdu/erffff/+iZ9NXr15d06dP1969ezVgwAA7DQSUHE2MGWP0008/OR9f7B4OjzzyiMqVK6fExETdc8892rlzpyTpyJEj6t27t9avX698+fLpueees58KBD2Hw+FcJk6caKfdUrNmTedr3HXXXXY6pFWoUEEvvPCCdu/erfnz59tp/fDDD3rvvffUuHFjvokCACEoMjJSffr00ZYtW/Tf//7XTis2NlZr1qzRAw88oAIFCthpANSjOVaxYkWNHTtWf/31V5b16Pz583XLLbdQjwJACIqMjNTDDz+sLVu2aNmyZXZasbGxWr16tTp37kw9mk1JSUnq06ePSpQooaJFi6pbt246cuSIMz969GhnHRIZGenyXHd9/PHHLjXRpk2b7CbIQv78+fXvf/9bq1at0jfffGOntXTpUv3000965JFHPDrDEuf4Ywxs2bLFZQwsXLjQbhI2cjQxtmvXLh07dkySVKRIEV199dV2E6fLL79cn3zyiYoVK6YNGzbo+uuvV9GiRRUdHa233npLefLkueQ3gYEMGzdu1KOPPqpq1aqpUKFCqlChgjp16uSccL2Uo0ePqk+fPoqOjlahQoV0++23a/PmzXYzp6uuusoOeax9+/aaN2+e2rRp4xJPT0/X+PHjValSJV122WWqUaOG3n//fZc2kvTiiy9q3rx5KlmypJ0KG/nz51eLFi3scJbf3AUAhBaHw+G8PPf5qlWrZocAn6MeDU8FChSgHgWAMOZwOFSnTh07TD2aQ8YYdejQQUuWLNHQoUP17LPPauXKlWrZsqVOnTrl0nbevHmaPXu2S0yStm/frpYtWyoyMlLFixdXt27ddPDgQZc2derU0bx589SnTx+XODxzww032CHVrVuXLwflQE7GQHp6uubOnau2bduqfPnyKlSokKpXr64XXnhBJ06ccHluxYoVNW/ePI0YMcIlHo5yNDF2/v3FMr49eDG1a9fW1q1b1a9fP1WsWFEpKSmKjo5Whw4dtHbtWvXo0cN+CpCpl19+WYsWLVKzZs00ZcoU9enTR6tWrVLt2rW1bds2u7mL9PR0tWnTRu+9954effRRjR8/XvHx8WratKl+++03Z7uVK1fq9OnTLs+VpP/97392yC01atRQ165dLzh4PP300xo2bJhatGihqVOnqkKFCnrggQf0wQcfuLRr3bq1unbtqkKFCrnEAQAA4H/UowAAAN7x8ccfa+XKlfrss880bNgwDRkyRF988YW+//57vf322y5tu3btqvvvv98l9vfff+u2227T77//rhdffFFPPPGEli5dqhYtWujkyZPOduXKlVPXrl3VsGFDl+cDuS0nY+D48ePq0aOHDh48qEceeUSTJ09WvXr1NGrUKLVq1UrGGGfbYsWKqWvXrpl+0SvsmBwYOXKkkWQkmYEDB9rpkJWQkOBcb0kmISHBbhKy/L3uWb3f2rVrTWpqqkvbnTt3mgIFCpguXbq4xG0ffvihkWQWLFjgjMXHx5uiRYuazp07G2OMSU9PN506dTJ16tQxW7ZsMRUrVjR//PGHueOOO0yLFi1MUlLSea94aZLMqFGj7LD5+++/Tb58+Uz//v2dsfT0dHPrrbeacuXKmbS0NJf2xhhTsWJF06ZNG5dYVv0UiuLj413WVZKJj4+3mwEAQhTHgTPC6dhv8/e6Z/V+1KPUo+cv4bgfAoBwxXHgDG8e+9u1a2duvvlmO2yaNm1qbrvtNmOMMaNGjTLK4l/Zffv2NQULFjR//vmnM7ZixQojycycOdOlrTHGzJkzx0gyGzdutFNu8ea6ByPGwBne3A5yMgZSU1PN2rVr7bB57rnnjCSzYsUKO2ViY2ONrL9HPOHNdc8tXj1jDPCXRo0aKX/+/C6x6667TtWqVdP27dtd4raFCxeqdOnS6tChgzMWHR2tTp066ZNPPlFqaqocDoc+/PBDTZo0SY888oj27dunDh06qH///lq+fLkiIyO1fft2FSxYUA8++KDL669Zs0Z58uTRsGHDXOKZ+eSTT3Tq1Cn169fPGXM4HOrbt6/+/vtvrV+/3qU9AAAAAgP1KAAAgHesW7cu07O46tevr2+//TbTM+jPt2jRIt11112qUKGCM9a8eXNVrlxZH330kUtbIBDlZAzkz59fjRo1ssNq3769dPYyo7hQjibGPv74YxljZIxRTEyMnQb8yhijAwcOXPKeBz/88INq166tiAjXzb9evXo6fvy4y30hIiIiXC4Rev7PN9xwg8aMGaN58+bp008/lST9888/iomJUZUqVfT8888722blhx9+UKFChS64nE29evWceQAAAAQH6lEAAADPJCUlKT4+XtHR0Tp06JDLUqpUKZ08eVJ///23/TSnPXv2KD4+PtN7v9WrV49aBgEvp2MgK/v375ekS/5tEq5yNDEGBJL58+drz549F1xn2LZv3z6VLVvWDjtje/fulTFGXbp00eOPP67p06erbNmyWrx4saZOnao77rhDycnJkqTBgwercePG6tOnjw4fPqxhw4bpzz//1Ntvv60CBQpY73Chffv2qXTp0hfcn+/83wUAAADBgXoUAADAM8eOHZMkjRo1StHR0S7LkCFDJEmJiYnWs87Zt2+fdF7tcr6yZcvqyJEjSk1NtVNAwMjpGMjK+PHjVaRIEbVq1cpOgYkxhIodO3aof//+atiwobp3726nXaSkpGT6T4LLLrvMmXc4HIqJidG3336rm266SZJUqVIlLV++XIMHD1ZkZKR09hu8c+fOVXJyslq1aqVp06bpqaeeyvRbKplx53cBAABA4KMeBQAA8FzGl3N69+6tFStWuCwZkwL2F3jOl1GrUM8gWOV0DGTmxRdf1MqVK/XSSy+paNGidhpMjCEU7N+/X23atFFUVJQWLlyoPHny2E1cFCxYMNNvipw4ccKZl6QWLVpk+lotW7Z0eXzNNddo9OjR2rhxo6pVq6Znn33WJX8x7v4uAAAACFzUowAAANlTpEgRSVL58uXVvHlzl+Wqq65yaZOZjFqFegbBKqdjwPbhhx/qmWeeUa9evdS3b187jbOYGENQS0xMVKtWrXT06FF98cUXuuKKK+wmFyhbtqzzNOvzZcQye424uDg75GL58uXS2UvNHD582E5nqWzZstq/f7+MMS7xi/0uAAAACBzUowAAANkXGRmpUqVKZVob7d69W/nz51e5cuXslFPGJRQze/6+fftUvHjxTM8mAwJFTsfA+VasWKEHH3xQbdq00YwZM+w0zsPEGILWiRMndPfdd2vnzp36/PPPVbVqVbtJpmrWrKnNmzcrPT3dJb5hwwZdfvnlqly5skv8UmbMmKEVK1Zo7NixOnnypB5++GG7SZZq1qyp48ePa/v27S7xDRs2OPMAAAAITNSjAAAAOXfLLbdo06ZNdljr169XgwYNMj2DPsOVV16p6OjoTJ//3XffUcsgKORkDGTYsGGD2rdvrzp16uijjz5S3rx57SY4DxNjCEqnT5/W/fffr/Xr12vBggVq2LCh3UQ6+82QHTt26NSpU85Yx44ddeDAAS1evNgZO3TokBYsWKC7777bo2+R7Nq1S08++aTuvfdejRgxQhMnTtSnn36qd955x26aqXvuuUf58uXTtGnTnDFjjGbMmKErr7xSjRo1cmkPAACAwEA9CgAA4B3dunXTpk2btHr1amds06ZNWrNmjbp16+bSNjP33nuvPv/8c+3evdsZ+/LLL7Vz507dd999Lm2BQJTTMbB9+3a1adNGV111lT7//HMuH+oGJsYQlIYMGaJPP/1UrVq10pEjR/Tuu++6LBmeeuop3XDDDdqzZ48z1rFjRzVo0EA9evTQ888/r2nTpqlp06Y6ffq0nnvuOWe7SzHGqGfPnipYsKCmT58uSXr44YfVokULDRw4UHv37rWfcoFy5crp8ccf1xtvvKGHH35Yb775pu6++26tXr1a48ePd+vbAAAAAPA/6lEAAADvaNeunZo1a6Z27drppZde0sSJE9WmTRvVqVNH3bt3t5tfYMSIEbr88st1++23a+rUqRo3bpzuu+8+3XjjjerRo4fdHAg4ORkDSUlJuvPOO5WQkKBu3bpp6dKlLn+XrF+/3n4KmBhDsNqyZYsk6bPPPlO3bt0uWC4mT548WrZsme6//3699tprevLJJ1WyZEl99dVXuv766+3mWZo6daq+/vprzZgxQ9HR0c747NmzlZ6eroceesilfVZeeuklvfjii/rf//6n/v37Ky4uTu+++64eeOABuykAAAACBPUoAACAdzgcDi1ZskT33nuvxo8frxdeeEF33HGHvvjiC+XLl89ufoHy5cvrm2++0TXXXKPhw4dr/Pjxat26tVasWOHRmfhAbsnJGDh8+LB2796t9PR0DR8+/IK/S2bOnGk/BZIcxr7LMi7p6NGjKlasmPNxQkKCihYt6tImVPl73f39fr7icDj05JNPaujQoSpUqFC2Tmc9evSo0tLSVLt2bdWoUUOff/65Sy4U+skdBw8eVKlSpVxi8fHxLv8MAgCELo4DZ4TTsd/m73X39/v5CvWo97AfAoDwxnHgDH8f+0ePHq3nnntOBw8elMPhUIkSJewml3Ty5EkdO3ZMH3zwgQYMGKCNGzeqTp06drNL8ve6BxrGwBn+3g68MQZOnz6thIQErV27Vu3atdOCBQvUsWNHu9kl+XvdfYEzxgA/mTBhgqKjo/XGG2/YKbc0bdpU0dHRLtdLBgAAANxFPQoAAIJddHS0KlasaIfdsmzZMkVHR2vAgAF2CggaORkDW7duVXR0tNq1a2enwg5njGVDKMyIZpe/193f7+crK1eudP5cuXJlVahQwSXvjg0bNigpKUk6uwO86aabnLlQ6Sd38K0UAAhvHAfOCKdjv83f6+7v9/MV6lHvYT8EAOGN48AZ/j72//HHH/rjjz8kSXnz5lXTpk3tJpd08OBB/fjjj87H9evXV+HChV3auMPf6x5oGANn+Hs78MYYSE5O1rfffut8XKNGjQs+S3f4e919gYmxbAiFDz67/L3u/n6/YBVO/cTBFwDCG8eBM8Lp2G/z97r7+/2CVTj1E/shAAhvHAfOCKdjvy2c112MAadw3g5CYd25lCIAAAAAAAAAAADCAmeMZYM9IxoXF6eoqCiXNqEqMTFRV111lfOxr2eDw7mvPeHvzyU38a0UAAhvHAfOCOcayd91Tzj3tSf8/bnkJvZDABDeOA6cEc41UjjVPZlhDJzBGAjuMcDEWDbYG3048/VGT19nj68/l9zEwRcAwhvHgTOokc7xdd1DX2ePrz+X3MR+CADCG8eBM6iRzgnluiczjIEzGAPnBOMY4FKKAAAAAAAAAAAACAtMjAEAAAAAAAAAACAscCnFbDDGKDEx0Q6HpaioKDkcDjvsNfR19vj6c8lNnK4NAOGN48AZ1Ejn+Lruoa+zx9efS25iPwQA4Y3jwBnUSOeEct2TGcbAGYyBc4JxDDAxBiCocPAFgPDGcQBAbmM/BADhjeMAwh1jAKGASykCAAAAAAAAAAAgLDAxBgAAAAAAAAAAgLDAxBgAAAAAAAAAAADCAhNjAAAAAAAAAAAACAtMjAEAAAAAAAAAACAsMDEGAAAAAAAAAACAsMDEGAAAAAAAAAAAAMICE2MAAAAAAAAAAAAIC0yMAQAAAAAAAAAAICwwMQYAAAAAAAAAAICwwMQYAAAAAAAAAAAAwgITYwAAAAAAAAAAAAgLTIwBAAAAAAAAAAAgLDAxBgAAAAAAAAAAgLDAxBgAAAAAAAAAAADCAhNjAAAAAAAAAAAACAtMjAEAAAAAAAAAACAsMDEGAAAAAAAAAACAsMDEGAAAAAAAAAAAAMICE2MAAAAAAAAAAAAIC0yMAQAAAAAAAAAAICwwMQYAAAAAAAAAAICwwMQYAAAAAAAAAAAAwgITYwAAAAAAAAAAAAgLTIwBAAAAAAAAAAAgLDAxBgAAAAAAAAAAgLDAxBgAAAAAAAAAAADCAhNjAAAAAAAAAAAACAsOY4yxg7g4Y4wSExPtcFiKioqSw+Gww15DX2ePrz+X3HTw4EGVKlXKJRYfH6/o6GiXGNzDGANyTyjvq32J48AZ7L/P8fVYoq+zx9efS25iP+RdjDEg94TyvtqXOA6cwf77nHAbS4yBMxgD5wTjGGBiLBuOHj2qYsWK2eGwlJCQoKJFi9phr6Gvs8fXn0tu4uDrXYwxIPeE8r7alzgOnMH++xxfjyX6Ont8/bnkJvZD3sUYA3JPKO+rfYnjwBnsv88Jt7HEGDiDMXBOMI4BLqUIAAAAAAAAAACAsMDEGAAAAAAAAAAAAMICl1LMBvs0ybi4OEVFRbm0CVWJiYm66qqrnI99fZpkOPe1J/z9ueQmTtf2LsYY4D/htK/2JY4DZ4Tz/tvfYymc+9oT/v5cchP7Ie9ijAH+E077al/iOHBGOO+/w30sMQbOYAwE9xhgYiwb7I0+GD/47PL3uvv7/YJVOPUTB1/vCqdtB8htjDfv4DhwRjhvT/5ed3+/X7AKp35iP+Rd4bTtALmN8eYdHAfOCOftKZzXXYwBp3DeDkJh3bmUIgAAAAAAAAAAAMICE2MAAAAAAAAAAAAIC0yMAQAAAAAAAAAAICwwMQYgYKWlpWnbtm2aO3euBgwYoEaNGun666+3m6lx48bq1q2bJk+erNWrVys5OdluAgAIQsYY/fXXX1qyZImeeeYZtWrVSjfeeKPdTLVq1VLbtm31/PPPa+nSpdq/f7/dBACyJS0tTVu3bvWoHl2zZg31KACECLsebdmyZZb16D333EM9ipB04MABLVu2TGPGjFG7du1Uu3Ztu4luvPFG3XnnnXr66ae1ePFi/fnnnzLG2M2AgOEwbKEeC4Wby2WXv9fd3+8XrEKtn+Li4jRz5kzNnj1bBw8etNOXlDdvXt17773q16+fbr31VjkcDrsJzgq1bQcIZIw39yUlJendd9/VtGnTtG3bNjvtlgYNGqh///7q2LGjLrvsMjsd9MJ5e/L3uvv7/YJVqPVTRj365ptv6tChQ3b6kqhH3Rdq2w4QyBhv7vNGPdqwYUP169ePejQEhcO6p6amatGiRZo2bZrWrl1rp91StWpV9evXT926dVORIkXsdNALh+0gK6Gw7pwxBrhh7ty5cjgcFywREREqUqSIqlatqt69e2vDhg32U+GBFStW6O6779bVV1+tl156KVuTYjr7zd4PP/xQTZo00Y033qhp06YpJSXFbgYEDfZBCBc7d+5U//79dcUVV6hfv37Z/ieEJH377bfq1q2bypcvr+HDh+vvv/+2mwBBhWOBfyxfvtylHs3OpJioRxGC2AchXPz6669eq0fXr19PPYqgs3fvXo0YMULly5dXly5dsj0pJkm//PKLHn30UV155ZXq27evduzYYTcBcg0TY0AOGGOUlJSk7du3a/bs2WrQoIEef/xxuxku4eDBg+rUqZPuuOMOff7551491frnn39W//79VatWLX377bd2Gghq7IMQKtLS0vTiiy86/3nszUuQHTp0SC+//LKqVq2qWbNmefUYAwQCjgXeER8fr/vuu0933nmnz+rR2rVrU48i5LAPQqhIS0vT2LFjqUdzUVYT8A6HQ4ULF1blypXVpUsX/fe//7WfCi8wxmj27Nm64YYbNG7cuGx/WT0zycnJmjFjhmrUqKExY8bo1KlTdhMwBvyOiTHAQ8uWLVNSUpKSkpJ07Ngx/f7775oyZYrzlOApU6Zo0qRJ9tOQhQULFqhq1apasGCBnfKqX3/9VbfccouefPJJvq2LoMY+CKFm27ZtatCggZ5++mmdPHnSTntNUlKS+vTpozvvvFN//fWXnQaCCscC71qwYIGqVaumhQsX2imv2rFjh2655RYNHTpUJ06csNNA0GAfhFCTUY8+88wzPv2HfUY92rJlS+pRDyUnJ+u3337Te++9p9atW+vee+/16d8O4Wb37t1q3bq1evfurWPHjtlprzl16pRGjhyp+vXr66effrLTuAjGgPcxMQZ4qGDBgoqMjFRkZKQKFy6sa665Ro899piWL1+uiIgzQ2rs2LFKS0uzn4rzpKamqmvXrurUqVO2L1HjqfT0dE2cOFG1atXSb7/9ZqeBoMA+CKFk+vTpuvnmm/X999/bKZ9ZsWKFqlevrsWLF9spIGhwLPCO1NRUdenSxe/16IQJE1SrVi39/vvvdhoICuyDEEqmTZum2rVr+7UeXb58uapXr64lS5bYKZx1/gR8YmKifvzxR02aNElRUVGSpMWLF2v48OH205ANn3zyiapXr64vvvjCTvnMDz/8oDp16ui1116zUziLMeB7TIwBXlK/fn01a9ZMknTkyBG/FlXBJjk5WXfffbfmz59vp/zi119/1a233sq3UxBS2AchmBhjNGbMGPXr1y9XvuWWlJSk++67T2+99ZadAoIaxwL3JScn66677tJ7771np/xix44daty4MfUoQgr7IAQTY4yef/559e/f36dniWUlKSlJHTt21Jw5c+wUrAn4IkWKqEaNGho0aJC++OILORwO6eykpjcveRmO3nnnHd17770+PUssK6dOndLAgQM1cuRILi+aCcaA7zExBnhRzZo1nT9zWnzmUlJSdPfdd2vFihV2yq8OHDig22+/XT///LOdAoIW+yAEizFjxmjkyJF22K/S09PVq1cvJscQcjgWXFpKSoruuusurVy50k75VUY9+ssvv9gpIGixD0KweP755zVq1Cg77Ffp6enq2bMnk2MeaNCggXMCPjU1Vd99953dBG6aN2+eunfvrtOnT9spvwqEvw2DCWPAe5gYA7woY8ZeZ799BFdpaWm6//779fXXX9upXHHkyBG1aNFCcXFxdgoISuyDEAxef/31XP8nxPkeeughLquIkMKx4OLS0tLUqVMnffPNN3YqV1CPItSwD0IwmDp1qkaPHm2Hc03v3r25rKIHbrjhBufP8fHxLjm457PPPlOPHj3scK554YUXuDelBxgD3sHEGOBFW7dudf5crlw5lxykV155RZ999pkd9ojD4VDJkiVdlvP/+PLUvn371KVLl1z/hgzgDeyDEOi+//57Pf7443bYI94+DqSnpysmJoZvtSNkcCy4uIkTJ+rzzz+3wx7x9n5o79696tq1K/UoQgL7IAS6TZs2adCgQXbYI94+DqSnp6t79+7Uo246f9K9WLFiLjlc2p49e9StW7cc1R3eHgOS9OSTT2rDhg12GJlgDHgHE2OAl2zZskXLly+XJEVFRalu3bp2k7D2yy+/eOXU6BIlSujgwYMuS4kSJexmHlm3bh03/ETQYx+EQHfy5EnFxMTk6A8w+eg4kJSUpN69e/PNdgQ9jgUX98svv3jljFVf7IfWrl2rqVOn2mEgqLAPQqBLTU1Vjx49ArYefeihh6hH3bB9+3bp7ORM1apV7TQuwhijPn36KDEx0U55xBdjID09XT169NCJEyfsFCyMAe9gYgzIAWOM4uPj9dZbb6lFixbO4mro0KHKly+f3TxspaWlqUePHjp58qSdChgjRozQzp077TAQ0NgHIZiMGTNG27Zts8MBY8WKFXrzzTftMBDwOBa4Jy0tTTExMQFfj/722292GAho7IMQTAK9Hl2+fLlmz55th3Ge9evX66uvvpIktW/fXuXLl7eb4CLefvttLVu2zA4HjO3btwfUZU4DEWPAe5gYC2Bz586Vw+GQw+Fw+55MGe1jYmLsFLzk9ttvd/ZzRESESpcurV69eunQoUOSpJ49e2r48OH208La5MmTA/5mkCdOnFDPnj35dhYCHvsgBKMtW7Zo3LhxdjjgDBkyRH///bcdDmvUo4GJY4HnXn31VW3cuNEOB5SUlBTqUQQF9kEIRj/88INeeuklOxxwBg8erD179tjhsJOSkqLk5GQlJyfr2LFj2rp1qyZPnqxWrVrJGKOaNWvqP//5j/00XMS+fftyfFl7f5gwYYI2bdpkh8MOY8D3PJoYS0xM1KuvvqomTZqodOnSuuyyy1SpUiV17NjROVMpSaVLl3YWSf/3f//n8hpAqImIiFD58uV1//33a8WKFZo9e7YiIjwaWiHt5MmTmjBhgh0OSGvXrtXq1avtMBDQ2AchGEyYMCHHl6zxh6SkJL3xxht2GAh4HAsuLjU1VRMnTrTDAWnNmjVas2aNHQYCGvsgBAPq0eDSunVrFS5cWIULF1ZUVJRq1KihQYMGKTExUSNHjtSGDRsyvXRf27Zt5XA4tGTJEjvl1K5dOzkcDi1evNhOhbTp06fn+BKK/pCenq7x48fb4bDDGPA9tyuV9957T9dee60GDx6sVatWKT4+XqmpqYqLi9OiRYvUrFkzjR07VkeOHFF8fLwkqUiRIrr66qvtlwKC2rJly5SUlKSkpCQlJycrLS1Nf/31lz744AM1b97cbh72Fi9e7NwnBINp06bZISCgsA9CsImPj9eCBQvscMB68803lZqaaoeBgMKxwDPUo4B3sQ9CsDlw4IAWLlxohwMW9ejFjR8/Xl9++aUdliTNnDlTxYoVU9++fXX48GE7rfnz5+uTTz5R586d1aFDBzsdsk6ePKlZs2bZ4YC1ZMkS7d271w7jLMaAd7g1MTZu3Dh16dLFeVp8ZGSkWrdurd69e6t9+/YqWrSoJOmZZ55xuTdDzZo15XA4nI+BUFCwYEFFRkYqMjJShQoVYhu/hGD7w37RokXav3+/HQYCBvsgBJvZs2fr1KlTdjhgHTp0KKj+cYLwxLHAM9SjgHexD0KwCbZ69ODBg1q0aJEdDiuxsbEyxsgYo+PHj2vr1q0aOHCgHA6HTpw4oU6dOmV6lbKyZcvqtdde04EDB/Too4+65A4cOKDHHntMpUuX1tSpU11yoe7jjz8OqtoiLS0t7O//zBjwvUtOjC1cuFAjRoyQJOXNm1ejRo3S/v37tXTpUs2aNUuLFy9WXFyc2rRpI0l69tlnnc+tVauW82cA4Wfr1q1Bd2nCtLS0oPoWDQAEstOnT2vGjBl2OOBx+RogdPz0009Bd2nCU6dOhf0/gwDAW9LS0qhHg1zBggVVvXp1TZ482XmJveTkZPXr189uKknq2rWr7rnnHn3wwQcul4rr27evjhw5opkzZ2Z6CbpQFozb08yZM4NqQtuXGAO+cdGJsZ07d6pHjx7S2WtGz58/X6NHj1ahQoVc2kVFRen9999XdHS0Tp486YzXrFnTpR2A8HKx69kGsmD9vQEg0GzevFl//fWXHQ5469ev14EDB+wwgCAUrHVdsP7eABBoNm/erN27d9vhgLdu3bqgugywvwwZMkQNGzaUJC1fvjzLy8nNmDFDxYsXV9++fXXo0CF98MEHWrJkibp06aJ77rnHbh7SDh8+rFWrVtnhgLd3715t3LjRDoc9xoD3XHRibPjw4UpOTpYkDR48WJ06dbKbOBUuXFj33XefS4wzxoDw9v3339uhoLBt2zau5w0AXhCsxwEF+e8O4JxgHctbt26lHgUALwjW44CC/Hf3FYfDoYkTJzofjxo1yiWfoUyZMpo6dari4+MVExOjAQMGOC8xF242b95sh4IGY+BCjAHvyXJibPPmzc5vqUVHR2fZyeerXr268+f8+fOratWqLvlDhw5pwYIFGjZsmP71r38pKipKDoeD61EDISpYD2CnTp3S1q1b7TAAwEPBehxQkP/uAM4J1rF86tQpbdu2zQ4DADwUrMcBBfnv7kuNGjXSXXfdJUlau3atVqxYYTeRJD3wwANq3769li5dqkOHDmnmzJkqXry43SzkBfN2FMy/uy8xBrwjy4mx86+/27NnT0VGRrrkM3PZZZc5f65evbry5cvnkn/33XfVqVMnjR8/XrGxsTp27JhLHllLSUlRcnLyJRcgUOzfv1979uyxw0Fj06ZNdggA4KFg3pcG8+/uK9SjCDb79u3T3r177XDQYD8EADkXzPvSYP7dfW3s2LHOEy2ee+45O+00duxYSVK9evV099132+mwEMzbUTD/7r7GGMg5hzHG2EFjjMqVK+f8I+KHH35w635hkyZN0pAhQ6Szk2mzZ892yU+ZMkUTJ05U3bp1VadOHTkcDo0YMUI6+57elp6ersOHD9vhHEtMTNR1113nfJyQkKCiRYu6tPGGuXPnOu/x5qnu3btr7ty5djjHjh49qmLFijkf//bbb4qKinJp403+6utLOf+ziI2NVdOmTe0mucrfn4s7vvrqK/373/+2wy4cDofHN3ssUaKEduzY4RKrUqWKR2P98OHDl9znPPjggy6nJoeqQBljuLhA3wfBPYG4r/alU6dOqWLFikpLS7NTToF8HChXrlxAX3bEX/tv6lH/9fWlBPqxwN+fizu+/PJLde7c2Q67COT9UPfu3TVhwgQ7HHICZYzh4gJ9HwT3BOK+2peCvR4tX758QJ8x4+39t6f7mQceeEDvv/++JGnFihVq3ry53URxcXGqVKmSmjRpoq+//tpOZ1swjaV69eopLi7ODrvwdBx4YwzIjXEQERGhuLg4l5NxAgljwD9joESJEoqIyPL8ruwzmdi2bZuRZCSZqKgoc/r0abtJpgYMGOB83tSpU+20SUtLc3kcGxvrbO8L8fHxztf35ZKQkGC/tVfMmTPngvdyd+nevbv9cl6RkJBwwXv5c/FVXwe73P5csruULFnSXhW/KFmy5AW/C8uZhTEG+E6w7qt9uXAc8N7iq/039eiFi6/6Otjl9ueS3YX9UOAtjDHAd4J1X+3LheOA95ac7r/PrztjY2Pt9AV+++03kzdvXiPJNG7c2E4bY4zZtWuXkWSaNGlip3Ik1MYS48A7C2PAN0t8fLz99l6R6VTbn3/+6fz56quvdntGbt26dc6fa9Wq5ZKTpDx58tghuCk2NlbGmEsuAAAAgC9QjwIAAMBXYmJinPXkpc6UkaRrr71Wp06dkjFGq1evttNA0GEM+FemM1779u1z/uzuDdl27tzpvNyMw+HQTTfdZDcBAAAAAAAAAAAAck2mE2OnTp1y/nz8+HGXXFYmTpzo/Ibotddeq8jISLsJAAAAAAAAAAAAkGscJpPrnSxYsECdOnWSJBUtWlSHDh266GUQ16xZo9tuu805MdapUyd9+OGHdrMLfP3117r99tslySeXXUlPT/f4pn/u8PaN9bLi6Q33dPZsPXGz87Dj78/FHcuXL1fXrl3tsAtPb+4pL93g81I395SkLl266NVXX7XDIYcxBvhPIO6rfenkyZOqUKGC0tPT7ZRTIB8HypQpo59++skOBwx/7b+pR/3X18HO35+LO/73v/+pW7dudthFIO+HunbtqkmTJtnhkMMYA/wnEPfVvpSamqoKFSpcdH8byMeBsmXL6scff7TDASMY9t9xcXGqVKmSmjRpoq+//tpOZ1swjaWbb75Zu3fvtsMuPB0H3hgDcnMcxMXF6fLLL7fDAYEx4J8xUKJECbdv9eUR+6Zjxhjz+++/u9zgbNGiRXYTp19//dVER0e7tB83bpzdLFOxsbHO5wQT++ZyOb2xXlY8veGeObMnMfLjzc59te4Z/P1+wSoQ++mvv/5y+Z28tWR2Q1Bf3KxzypQp9tuEpEDcdoBQFY7jrVq1ahfsX3O6+Os40LJlS/ttAoq/tifqUf+/X7AKxH76888/XX4nby3+2g+99tpr9tuEpEDcdoBQFY7jrWrVqhfsX3O6+Os40KpVK/ttAko4bk8Zgmnd27Zte8G2ldPFX2Pguuuus98moATTduBtobDumU61XXPNNapZs6bzcf/+/bVlyxaXNqdPn9b8+fPVoEEDHT58WHnz5nXmatWq5dIWQPgpV66coqOj7XDQqFOnjh0CAHjo5ptvtkNBg+MAEPzKly+vkiVL2uGgwX4IAHKOehThjjEAZC7TiTFJeuGFF5w/79+/X3Xq1FGzZs3Up08fdezYURUrVlTXrl2VkJCgSZMmuZz2yMQYAIfDEbQH34iICJcvBwAAsidYjwMK8t8dwBnBXo/edNNNdhgA4KFgPQ4oyH93BI5g3o6C+XdH4MtyYqxNmzYaN26c8/Hp06f11VdfadasWVq0aJH27Nmj6OhoffTRR7rlllt0+vRp6ez1b0uVKnXeKwEIV8F6ALvhhhsC9vrFABBMgvU4oCD/3QGcE6xjuWrVqtSjAOAFwXocUJD/7ggcwbwdBfPvjsCX5cSYJA0fPlxr1qxRx44dVaZMGeXLl09ly5bVrbfeqsmTJ2vHjh267777XC6zyNliADK0adPGDgWFYP29ASDQ1KlTJygvq3vjjTeqXLlydhhAEArWui5Yf28ACDR169YNynq0Ro0auvLKK+0w4LEyZcqodu3adjjgFS9eXPXr17fDgNdcdGJMkm655RYtWLBA+/bt08mTJ7V3716tWrVKAwcOVPHixSVJP/74o7M9E2PeExMTI2OMjDFq2rSpnc5URvu5c+faKcDvGjRoEHSXJHQ4HHr44YftMAAgGwoUKKDevXvb4YDXr18/ORwOOxyWqEcR7Bo2bBh0lySkHgUA7ylQoIB69eplhwMe9Si8qV+/fnYo4PXs2VMFCxa0w4DXXHJizB2cMQYgMw6HI+gOvq1atdLVV19thwEA2fTwww8H1R/1hQsXVpcuXewwgCAVjPVo69atValSJTsMAMgm6lGEu86dOysqKsoOB7RHHnnEDgFeleOJMWOMfvrpJ+fji50dkp6erkOHDjmXxMREZ+78eEJCgsvzAASvBx54QEWKFLHDASvY/nECAIGuYsWKuuuuu+xwwHrwwQdVuHBhOwwgiFGPAkB4u+qqq4LqErXdu3dXZGSkHQay7fLLL1ePHj3scMBq2bKlrrnmGjsMeFWOJ8Z27dqlY8eOSZKKFCly0TMt/vrrL0VHRzuXdu3aOXPnxznrDKHG4XA4l4kTJ9ppt7Rr1875GtWrV7fTAatQoUJ69NFH7XBAqlatmlq2bGmHEaDGjx+vKlWqKD093U4FjZiYmByP68mTJ7vsYw4dOuTMzZgxQxUqVFBqaqrLc9xFH5/hyz4OF08++aQdCkj58+fXY489ZoeBkBDO9WhkZKT69+9vhwNS9erVdeedd9phBChqpTN8WSvRx2f4so/DRTDVowMGDLDDYSEpKUl9+vRRiRIlVLRoUXXr1k1Hjhxx5kePHu0cA9mdONyyZYvLWFq4cKHdJGQNGDBABQoUsMMBKVjGq7cxBvwrxxNj599frGbNmnIE0anJCF4bN27Uo48+qmrVqqlQoUKqUKGCOnXqpJ07d9pNM3X06FH16dNH0dHRKlSokG6//XZt3rzZbuZ01VVX2SGPtW/fXvPmzbvgW0pjx45V27ZtVbp0aTkcDo0ePdoln2HQoEGaN2+eqlSpYqcC3jPPPKPrr7/eDgeUPHnyaO7cucqTJ4+dwlk5HXepqakaNmyYrrjiChUsWFD169fXihUr7GZOX3/9tWJiYuywJOnYsWN6+eWXNWzYMEVE5PhQlqtKliypefPm6aWXXrJTbvVZy5YtNW/ePLVv394lrrN/hJ88eVIzZ860UxJ9rOTkZI0aNUotW7ZU8eLF5XA4Mr0nUk76GGfceuutQXEpjNGjR6ty5cp2GMhUTo+L1KP+9eyzz1KPhoCcjjt3aqvzhXutJDf7LCe1Urj3MfWo/9x2221Bcf/G5557LizrUWOMOnTooCVLlmjo0KF69tlntXLlSrVs2VKnTp1yaTtv3jzNnj3bJfbdd9+pX79+uvnmm5UvX74s/z9dsWJFzZs3TyNGjLBTIe/qq6/WCy+8YIcDTq9evfSvf/3LDoe8nI6BWbNmqUmTJipdurQKFCigSpUqqUePHoqLi3NpF85j4AImh0aOHGkkGUlm4MCBdjokJSQkONdZkklISLCbhCx/r3tW73fvvfeaMmXKmAEDBphZs2aZMWPGmNKlS5tChQqZrVu32i/j4vTp06ZRo0amUKFCZvTo0eb11183VatWNYULFzY7d+50tluxYoVJS0szxhhTsWJFZ/yLL75w/uwuSWbUqFF22JizuTJlypg777zzou0yNGnSxFSrVs0lllU/BZL169ebiIgIl98zO0vJkiXtlzYlS5a8oJ2ny4gRI+yXDQuebDs5GXfGGPPvf//b5M2b1zzxxBNm5syZpmHDhiZv3rxm9erVzjZHjx4169evN8YYExsba7p3727M2d/z22+/dbZ79dVXTZEiRUxKSoozFoy6d+/usn+xudNnGUaNGmUkmYMHD7rEhw4daipWrGjS09ONoY9d7Nq1y0gyFSpUME2bNjWSzJw5c+xmTu72cVY8GW+h6NixY6ZixYoX7H89XXx1HKhTp445deqU/dIBK5y3J3+ve1bvl5PjIvVo7li3bp1xOBwuv2d2Fl/th55++mn7ZcOCJ9tOTsadcbO2olZy5U6fZXC3VqKPz6Ee9a9jx46ZChUqXLD/9XTx1XGgbt26YVuPLl682Ehy7huMMWbLli0mIiLCzJo1y5jztv/MjBo1yuTLl8/cfPPNpnLlylm2yxAbG2skmQULFtgpt3hz3f0pLS3NNGjQ4IJtz9PFV2OgXLly5ujRo/ZLByxvbgc5HQN9+/Y13bt3NxMnTjSzZ882zzzzjCldurQpWbKk2bNnj908bMfA+TLvSQ/cc889zg642ME7lITCB59d/l73rN5v7dq1JjU11aXtzp07TYECBUyXLl1c4rYPP/zwgoEfHx9vihYtajp37myMMSY9Pd106tTJ1KlTx2zZssVUrFjR/PHHH+aOO+4wLVq0MElJSee94qXpIv9g2LVrlzHGmIMHD160XYZg/UeEMcY88cQTLr9ndhZfHHyrVatmTpw4Yb9sWPBk28nJuNuwYYORZCZMmOCMpaSkmGuuucY0bNjQGfvxxx9N5cqVzWOPPWY+++wz0717d7Nw4UJTqVIl8+qrrzrb1ahRw3Tt2tX5OFhd7I9kd/ssQ1Z/JG/atMlIMl9++aUx9LGLEydOmH379hljjNm4caPRJWoZd/s4K56Mt1C1cuVKlz7IzuKL40D+/PnNtm3b7JcNaOG8Pfl73bN6v5wcF6lHc8+QIUNcfs/sLL7YD1WvXp169OxysW0nJ+PO3dqKWukcd/ssg7u1En18DvWo/61YscKlD7Kz+OI4kD9/fvPzzz/bLxvQvLk9tWvXztx888122DRt2tTcdtttxlxiUmD//v3m+PHjxhhj+vfvn2W7DOE8KbB9+3ZToECBC7ZBTxZfjAFJ2fryV27y5naQ0zGQmYxjw7hx4+xUWI+BDDk+F/3jjz/W2Qm2LE9/B7ytUaNGyp8/v0vsuuuuU7Vq1bR9+3aXuG3hwoUqXbq0OnTo4IxFR0erU6dO+uSTT5SamiqHw6EPP/xQkyZN0iOPPKJ9+/apQ4cO6t+/v5YvX67IyEht375dBQsW1IMPPujy+mvWrFGePHk0bNgwl3hWvHFZnGDx/PPPq0GDBnbYI4cPH3a5J2F0dLQOHz5sN3NbkSJFNH/+/KC5znJuyum4y5Mnj/r06eOMXXbZZerVq5fWr1+v3bt3S5Jq1KihrVu3qnz58nr44Ye1cOFCffTRR4qNjdXjjz8unb235U8//aTmzZs7XytDv379XK6VnNlin0bubSkpKapSpYqqVKmilJQUZ/zIkSMqW7asGjVqpNOnT7s8JzPu9tml3HzzzSpevLg++eQTiT52UaBAAZUpU8YOe8zuY2StWbNmeuqpp+ywR7x9HNDZ+3ZUq1bNDgMXldPjIvVo7hgzZgz1aBDL6bhzp7aiVjrH3T67FLtWoo/PoR71v+bNm2v48OF22CPePg5I0pQpU1S1alU7HDbWrVunhg0b2mHVr19f33777SXHU+nSpVWwYEE7jExUqVJFb7zxhh32iC/GwBNPPBHW91nN6RjITEaNf/ToUTsFb9xjDAgUxhgdOHBAJUuWtFMufvjhB9WuXfuCa5TXq1dPx48fd7k+fUREhBznXZf4/J9vuOEGjRkzRvPmzdOnn34qSfrnn38UExOjKlWq6Pnnn3e2xRkFCxbUsmXLdOONN9optxljdOjQIZflzJegPVewYEF9/vnnuummm+wU3OTJuKtcubKKFCniEq9Xr5509uafGRwOh8vYy/jjNsO6deskSbVr13bGMtx7772qV6+eypQpo3nz5jmXq6++WlWrVtV7773n83/+FSxYUG+//bZ+//13Pf300854//79lZiY6Pa9Qzzps0upXbu21q5d63xMH3uf3cfI2tixY13+weYpbx4HJOmFF15Q37597TCQLZ4cF6lHc0fBggW1dOnSgKpHly5dqho1atgpuMmTcedubUWtdIYnfXYpdq1EH3uf3cfI2osvvqiHHnrIDrvNm8cBna2Pg+F+vL6SlJSk+Ph4RUdHX9CvpUqV0smTJ/X333/bT0MO9OrVSy+//LIddpu3x0DPnj01fvx4Oxw2vDkGDh8+rPj4eG3atEk9evSQzn5BFRdiYgwhY/78+dqzZ4/uv/9+O+Vi3759Klu2rB12xvbu3StjjLp06aLHH39c06dPV9myZbV48WJNnTpVd9xxh5KTkyVJgwcPVuPGjdWnTx8dPnxYw4YN059//qm3336bb3xmoVixYlq5cqVq1qxpp/wqMjJSS5cu1a233mqn4AFvjjtJ2rp1q2rUqKG4uDjNmDFDHTt2VMeOHdW0aVNNmTJFkrRjxw5JUqVKlc57pTOaNWumkydPqlatWuratatzOXLkiBo3bqzOnTvbT/GJ+vXra+jQoZoyZYpWr16thQsX6oMPPtC4cePcvpGyu33mjquvvlq//PKLRB/7zPl9jItzOByaNm1aQNz8/Pnnn+emw/Aqbx4XqUd9p3jx4gFVjzZu3NhOwQPeHHeiVnLhbp+5g3rU96hH3edwODR9+vQcfVnLW8aMGZPjKyoEu2PHjkmSRo0adcFZSEOGDJEkJSYmWs9CTg0dOlTjxo2zw37Xs2dP/ec//3H5ckS48eYYuPLKK1W6dGnVrVtX69at02uvvaYWLVrYzcDEGELFjh071L9/fzVs2FDdu3e30y5SUlIy/SfBZZdd5sw7HA7FxMTo22+/dZ5NVKlSJS1fvlyDBw9WZGSkdPYbvHPnzlVycrJatWqladOm6amnnlKdOnVcXhuuSpUqpa+//lq33367nfKLUqVK6csvv8y19w8V3h53klShQgXNmTNHr732mnOcdezYUZs3b3Ze9ujw4cPKmzevM3++06dPa8eOHapevboztnv3bh09etQllpn09HSdOHHCrcWdb0KNHj1a1apVU/fu3dWvXz81adJEjz32mN0sS+72mTuKFSumlJQUHT9+nD72kfP7GJeWJ08eTZ8+PdcmpfLkyaOpU6fq2WefDes/wOBd3j4uUo/6VqlSpRQbG6umTZvaKb8oVaqUvvrqK+rRHPL2uBP1qAt3+8wd1KO+Rz3qmTx58mjGjBm5NimVN29evf7663rmmWfCvh7NWP/evXtrxYoVLkvGpEC495GvDB8+XNOnT1fevHntlF88+eSTevPNN/1+hm2g8eYY+O9//6tly5bplVdeUYUKFfTPP//YTXAWE2MIevv371ebNm0UFRXlvAb6xRQsWFCpqal2WCdOnHDmJalFixaZvlbLli1dHl9zzTUaPXq0Nm7cqGrVqunZZ591ySNzUVFRWrFihSZNmuT8w8of/v3vf+vnn392Xv4D2eOrcRcVFZXpfT+KFi2q+vXr2+EL/P777zpx4oTLvYK2bt0qSZf8I3nVqlUqWLCgW8uvv/5qP/0C+fPn11tvvaVdu3YpKSlJc+bMcbuQkQd95o6MP+odDgd97CPn9zHc43A4NHbsWK1cuVIVK1a00z5z44036rvvvtOjjz5qp4Bs89VxkXrUt4oWLaqVK1fqlVdeyZV6tG7dunYKHvDVuKNWOsfdPnMH9ajvUY96zuFw6MUXX/R7PVqjRg1999136t+/v50KSxmXay1fvryaN2/usmRcFtW+pCu855FHHtGmTZv8eiZ9+fLltXz5co0fP559lpfHwO23365WrVpp8ODBWrBggZ577jm9/vrrdjMwMYZgl5iYqFatWuno0aP64osvdMUVV9hNLlC2bFnt27fPDjtjmb3GpW7cu3z5cunspSRyerPJcJInTx4NGjRIP/74oxo1amSnvapUqVJatGiR3n///UvefwAX569x17RpU82dO9cOq0SJEkpLS1NSUpKd0rZt2yTrD+KffvrpglhmqlSpojlz5ri1ZHZJmcz873//k87+8+C3336z0xeVnT7LSkJCgi6//PIL/nkR7n3sTVn1MS6tWbNm2rp1q8/vq5AnTx49++yz2rRpU6b3KwGyy1/HRepR38iTJ48GDx6sLVu2UI8GEX+Nu3CvlbLTZ1nJqlYK9z72pqz6GJfmr3o0b968GjlypDZu3KhatWrZ6bAVGRmpUqVKZbq/2b17t/Lnz69y5crZKXjRTTfdpO+++06jR4/2+dljffr00bZt27i833l8NQauueYa1apVS/Pnz7dTYGIMwezEiRO6++67tXPnTn3++eeqWrWq3SRTNWvW1ObNm5Wenu4S37Bhgy6//HKPrwU+Y8YMrVixQmPHjtXJkycD4p4pwaZy5cpatWqVZs+e7fVvqERHR+upp57Szz//rA4dOthpeCgn427nzp3O6yZn2LBhgzPvripVqkiSdu3aZae0bds2RURE6IYbbnDGtm7dqlKlSik6Otqlra1MmTKKiYlxa4mKirKffoGffvpJzz//vHr06KFatWqpd+/ebl8TWl7us127drn0yaWESx97k6d9DFeFCxfW9OnTtWrVKrVt21YREd4rUfPnz68uXbro+++/1/PPP6/8+fPbTYBsy8lxkXo0sFx//fVatWqV3nzzTeelK72FetS7cjLuvFVbhUut5M0+87RWCpc+9iZP+xiuMurRb775xmf16KZNm/Tcc89Rj2billtu0aZNm+yw1q9frwYNGlzyrGDkXL58+TRq1Cht3rxZ3bp18+p26nA4dNdddyk2NlYzZ850++yncOKrMZCSkpJrx6VA5729POBHp0+f1v3336/169drwYIFatiwod1EOvtNth07dujUqVPOWMeOHXXgwAEtXrzYGTt06JAWLFigu+++O9NrqGdl165devLJJ3XvvfdqxIgRmjhxoj799FO98847dlNcQp48edSzZ09t3rxZ69atU9euXXN0EL7llls0f/587d69Wy+++CLfyvUCd8fd8ePHtWPHDh06dMgZ69ixo06fPq3//Oc/zlhqaqrmzJmj+vXrq3z58s74pWS8b2YFw7Zt21SpUiVdfvnlztiOHTtcLrPiD6dOnVJMTIyuuOIKTZkyRXPnztWBAwc0aNAgu2mWvNlnmzdv9uhb8OHSx97kaR8jc7feeqs++eQT/fHHHxoxYsQl/7l1MRUrVtS4ceO0e/duvfvuu17/Rzfg7nGRejR45MmTR7169dIPP/xAPRqg3B131KPeqZW82Wee1krh0sfe5GkfI3O33XYb9Wgu6NatmzZt2qTVq1c7Y5s2bdKaNWvUrVs3l7bwrRtvvFHvvPOO/v77b7388svOS/llR8mSJTV8+HD98ccf+uyzz3Lt3q7BICdjIC0tTQkJCXZY3333nbZu3cq9h7Ni4LGEhAQjybkkJCTYTUKWv9c9q/cbOHCgkWTuvvtuM2/evAuWDN27dzeSzK5du5yxtLQ006BBAxMZGWmee+4588Ybb5hq1aqZwoULmx07djjbXUp6erpp2rSpiY6ONvHx8c54ixYtTNGiRc2ePXucMUlm1KhRzsfne+edd8yYMWPMU089ZSSZ22+/3YwZM8aMGTPGxMXF2c1NkyZNTLVq1VxiWfVTsDt8+LBZtmyZGTNmjGnXrp0pX768y3pmLEWKFDFNmzY1Q4YMMe+99575/fff7ZdCFjzZdtwdd7GxsZlu8/fdd5/JmzevefLJJ83MmTNNo0aNTN68ec0333zj0s4d1atXN507d7bDpkqVKqZt27YusSuuuMI0btz4ouvmbSNHjjQOh8N89dVXztgLL7xgJJmlS5c6Y927dzcVK1Z0PrZ50mejRo0ykszBgwdd4ps2bTKSzMqVK13ilxIufTx16lQzZswY07dvXyPJdOjQwbkPPnr0qEvbnPaxJ+MNZ5w4ccKsXbvWvPbaa6Z79+6mWrVqJiIiwqUfJZl8+fKZWrVqmYceesjMmDHDbNy40aSlpdkvF1LCeXvy97pn9X7uHhepR4Mb9ajvebLtuDvuqEe9Vyt50mc5rZVs4dLH1KOB7fx69MEHH7xoPVq7dm3q0WxKT083zZo1M8WLFzfjxo0zEyZMMKVKlTJ169Y1J0+eNOa87T8zcXFxznFTv359I8n5+J133rGbO48TCxYssFNu8ea6B7q0tDSzadMmM3PmTNOnTx9Tu3Ztky9fvgvGQEREhKlatap58MEHzZQpU8yaNWvMiRMn7JcLKd7cDnIyBhISEkyhQoVMz549zSuvvGJmzJhh+vfvby6//HJTvHhxs3PnTvspjAFjzIU9iUsKhQ8+u/y97lm9X5MmTVzi9pIhs39EGGPMkSNHTK9evUyJEiXM5Zdfbpo0aWI2btzo0uZSpkyZYiSZRYsWucT/+usvU6RIEdO6dWtnTJn8UZbhYusSGxtrNw+rf0Rk5vjx4+bQoUPm77//NgcOHDDHjh0zp0+ftpvBTZ5sOxfbVnXeuMvqHxEpKSnmiSeeMGXKlDEFChQwdevWNV988YVLG3dNmjTJREZGmuPHjztjqampJm/evGbEiBEubXv16mUKFChgOnTo4BL3le+//97kzZvXDBgwwCWelpZm6tata6644gpnP1/qj2RP+iyrP5KHDRtmKlSoYNLT013ilxIufVyxYsULtuWMxT525LSPPRlvyFpqaqpJSEgwe/fuNfv27TNHjx51/qEQTsJ5e/L3umf1fu4eF6lHQ88///xDPepFnmw7F9tWRT3q5M1ayZM+y2mtZAuXPqYeDT7Uo2d4e3s6duyYeeihh0yxYsVMVFSU6dq1qzl8+LAzn9WkgDlvv5/Z0qRJE7s5kwI5dOrUKXP06FGzb98+s3fvXpOQkGBSU1PtZiHP29tBdsdAamqqGThwoKlRo4YpUqSIyZcvn6lYsaLp1avXBceRDIwBJsayJRQ++Ozy97r7+/18RZJ58sknzcGDB12Kek8cO3bMHDx40DRq1Cis/xEB7wrWbefo0aOmePHi5s0337RTQaV79+6mfPny5uDBg9nu+5SUFHPw4EHz5JNPGll/JJ84ccKUKVPGTJ482eU57qCPz/FWHwfreENgCuftyd/r7u/38xVRjyJABeu2Q610jrdqJRt9fI63+jhYxxsCk7+3p/Mnhg8dOmSn3ZKWlmYOHjxoPv74Y6MwnxRAzvl7O2AMeBf3GAP8ZMKECYqOjtYbb7xhp9zSrVs3RUdHa926dXYKCDtRUVEaOnSoJkyYoPT0dDsdVHbv3q3o6Gg1btzYTrllxowZio6O1oQJE+yU5syZo3z58umRRx6xU5dEH5/jqz4GAH+jHgW8h1rpHF/VSvTxOb7qYyAYRUdHq2LFinbYLVu3blV0dLTatWtnp4CgwRjwDoc58+1BeODo0aMqVqyY83FCQoKKFi3q0iZU+Xvd/f1+vrJy5Urnz5UrV1aFChVc8u746aefFB8fL0mKjIxUgwYNnLlQ6Sf4H9tO7vrll1+0d+9eKZNx7a7du3fr119/dT5u0qSJ8uXL59ImnAVSHzPe4E3hvD35e939/X6+Qj2KQMW2k7sCqVYKVYHUx4w3eJO/t6c//vhDf/zxhyQpb968atq0qd3kkpKTk/Xtt986H9eoUUOlSpVyaeMOf687ApO/twPGgHcxMZYNofDBZ5e/193f7xes6CdkF9sO4D+MN3hTOG9P/l53f79fsKKfkF1sO4D/MN7gTeG8PYXzuuOccN4OQmHdmRjLBvuDj4uLU1RUlEubUJWYmKirrrrK+djXG30497Un/P25IHQwxgD/YV8Nbwrn/be/x1I497Un/P25IHQwxgD/YV8Nbwrn/TdjCWIMBP0YYGIsG+yNPpz5eqOnr7PH158LQgdjDMg97KuRE+y/z/H1WKKvs8fXnwtCB2MMyD3sq5ET7L/PYSyFJ8bAOcE4BiLsAAAAAAAAAAAAABCKmBgDAAAAAAAAAABAWOBSitlgjFFiYqIdDktRUVFyOBx22Gvo6+zx9eeC0MEYA3IP+2rkBPvvc3w9lujr7PH154LQwRgDcg/7auQE++9zGEvhiTFwTjCOASbGAAAAAAAAAAAAEBa4lCIAAAAAAAAAAADCAhNjAAAAAAAAAAAACAtMjAEAAAAAAAAAACAsMDEGAAAAAAAAAACAsMDEGAAAAAAAAAAAAMICE2MAAAAAAAAAAAAIC0yMAQAAAAAAAAAAICwwMQYAAAAAAAAAAICwwMQYAAAAAAAAAAAAwgITYwAAAAAAAAAAAAgLTIwBAAAAAAAAAAAgLDAxBgAAAAAAAAAAgLDAxBgAAAAAAAAAAADCwv8DKy692q98yFMAAAAASUVORK5CYII=;imageBorder=none;" vertex="1" parent="1">
          <mxGeometry x="-591" y="100" width="1760" height="193.86" as="geometry" />
        </mxCell>
        <mxCell id="RBxVPRVzNhW-OkWMk0Fq-3" value="&lt;font face=&quot;Helvetica&quot; style=&quot;color: rgb(43, 43, 43); font-size: 24px;&quot;&gt;&lt;b&gt;(a)&lt;/b&gt;&lt;/font&gt;" style="text;html=1;align=center;verticalAlign=middle;whiteSpace=wrap;rounded=0;" parent="1" vertex="1">
          <mxGeometry x="259" y="310" width="60" height="30" as="geometry" />
        </mxCell>
        <mxCell id="RBxVPRVzNhW-OkWMk0Fq-4" value="&lt;font face=&quot;Helvetica&quot; style=&quot;color: rgb(43, 43, 43); font-size: 24px;&quot;&gt;&lt;b style=&quot;&quot;&gt;(b)&lt;/b&gt;&lt;/font&gt;" style="text;html=1;align=center;verticalAlign=middle;whiteSpace=wrap;rounded=0;" parent="1" vertex="1">
          <mxGeometry x="258.5" y="874" width="60" height="30" as="geometry" />
        </mxCell>
      </root>
    </mxGraphModel>
  </diagram>
</mxfile>
